<svg width="155" height="47" viewBox="0 0 155 47" fill="none" xmlns="http://www.w3.org/2000/svg">
<path d="M154.017 41.8889C154.017 44.4365 152.043 46.5 149.602 46.5H5.10479C2.66444 46.5 0.683594 44.4365 0.683594 41.8889V5.1171C0.683594 2.57077 2.66444 0.5 5.10479 0.5H149.6C152.043 0.5 154.016 2.57077 154.016 5.1171L154.017 41.8889Z" fill="#262626"/>
<path d="M34.3563 23.2484C34.3229 19.3681 37.3955 17.4803 37.536 17.3924C35.7958 14.7402 33.0987 14.3778 32.1509 14.3489C29.8856 14.0997 27.6882 15.7659 26.5343 15.7659C25.3573 15.7659 23.5803 14.373 21.6651 14.4139C19.2005 14.4536 16.8949 15.9453 15.6304 18.2617C13.0208 22.9847 14.9671 29.9254 17.4673 33.7431C18.718 35.6128 20.1794 37.7004 22.0923 37.627C23.9638 37.5463 24.6628 36.3797 26.9212 36.3797C29.1589 36.3797 29.8153 37.627 31.7662 37.58C33.7747 37.5463 35.0392 35.7019 36.2461 33.8153C37.6915 31.6723 38.2719 29.5618 38.2949 29.4535C38.2477 29.4366 34.3943 27.8992 34.3563 23.2484Z" fill="white"/>
<path d="M30.6707 11.8377C31.6772 10.5218 32.3659 8.73153 32.1747 6.91479C30.7179 6.98222 28.896 7.96824 27.8468 9.25525C26.9186 10.3894 26.0894 12.2482 26.3036 13.9963C27.9401 14.124 29.6204 13.1331 30.6707 11.8377Z" fill="white"/>
<path d="M61.4393 37.3567H58.8239L57.3913 32.6505H52.4115L51.0468 37.3567H48.5005L53.4342 21.3347H56.4814L61.4393 37.3567ZM56.9594 30.6761L55.6638 26.4924C55.5267 26.065 55.2699 25.0585 54.891 23.4741H54.8449C54.6941 24.1555 54.4511 25.162 54.1171 26.4924L52.8445 30.6761H56.9594Z" fill="white"/>
<path d="M74.1273 31.438C74.1273 33.4028 73.6194 34.9559 72.6037 36.096C71.6938 37.111 70.5641 37.6178 69.2155 37.6178C67.7598 37.6178 66.7141 37.0712 66.0772 35.978H66.0312V42.0639H63.5758V29.6068C63.5758 28.3716 63.5447 27.1038 63.4849 25.8036H65.6442L65.7813 27.6348H65.8273C66.6462 26.2551 67.8888 25.5664 69.5564 25.5664C70.86 25.5664 71.9484 26.1046 72.819 27.1821C73.692 28.2608 74.1273 29.6791 74.1273 31.438ZM71.6259 31.5319C71.6259 30.4074 71.3841 29.4804 70.8981 28.7508C70.3671 27.9899 69.6543 27.6095 68.7606 27.6095C68.1548 27.6095 67.6043 27.8214 67.1126 28.2391C66.6197 28.6605 66.2972 29.2107 66.1463 29.8921C66.0703 30.21 66.0323 30.47 66.0323 30.6747V32.601C66.0323 33.4414 66.2788 34.1505 66.7717 34.7296C67.2646 35.3087 67.9049 35.5976 68.6926 35.5976C69.6174 35.5976 70.3372 35.2244 70.852 34.4804C71.3679 33.7351 71.6259 32.7527 71.6259 31.5319Z" fill="white"/>
<path d="M86.838 31.438C86.838 33.4028 86.3302 34.9559 85.3133 36.096C84.4046 37.111 83.2748 37.6178 81.9262 37.6178C80.4706 37.6178 79.4249 37.0712 78.7891 35.978H78.7431V42.0639H76.2878V29.6068C76.2878 28.3716 76.2567 27.1038 76.1968 25.8036H78.3561L78.4932 27.6348H78.5392C79.3569 26.2551 80.5995 25.5664 82.2683 25.5664C83.5708 25.5664 84.6591 26.1046 85.5321 27.1821C86.4016 28.2608 86.838 29.6791 86.838 31.438ZM84.3367 31.5319C84.3367 30.4074 84.0937 29.4804 83.6077 28.7508C83.0767 27.9899 82.3662 27.6095 81.4713 27.6095C80.8644 27.6095 80.3151 27.8214 79.8222 28.2391C79.3293 28.6605 79.008 29.2107 78.8571 29.8921C78.7822 30.21 78.7431 30.47 78.7431 30.6747V32.601C78.7431 33.4414 78.9895 34.1505 79.4801 34.7296C79.973 35.3075 80.6134 35.5976 81.4034 35.5976C82.3282 35.5976 83.048 35.2244 83.5628 34.4804C84.0787 33.7351 84.3367 32.7527 84.3367 31.5319Z" fill="white"/>
<path d="M101.05 32.8647C101.05 34.2276 100.597 35.3364 99.6883 36.1924C98.6898 37.1279 97.2998 37.595 95.5136 37.595C93.8644 37.595 92.5423 37.2627 91.5415 36.5969L92.1104 34.4575C93.1884 35.139 94.3711 35.4809 95.6598 35.4809C96.5846 35.4809 97.3044 35.2618 97.8215 34.8259C98.3363 34.3901 98.5931 33.805 98.5931 33.0754C98.5931 32.4253 98.3812 31.8775 97.9562 31.4333C97.5335 30.989 96.8276 30.5761 95.8418 30.1944C93.1584 29.1482 91.8179 27.6156 91.8179 25.6002C91.8179 24.2831 92.2878 23.2031 93.2287 22.3628C94.1661 21.5212 95.4168 21.1011 96.9808 21.1011C98.3754 21.1011 99.534 21.3551 100.459 21.862L99.8449 23.9544C98.9812 23.4632 98.0046 23.2176 96.9117 23.2176C96.0479 23.2176 95.3731 23.4403 94.8894 23.8834C94.4805 24.2795 94.2755 24.7622 94.2755 25.3341C94.2755 25.9674 94.5093 26.4911 94.9792 26.9028C95.388 27.2833 96.1308 27.695 97.2088 28.1393C98.5274 28.6943 99.496 29.3432 100.119 30.0873C100.74 30.8289 101.05 31.7571 101.05 32.8647Z" fill="white"/>
<path d="M109.167 27.7322H106.461V33.3413C106.461 34.768 106.938 35.4807 107.894 35.4807C108.332 35.4807 108.696 35.441 108.984 35.3615L109.052 37.3107C108.568 37.4997 107.932 37.5948 107.143 37.5948C106.173 37.5948 105.415 37.2854 104.868 36.6678C104.323 36.0489 104.049 35.0112 104.049 33.5532V27.7297H102.437V25.8034H104.049V23.6881L106.461 22.9272V25.8034H109.167V27.7322Z" fill="white"/>
<path d="M121.379 31.4855C121.379 33.2613 120.893 34.7192 119.923 35.8594C118.906 37.0332 117.556 37.6183 115.874 37.6183C114.252 37.6183 112.961 37.0561 111.998 35.9316C111.036 34.8071 110.554 33.3877 110.554 31.6769C110.554 29.8866 111.049 28.4202 112.043 27.2801C113.035 26.1388 114.373 25.5681 116.056 25.5681C117.677 25.5681 118.982 26.1304 119.967 27.256C120.909 28.348 121.379 29.7578 121.379 31.4855ZM118.831 31.5685C118.831 30.503 118.613 29.5893 118.172 28.8272C117.658 27.905 116.922 27.4451 115.968 27.4451C114.981 27.4451 114.231 27.9062 113.717 28.8272C113.276 29.5905 113.058 30.5187 113.058 31.6167C113.058 32.6822 113.276 33.596 113.717 34.3568C114.248 35.2791 114.989 35.739 115.946 35.739C116.884 35.739 117.62 35.2694 118.151 34.3328C118.603 33.5562 118.831 32.6328 118.831 31.5685Z" fill="white"/>
<path d="M129.36 28.061C129.117 28.014 128.858 27.9899 128.586 27.9899C127.722 27.9899 127.054 28.3306 126.584 29.0133C126.176 29.6152 125.971 30.3761 125.971 31.2947V37.3566H123.516L123.539 29.4419C123.539 28.1103 123.508 26.898 123.447 25.8048H125.586L125.676 28.0152H125.744C126.003 27.2555 126.412 26.6439 126.971 26.1852C127.518 25.7723 128.109 25.5664 128.746 25.5664C128.973 25.5664 129.178 25.5833 129.36 25.6134V28.061Z" fill="white"/>
<path d="M140.34 31.0344C140.34 31.4943 140.312 31.882 140.251 32.1986H132.885C132.913 33.3399 133.269 34.2128 133.953 34.8148C134.574 35.3529 135.377 35.6226 136.363 35.6226C137.453 35.6226 138.448 35.4408 139.343 35.076L139.728 36.8578C138.682 37.3346 137.447 37.5718 136.023 37.5718C134.309 37.5718 132.964 37.0444 131.985 35.991C131.008 34.9376 130.519 33.5229 130.519 31.7483C130.519 30.0062 130.974 28.5555 131.885 27.3985C132.838 26.1633 134.127 25.5457 135.749 25.5457C137.341 25.5457 138.547 26.1633 139.366 27.3985C140.014 28.3797 140.34 29.5933 140.34 31.0344ZM137.999 30.3686C138.015 29.6077 137.855 28.9504 137.522 28.3954C137.097 27.6814 136.444 27.3251 135.566 27.3251C134.763 27.3251 134.11 27.673 133.611 28.3713C133.202 28.9263 132.959 29.5921 132.885 30.3674H137.999V30.3686Z" fill="white"/>
<path d="M56.148 11.4799C56.148 12.897 55.7414 13.9636 54.9295 14.68C54.1775 15.341 53.1088 15.672 51.7245 15.672C51.0381 15.672 50.4507 15.6407 49.959 15.5781V7.83561C50.6005 7.72726 51.2914 7.67188 52.0377 7.67188C53.3564 7.67188 54.3502 7.97165 55.0205 8.57122C55.7714 9.24903 56.148 10.2182 56.148 11.4799ZM54.8754 11.5148C54.8754 10.5962 54.6428 9.89193 54.1775 9.40073C53.7122 8.91072 53.0327 8.66512 52.1379 8.66512C51.7579 8.66512 51.4343 8.69161 51.1659 8.74699V14.633C51.3145 14.6571 51.5863 14.6679 51.9813 14.6679C52.9049 14.6679 53.6178 14.3995 54.1199 13.8625C54.622 13.3256 54.8754 12.543 54.8754 11.5148Z" fill="white"/>
<path d="M62.8963 12.7186C62.8963 13.5914 62.6579 14.3065 62.1811 14.8676C61.6813 15.4443 61.0191 15.732 60.1922 15.732C59.3953 15.732 58.7607 15.4563 58.2874 14.9025C57.8152 14.3499 57.5791 13.6528 57.5791 12.8125C57.5791 11.9336 57.8221 11.2124 58.3104 10.6526C58.7987 10.0928 59.4551 9.81226 60.282 9.81226C61.079 9.81226 61.7193 10.088 62.2041 10.6406C62.6648 11.1775 62.8963 11.871 62.8963 12.7186ZM61.6444 12.7595C61.6444 12.2358 61.5362 11.7867 61.3208 11.4123C61.0675 10.9596 60.707 10.7333 60.2383 10.7333C59.7534 10.7333 59.3849 10.9596 59.1315 11.4123C58.915 11.7867 58.8079 12.243 58.8079 12.7824C58.8079 13.3061 58.9162 13.7551 59.1315 14.1296C59.393 14.5823 59.7569 14.8086 60.2267 14.8086C60.6874 14.8086 61.049 14.5786 61.3093 14.1175C61.5327 13.7359 61.6444 13.2832 61.6444 12.7595Z" fill="white"/>
<path d="M71.9429 9.92798L70.2442 15.6033H69.1387L68.435 13.1389C68.2565 12.5237 68.1114 11.9121 67.9985 11.3053H67.9766C67.8718 11.9289 67.7267 12.5393 67.5402 13.1389L66.7927 15.6033H65.6745L64.0771 9.92798H65.3175L65.9313 12.626C66.0799 13.2641 66.2019 13.8721 66.2998 14.4476H66.3217C66.4115 13.9732 66.5601 13.3688 66.7697 12.638L67.5402 9.92918H68.5237L69.2619 12.5803C69.4404 13.2268 69.5855 13.8492 69.6972 14.4488H69.7306C69.8124 13.8649 69.9356 13.2424 70.0991 12.5803L70.7579 9.92918H71.9429V9.92798Z" fill="white"/>
<path d="M78.1995 15.6017H76.9926V12.351C76.9926 11.3494 76.6287 10.8485 75.8985 10.8485C75.5404 10.8485 75.2513 10.9858 75.0267 11.2615C74.8045 11.5372 74.6916 11.8622 74.6916 12.2343V15.6005H73.4847V11.548C73.4847 11.0496 73.4697 10.509 73.4409 9.92391H74.5016L74.558 10.8112H74.5914C74.7319 10.5355 74.9415 10.308 75.2168 10.1262C75.5438 9.91428 75.9101 9.80713 76.3108 9.80713C76.8176 9.80713 77.2391 9.97809 77.5742 10.3212C77.9911 10.7414 78.1995 11.3686 78.1995 12.2018V15.6017Z" fill="white"/>
<path d="M81.5281 15.602H80.3223V7.32251H81.5281V15.602Z" fill="white"/>
<path d="M88.6341 12.7186C88.6341 13.5914 88.3957 14.3065 87.9189 14.8676C87.4191 15.4443 86.7557 15.732 85.93 15.732C85.1319 15.732 84.4973 15.4563 84.0252 14.9025C83.553 14.3499 83.3169 13.6528 83.3169 12.8125C83.3169 11.9336 83.5599 11.2124 84.0482 10.6526C84.5365 10.0928 85.1929 9.81226 86.0187 9.81226C86.8168 9.81226 87.4559 10.088 87.9419 10.6406C88.4026 11.1775 88.6341 11.871 88.6341 12.7186ZM87.3811 12.7595C87.3811 12.2358 87.2728 11.7867 87.0575 11.4123C86.8053 10.9596 86.4436 10.7333 85.9761 10.7333C85.4901 10.7333 85.1215 10.9596 84.8693 11.4123C84.6528 11.7867 84.5457 12.243 84.5457 12.7824C84.5457 13.3061 84.654 13.7551 84.8693 14.1296C85.1307 14.5823 85.4947 14.8086 85.9645 14.8086C86.4252 14.8086 86.7857 14.5786 87.0459 14.1175C87.2705 13.7359 87.3811 13.2832 87.3811 12.7595Z" fill="white"/>
<path d="M94.4755 15.6032H93.3917L93.3019 14.9495H93.2685C92.8977 15.4708 92.3691 15.732 91.6827 15.732C91.1702 15.732 90.7556 15.5598 90.4435 15.2179C90.1602 14.9073 90.0186 14.5209 90.0186 14.0622C90.0186 13.3687 90.295 12.8402 90.8512 12.4742C91.4063 12.1082 92.1871 11.9288 93.1925 11.9372V11.8313C93.1925 11.0836 92.8171 10.7104 92.065 10.7104C91.5295 10.7104 91.0574 10.8513 90.6497 11.1306L90.4044 10.3023C90.9088 9.97599 91.5318 9.81226 92.2666 9.81226C93.6854 9.81226 94.3971 10.5948 94.3971 12.1599V14.25C94.3971 14.817 94.4236 15.2685 94.4755 15.6032ZM93.2225 13.6528V12.7776C91.8911 12.7535 91.2255 13.1351 91.2255 13.9213C91.2255 14.2175 91.3015 14.439 91.457 14.5871C91.6124 14.7352 91.8105 14.8086 92.0466 14.8086C92.3115 14.8086 92.5591 14.7207 92.7848 14.5461C93.0117 14.3704 93.151 14.1476 93.2029 13.8743C93.2155 13.8129 93.2225 13.7383 93.2225 13.6528Z" fill="white"/>
<path d="M101.333 15.602H100.262L100.206 14.6906H100.172C99.8304 15.3841 99.2477 15.7308 98.4288 15.7308C97.7747 15.7308 97.23 15.4623 96.7981 14.9254C96.3662 14.3884 96.1509 13.6913 96.1509 12.8353C96.1509 11.9167 96.3847 11.1727 96.8545 10.6044C97.3094 10.0747 97.8668 9.80984 98.5302 9.80984C99.2592 9.80984 99.7694 10.0663 100.06 10.5804H100.083V7.32251H101.291V14.073C101.291 14.6256 101.305 15.1349 101.333 15.602ZM100.083 13.2086V12.2623C100.083 12.0985 100.071 11.9661 100.049 11.865C99.9813 11.5616 99.835 11.3063 99.6127 11.1005C99.3882 10.8946 99.1175 10.791 98.8054 10.791C98.3551 10.791 98.0027 10.9777 97.7436 11.3521C97.4868 11.7265 97.3567 12.2045 97.3567 12.7884C97.3567 13.3494 97.4799 13.8045 97.7275 14.1548C97.9889 14.5281 98.3413 14.7147 98.7824 14.7147C99.1786 14.7147 99.4953 14.5594 99.736 14.2476C99.9686 13.9598 100.083 13.6131 100.083 13.2086Z" fill="white"/>
<path d="M111.656 12.7186C111.656 13.5914 111.418 14.3065 110.941 14.8676C110.441 15.4443 109.78 15.732 108.952 15.732C108.156 15.732 107.522 15.4563 107.047 14.9025C106.575 14.3499 106.339 13.6528 106.339 12.8125C106.339 11.9336 106.582 11.2124 107.07 10.6526C107.558 10.0928 108.215 9.81226 109.043 9.81226C109.839 9.81226 110.48 10.088 110.964 10.6406C111.425 11.1775 111.656 11.871 111.656 12.7186ZM110.405 12.7595C110.405 12.2358 110.297 11.7867 110.082 11.4123C109.827 10.9596 109.468 10.7333 108.998 10.7333C108.514 10.7333 108.146 10.9596 107.891 11.4123C107.675 11.7867 107.568 12.243 107.568 12.7824C107.568 13.3061 107.676 13.7551 107.891 14.1296C108.153 14.5823 108.517 14.8086 108.987 14.8086C109.447 14.8086 109.81 14.5786 110.07 14.1175C110.293 13.7359 110.405 13.2832 110.405 12.7595Z" fill="white"/>
<path d="M118.145 15.6017H116.939V12.351C116.939 11.3494 116.575 10.8485 115.844 10.8485C115.486 10.8485 115.196 10.9858 114.973 11.2615C114.75 11.5372 114.638 11.8622 114.638 12.2343V15.6005H113.43V11.548C113.43 11.0496 113.416 10.509 113.387 9.92391H114.447L114.503 10.8112H114.537C114.678 10.5355 114.888 10.308 115.162 10.1262C115.49 9.91428 115.855 9.80713 116.257 9.80713C116.763 9.80713 117.184 9.97809 117.519 10.3212C117.937 10.7414 118.145 11.3686 118.145 12.2018V15.6017Z" fill="white"/>
<path d="M126.268 10.8727H124.939V13.6297C124.939 14.3304 125.175 14.6807 125.642 14.6807C125.859 14.6807 126.039 14.6615 126.18 14.6217L126.211 15.5789C125.973 15.6728 125.66 15.7197 125.274 15.7197C124.797 15.7197 124.426 15.568 124.158 15.2646C123.888 14.9612 123.755 14.4508 123.755 13.7344V10.8727H122.961V9.92758H123.755V8.88738L124.938 8.51416V9.92638H126.267V10.8727H126.268Z" fill="white"/>
<path d="M132.657 15.602H131.449V12.3754C131.449 11.3581 131.085 10.8488 130.356 10.8488C129.796 10.8488 129.414 11.1438 129.204 11.7337C129.168 11.8577 129.148 12.0094 129.148 12.1876V15.6008H127.942V7.32251H129.148V10.7429H129.171C129.551 10.1205 130.095 9.80984 130.801 9.80984C131.301 9.80984 131.715 9.9808 132.043 10.3239C132.452 10.7513 132.657 11.387 132.657 12.2273V15.602Z" fill="white"/>
<path d="M139.247 12.4966C139.247 12.723 139.231 12.9132 139.203 13.0685H135.583C135.599 13.6295 135.772 14.0569 136.107 14.3531C136.413 14.618 136.808 14.7504 137.292 14.7504C137.827 14.7504 138.316 14.6613 138.756 14.4819L138.945 15.3584C138.43 15.592 137.824 15.7087 137.123 15.7087C136.282 15.7087 135.62 15.4499 135.141 14.9322C134.659 14.4145 134.421 13.7198 134.421 12.8482C134.421 11.9922 134.643 11.2795 135.091 10.7112C135.559 10.1044 136.191 9.80103 136.989 9.80103C137.77 9.80103 138.363 10.1044 138.764 10.7112C139.087 11.1928 139.247 11.7887 139.247 12.4966ZM138.096 12.1704C138.105 11.7959 138.026 11.4733 137.862 11.2012C137.652 10.8509 137.333 10.6751 136.902 10.6751C136.508 10.6751 136.186 10.846 135.941 11.1892C135.741 11.4625 135.622 11.7887 135.583 12.1704H138.096Z" fill="white"/>
</svg>
