<svg width="154" height="47" viewBox="0 0 154 47" fill="none" xmlns="http://www.w3.org/2000/svg">
<g clip-path="url(#clip0_426_1380)">
<path fill-rule="evenodd" clip-rule="evenodd" d="M147.652 46.5H5.6811C2.55001 46.5 0 43.9075 0 40.75V6.25C0 3.08105 2.55001 0.5 5.6811 0.5H147.652C150.781 0.5 153.333 3.08105 153.333 6.25V40.75C153.333 43.9075 150.781 46.5 147.652 46.5Z" fill="#262626"/>
<path d="M80.7766 15.7168C79.7526 15.7168 78.8894 15.3526 78.2068 14.6356C77.5298 13.9387 77.1518 12.978 77.1688 11.9972C77.1688 10.9505 77.5185 10.0643 78.2068 9.36169C78.8866 8.64473 79.7498 8.28052 80.7737 8.28052C81.7864 8.28052 82.6496 8.64473 83.3435 9.36169C84.0318 10.0873 84.3815 10.9734 84.3815 11.9972C84.3703 13.0469 84.0205 13.933 83.3435 14.6328C82.6637 15.3555 81.8005 15.7168 80.7766 15.7168ZM50.309 15.7168C49.3076 15.7168 48.4388 15.3583 47.728 14.65C47.0228 13.9445 46.6646 13.0526 46.6646 12.0001C46.6646 10.9476 47.0228 10.0557 47.728 9.35022C48.4247 8.64186 49.2935 8.28339 50.309 8.28339C50.8055 8.28339 51.2879 8.38376 51.7505 8.58738C52.2046 8.78526 52.5741 9.05483 52.8478 9.38463L52.9155 9.4678L52.151 10.2306L52.072 10.136C51.6405 9.61406 51.0622 9.35882 50.2977 9.35882C49.6151 9.35882 49.0199 9.60546 48.5291 10.093C48.0355 10.5834 47.7844 11.2258 47.7844 12.003C47.7844 12.7801 48.0355 13.4225 48.5291 13.9129C49.0199 14.4005 49.6151 14.6471 50.2977 14.6471C51.0255 14.6471 51.6376 14.4005 52.1143 13.9129C52.3964 13.6262 52.5713 13.2247 52.6334 12.7171H50.1821V11.6445H53.6855L53.6996 11.742C53.725 11.9227 53.7504 12.1091 53.7504 12.2811C53.7504 13.2705 53.4571 14.0707 52.876 14.6614C52.2159 15.3612 51.3527 15.7168 50.309 15.7168ZM90.8186 15.5648H89.7383L86.4295 10.1819L86.4577 11.1512V15.5619H85.3773V8.43538H86.61L86.6438 8.48987L89.7552 13.5602L89.727 12.5937V8.43538H90.8186V15.5648ZM72.6583 15.5648H71.5638V9.50795H69.6654V8.43538H74.5539V9.50795H72.6555V15.5648H72.6583ZM68.774 15.5648H67.6824V8.43538H68.774V15.5648ZM62.6388 15.5648H61.5471V9.50795H59.6487V8.43538H64.5372V9.50795H62.6388V15.5648ZM58.9576 15.5533H54.7715V8.43538H58.9576V9.50795H55.866V11.4638H58.6558V12.5249H55.866V14.4808H58.9576V15.5533ZM79.0079 13.8986C79.4959 14.3947 80.0883 14.6442 80.7766 14.6442C81.4846 14.6442 82.0629 14.4005 82.5452 13.8986C83.0247 13.4111 83.2673 12.7715 83.2673 12.0001C83.2673 11.2286 83.0247 10.5863 82.548 10.1016C82.06 9.60546 81.4648 9.35595 80.7794 9.35595C80.0714 9.35595 79.4931 9.59972 79.0136 10.1016C78.534 10.5891 78.2914 11.2286 78.2914 12.0001C78.2914 12.7715 78.5312 13.4139 79.0079 13.8986Z" fill="white"/>
<path fill-rule="evenodd" clip-rule="evenodd" d="M77.0672 25.5191C74.4016 25.5191 72.2408 27.5753 72.2408 30.4116C72.2408 33.2221 74.4157 35.3041 77.0672 35.3041C79.7329 35.3041 81.8936 33.2335 81.8936 30.4116C81.8936 27.5753 79.7329 25.5191 77.0672 25.5191ZM77.0672 33.3655C75.6089 33.3655 74.3536 32.138 74.3536 30.4001C74.3536 28.6364 75.6117 27.4348 77.0672 27.4348C78.5256 27.4348 79.7808 28.6364 79.7808 30.4001C79.7837 32.1495 78.5256 33.3655 77.0672 33.3655ZM66.5372 25.5191C63.8715 25.5191 61.7108 27.5753 61.7108 30.4116C61.7108 33.2221 63.8856 35.3041 66.5372 35.3041C69.2028 35.3041 71.3635 33.2335 71.3635 30.4116C71.3635 27.5753 69.2 25.5191 66.5372 25.5191ZM66.5372 33.3655C65.0788 33.3655 63.8235 32.138 63.8235 30.4001C63.8235 28.6364 65.0816 27.4348 66.5372 27.4348C67.9955 27.4348 69.2508 28.6364 69.2508 30.4001C69.2508 32.1495 67.9955 33.3655 66.5372 33.3655ZM54.0071 27.0132V29.0838H58.8956C58.7461 30.2453 58.3681 31.1027 57.7898 31.6906C57.0733 32.4191 55.9676 33.2106 54.0184 33.2106C51.0143 33.2106 48.6645 30.7443 48.6645 27.69C48.6645 24.6358 51.0143 22.1694 54.0184 22.1694C55.6404 22.1694 56.8223 22.8204 57.6996 23.6521L59.1438 22.1838C57.9252 20.9965 56.3033 20.0874 54.0297 20.0874C49.9085 20.0874 46.4502 23.5001 46.4502 27.6785C46.4502 31.8684 49.9057 35.2697 54.0297 35.2697C56.2553 35.2697 57.9252 34.5298 59.2454 33.136C60.5909 31.7681 61.0168 29.838 61.0168 28.2808C61.0168 27.7961 60.9802 27.3602 60.904 26.9903H54.0043C54.0071 26.9874 54.0071 27.0132 54.0071 27.0132ZM105.258 28.6249C104.855 27.5266 103.636 25.5076 101.137 25.5076C98.6605 25.5076 96.6013 27.4893 96.6013 30.4001C96.6013 33.1475 98.6379 35.2926 101.377 35.2926C103.577 35.2926 104.858 33.9247 105.385 33.1217L103.752 32.009C103.21 32.8263 102.457 33.3626 101.388 33.3626C100.308 33.3626 99.5519 32.8636 99.0498 31.8799L105.484 29.1698C105.484 29.1727 105.258 28.6249 105.258 28.6249ZM98.6971 30.2596C98.6464 28.3697 100.141 27.409 101.21 27.409C102.054 27.409 102.756 27.8305 102.996 28.4443L98.6971 30.2596ZM93.4702 35.0001H95.583V20.6266H93.4702V35.0001ZM90.0006 26.606H89.9244C89.4477 26.0295 88.5423 25.5076 87.3857 25.5076C84.9852 25.5076 82.7737 27.6556 82.7737 30.4145C82.7737 33.1618 84.9739 35.284 87.3857 35.284C88.5281 35.284 89.4477 34.7592 89.9244 34.1713H90.0006V34.8739C90.0006 36.7409 89.019 37.7475 87.4365 37.7475C86.1417 37.7475 85.3378 36.8011 85.0106 36.0096L83.1743 36.7896C83.7018 38.0802 85.1093 39.6775 87.4337 39.6775C89.9103 39.6775 92.009 38.1949 92.009 34.5785V25.8001H90.0119V26.606C90.0147 26.606 90.0006 26.606 90.0006 26.606ZM87.5747 33.3655C86.1164 33.3655 84.8978 32.1266 84.8978 30.4145C84.8978 28.688 86.1164 27.4376 87.5747 27.4376C89.019 27.4376 90.1388 28.7024 90.1388 30.4145C90.1529 32.1266 89.0218 33.3655 87.5747 33.3655ZM115.151 20.6266H110.099V35.0001H112.212V29.557H115.154C117.492 29.557 119.791 27.8334 119.791 25.0975C119.791 22.3616 117.501 20.6266 115.151 20.6266ZM115.213 27.5495H112.209V22.6168H115.213C116.795 22.6168 117.69 23.9446 117.69 25.0832C117.69 26.2102 116.784 27.5495 115.213 27.5495ZM128.259 25.4933C126.725 25.4933 125.142 26.1844 124.488 27.69L126.361 28.4815C126.764 27.69 127.503 27.4204 128.285 27.4204C129.379 27.4204 130.485 28.0858 130.51 29.2731V29.4251C130.132 29.2071 129.303 28.8744 128.31 28.8744C126.287 28.8744 124.237 29.9986 124.237 32.1065C124.237 34.0365 125.895 35.2754 127.743 35.2754C129.162 35.2754 129.943 34.6244 130.431 33.8702H130.507V34.9829H132.544V29.4767C132.544 26.9128 130.671 25.4933 128.259 25.4933ZM127.994 33.3655C127.303 33.3655 126.335 33.0213 126.335 32.138C126.335 31.0253 127.543 30.6037 128.572 30.6037C129.503 30.6037 129.943 30.8073 130.496 31.0884C130.344 32.3789 129.272 33.354 127.994 33.3655ZM139.974 25.8001L137.548 32.0348H137.472L134.959 25.8001H132.685L136.456 34.5155L134.307 39.3592H136.507L142.31 25.8001H139.974ZM120.956 35.0001H123.069V20.6266H120.956V35.0001Z" fill="white"/>
<path d="M11.2455 11.2639V36.2563C11.2455 36.9609 11.4304 37.4993 11.7615 37.8375L11.8471 37.9136L25.5557 23.9109V23.598L11.7048 8.81421C11.2411 9.76151 11.2422 10.1041 11.245 11.0236C11.2453 11.0995 11.2455 11.1794 11.2455 11.2639Z" fill="#37CFFF"/>
<path d="M11.2455 11.2639V36.2563C11.2455 36.9609 11.4304 37.4993 11.7615 37.8375L11.8471 37.9136L25.5557 23.9109V23.598L11.7048 8.81421C11.2411 9.76151 11.2422 10.1041 11.245 11.0236C11.2453 11.0995 11.2455 11.1794 11.2455 11.2639Z" stroke="black"/>
<path d="M31.5999 28.4182L26.9258 23.6662V23.3335L31.5999 18.5815L31.7014 18.6446L37.2302 21.8394C38.8127 22.7456 38.8127 24.2426 37.2302 25.1603L31.7014 28.3551L31.5999 28.4182Z" fill="#FFC328"/>
<path d="M31.5999 28.4182L26.9258 23.6662V23.3335L31.5999 18.5815L31.7014 18.6446L37.2302 21.8394C38.8127 22.7456 38.8127 24.2426 37.2302 25.1603L31.7014 28.3551L31.5999 28.4182Z" stroke="black"/>
<path d="M30.6791 29.3945L25.9035 24.5393L11.8022 38.8756C12.3185 39.4377 13.1844 39.5008 14.152 38.953L30.6791 29.3945Z" fill="#E22F2F"/>
<path d="M30.6791 29.3945L25.9035 24.5393L11.8022 38.8756C12.3185 39.4377 13.1844 39.5008 14.152 38.953L30.6791 29.3945Z" stroke="black"/>
<path d="M30.6791 17.6055L14.152 8.06136C13.1844 7.49927 12.3156 7.5767 11.8022 8.13879L25.9035 22.4607L30.6791 17.6055Z" fill="#29E65E"/>
<path d="M30.6791 17.6055L14.152 8.06136C13.1844 7.49927 12.3156 7.5767 11.8022 8.13879L25.9035 22.4607L30.6791 17.6055Z" stroke="black"/>
</g>
<defs>
<clipPath id="clip0_426_1380">
<rect width="153.333" height="46" fill="white" transform="translate(0 0.5)"/>
</clipPath>
</defs>
</svg>
