<svg width="36" height="22" viewBox="0 0 36 22" fill="none" xmlns="http://www.w3.org/2000/svg">
<path d="M35.856 1.11568C35.6734 0.675975 35.324 0.32656 34.8843 0.143958C34.668 0.0517511 34.4357 0.00284315 34.2005 0H25.2031C24.7259 0 24.2682 0.189588 23.9307 0.527055C23.5932 0.864523 23.4037 1.32223 23.4037 1.79948C23.4037 2.27673 23.5932 2.73443 23.9307 3.0719C24.2682 3.40937 24.7259 3.59896 25.2031 3.59896H29.8638L19.8047 13.658L13.8844 7.71976C13.7171 7.5511 13.5181 7.41723 13.2988 7.32587C13.0795 7.23451 12.8443 7.18748 12.6068 7.18748C12.3692 7.18748 12.134 7.23451 11.9147 7.32587C11.6955 7.41723 11.4964 7.5511 11.3292 7.71976L0.532283 18.5166C0.36362 18.6839 0.229749 18.8829 0.138392 19.1022C0.0470352 19.3215 0 19.5567 0 19.7943C0 20.0318 0.0470352 20.267 0.138392 20.4863C0.229749 20.7056 0.36362 20.9046 0.532283 21.0719C0.699568 21.2406 0.898592 21.3744 1.11788 21.4658C1.33716 21.5571 1.57236 21.6042 1.80991 21.6042C2.04746 21.6042 2.28267 21.5571 2.50195 21.4658C2.72123 21.3744 2.92026 21.2406 3.08754 21.0719L12.6068 11.5347L18.5271 17.4729C18.6944 17.6416 18.8934 17.7755 19.1127 17.8668C19.3319 17.9582 19.5671 18.0052 19.8047 18.0052C20.0422 18.0052 20.2774 17.9582 20.4967 17.8668C20.716 17.7755 20.915 17.6416 21.0823 17.4729L32.401 6.13622V10.7969C32.401 11.2741 32.5906 11.7318 32.9281 12.0693C33.2656 12.4068 33.7233 12.5963 34.2005 12.5963C34.6778 12.5963 35.1355 12.4068 35.4729 12.0693C35.8104 11.7318 36 11.2741 36 10.7969V1.79948C35.9972 1.56433 35.9482 1.33201 35.856 1.11568V1.11568Z" fill="#262626"/>
</svg>
