<svg width="36" height="36" viewBox="0 0 36 36" fill="none" xmlns="http://www.w3.org/2000/svg">
<path d="M19.6876 29.3627H16.4251C15.8626 29.3627 15.4126 29.0252 15.3001 28.4627L14.7376 26.4377L14.2876 26.2127L12.4876 27.2252C12.0376 27.4502 11.4751 27.4502 11.1376 27.0002L8.7751 24.6377C8.4376 24.3002 8.3251 23.7377 8.5501 23.2877L9.5626 21.4877L9.3376 21.0377L7.3126 20.4752C6.8626 20.3627 6.4126 19.9127 6.4126 19.3502V16.0877C6.4126 15.5252 6.7501 15.0752 7.3126 14.9627L9.3376 14.4002L9.5626 13.9502L8.5501 12.1502C8.3251 11.7002 8.3251 11.1377 8.7751 10.8002L11.1376 8.4377C11.4751 8.1002 12.0376 7.9877 12.4876 8.2127L14.2876 9.2252L14.7376 9.0002L15.3001 6.9752C15.4126 6.5252 15.8626 6.0752 16.4251 6.0752H19.6876C20.2501 6.0752 20.7001 6.4127 20.8126 6.9752L21.3751 9.0002L21.8251 9.2252L23.6251 8.2127C24.0751 7.9877 24.6376 7.9877 24.9751 8.4377L27.3376 10.8002C27.6751 11.1377 27.7876 11.7002 27.5626 12.1502L26.5501 13.9502L26.7751 14.4002L28.8001 14.9627C29.2501 15.0752 29.7001 15.5252 29.7001 16.0877V19.3502C29.7001 19.9127 29.3626 20.3627 28.8001 20.4752L26.7751 21.0377L26.5501 21.4877L27.5626 23.2877C27.7876 23.7377 27.7876 24.3002 27.3376 24.6377L24.9751 27.0002C24.6376 27.3377 24.0751 27.4502 23.6251 27.2252L21.8251 26.2127L21.3751 26.4377L20.8126 28.4627C20.5876 29.0252 20.1376 29.3627 19.6876 29.3627ZM17.2126 27.1127H18.7876L19.3501 24.7502L19.9126 24.5252C20.3626 24.4127 20.7001 24.1877 21.1501 24.0752L21.7126 23.7377L23.8501 24.9752L24.9751 23.8502L23.7376 21.7127L24.0751 21.1502C24.3001 20.8127 24.4126 20.3627 24.5251 19.9127L24.7501 19.3502L27.1126 18.7877V17.2127L24.7501 16.6502L24.5251 16.0877C24.4126 15.6377 24.1876 15.3002 24.0751 14.8502L23.7376 14.2877L24.9751 12.1502L23.8501 11.0252L21.7126 12.2627L21.1501 11.9252C20.8126 11.7002 20.3626 11.5877 19.9126 11.4752L19.3501 11.2502L18.7876 8.8877H17.2126L16.6501 11.2502L16.0876 11.4752C15.6376 11.5877 15.3001 11.8127 14.8501 11.9252L14.2876 12.2627L12.1501 11.0252L11.0251 12.1502L12.2626 14.2877L11.9251 14.8502C11.7001 15.1877 11.5876 15.6377 11.4751 16.0877L11.2501 16.6502L8.8876 17.2127V18.7877L11.2501 19.3502L11.4751 19.9127C11.5876 20.3627 11.8126 20.7002 11.9251 21.1502L12.2626 21.7127L11.0251 23.8502L12.1501 24.9752L14.2876 23.7377L14.8501 24.0752C15.1876 24.3002 15.6376 24.4127 16.0876 24.5252L16.6501 24.7502L17.2126 27.1127Z" fill="#262626"/>
<path d="M18.0001 22.8376C15.3001 22.8376 13.1626 20.7001 13.1626 18.0001C13.1626 15.3001 15.3001 13.1626 18.0001 13.1626C20.7001 13.1626 22.8376 15.3001 22.8376 18.0001C22.8376 20.7001 20.7001 22.8376 18.0001 22.8376ZM18.0001 15.4126C16.5376 15.4126 15.4126 16.5376 15.4126 18.0001C15.4126 19.4626 16.5376 20.5876 18.0001 20.5876C19.4626 20.5876 20.5876 19.4626 20.5876 18.0001C20.5876 16.5376 19.4626 15.4126 18.0001 15.4126V15.4126Z" fill="#262626"/>
<path d="M18 0C17.325 0 16.875 0.45 16.875 1.125C16.875 1.8 17.325 2.25 18 2.25C26.6625 2.25 33.75 9.3375 33.75 18C33.75 26.6625 26.6625 33.75 18 33.75C9.3375 33.75 2.25 26.6625 2.25 18C2.25 14.85 3.15 11.8125 4.95 9.225V10.575C4.95 11.25 5.4 11.7 6.075 11.7C6.75 11.7 7.2 11.25 7.2 10.575V4.95H1.575C0.9 4.95 0.45 5.4 0.45 6.075C0.45 6.75 0.9 7.2 1.575 7.2H3.6C1.2375 10.2375 0 14.0625 0 18C0 27.9 8.1 36 18 36C27.9 36 36 27.9 36 18C36 8.1 27.9 0 18 0Z" fill="#262626"/>
</svg>
