<svg width="40" height="40" viewBox="0 0 40 40" fill="none" xmlns="http://www.w3.org/2000/svg">
<path d="M20 38C29.9414 38 38 29.9414 38 20C38 10.0586 29.9414 2 20 2C10.0586 2 2 10.0586 2 20C2 29.9414 10.0586 38 20 38Z" stroke="#262626" stroke-width="2.5" stroke-linecap="round" stroke-linejoin="round"/>
<path d="M20.0001 27.9036V31.6998M25.4001 13.6998C24.1671 12.4668 21.9963 11.61 20.0001 11.556L25.4001 13.6998ZM14.6001 25.3998C15.7593 26.9478 17.9175 27.8298 20.0001 27.9036L14.6001 25.3998ZM20.0001 11.556C17.6241 11.4912 15.5001 12.5658 15.5001 15.4998C15.5001 20.8998 25.4001 18.1998 25.4001 23.5998C25.4001 26.6796 22.7649 28.0026 20.0001 27.9036V11.556ZM20.0001 11.556V8.2998V11.556Z" stroke="#262626" stroke-width="2.5" stroke-linecap="round" stroke-linejoin="round"/>
</svg>
