<svg width="269" height="57" viewBox="0 0 269 57" fill="none" xmlns="http://www.w3.org/2000/svg">
<path opacity="0.25" d="M86.7716 36.7605C76.3568 49.1385 60.7856 57 43.3819 57C41.9489 57 40.5237 56.945 39.1142 56.8428L45.9895 46.0961L50.5626 38.9539H44.8423L45.1634 37.354L46.6277 30.1175L47.7514 24.5673L44.0945 30.2826L39.6584 37.2125L36.2051 42.6134H41.9254L41.2167 46.1157L39.0515 56.831C23.4098 55.6478 9.53775 48.0968 0 36.7566L8.24179 29.7755L14.9213 24.1152L20.3284 19.5359L43.3858 0L66.4432 19.5359L71.8542 24.1152L78.5298 29.7755L86.7716 36.7605Z" fill="white"/>
<path opacity="0.25" d="M78.5297 29.7795C70.6207 39.1779 59.0314 45.365 45.9894 46.0961L50.5625 38.9539H44.8422L45.1633 37.3541L46.6276 30.1175L47.7513 24.5673L44.0944 30.2826L39.6583 37.2126L36.205 42.6134H41.9253L41.2166 46.1157C28.0024 45.4986 16.2407 39.2801 8.2417 29.7756L14.9212 24.1152L20.3283 19.5359L43.3857 0L66.4431 19.5359L71.8541 24.1152L78.5297 29.7795Z" fill="white"/>
<path opacity="0.75" d="M71.8543 24.1231C65.3783 31.8195 55.864 36.8548 45.1673 37.3579L46.6317 30.1214L47.7554 24.5711L44.0985 30.2865L39.6624 37.2164C29.7605 36.2298 20.998 31.3517 14.9175 24.1231L20.3246 19.5437L43.382 0.0078125L66.4393 19.5437L71.8543 24.1231Z" fill="white"/>
<path d="M66.4434 19.5398C61.5649 25.3377 54.5564 29.2724 46.6318 30.1214L47.7555 24.5712L44.0986 30.2865C43.8598 30.2944 43.6248 30.2944 43.386 30.2944C34.138 30.2944 25.861 26.116 20.3286 19.5398L43.386 0.00390625L66.4434 19.5398Z" fill="white"/>
<path d="M117.124 37.7372C114.951 37.7372 113.8 36.7074 113.389 34.3922L111.306 22.7571C111.145 21.7941 110.48 21.2162 109.528 21.2162C108.604 21.2162 107.954 21.7705 107.755 22.7374L105.531 34.3843C105.081 36.7034 103.89 37.7372 101.682 37.7372C99.4073 37.7372 98.264 36.5777 97.9782 33.9834L96.4238 19.6085H98.6282L99.9789 33.9165C100.143 35.5242 101.169 35.764 101.764 35.764C102.728 35.764 103.366 35.2098 103.565 34.2074L105.817 22.5134C106.247 20.3043 107.434 19.2705 109.556 19.2705C111.654 19.2705 112.77 20.2689 113.181 22.5055L115.292 34.1956C115.452 35.1744 116.141 35.764 117.124 35.764C117.719 35.764 118.741 35.5242 118.906 33.9244L120.448 19.6125H122.629L120.942 33.9834C120.656 36.5462 119.442 37.7372 117.124 37.7372Z" fill="white"/>
<path d="M141.165 37.3992L135.554 22.4741C135.299 21.7902 134.759 21.4128 134.035 21.4128C133.322 21.4128 132.794 21.7705 132.5 22.4427L126.631 37.3953H124.336L130.66 21.3185C131.235 19.8602 132.222 19.2627 134.066 19.2627C135.867 19.2627 136.869 19.8759 137.414 21.3106L143.502 37.3914H141.165V37.3992Z" fill="white"/>
<path d="M149.406 37.399V21.6681H143.866V19.6084H157.029V21.6681H151.485V37.399H149.406Z" fill="white"/>
<path d="M165.467 37.399V21.6681H159.927V19.6084H173.09V21.6681H167.55V37.399H165.467Z" fill="white"/>
<path d="M189.221 37.7373C187.009 37.7373 185.783 36.7035 185.255 34.3883L182.553 22.7217C182.338 21.7626 181.629 21.2123 180.615 21.2123C179.429 21.2123 178.63 21.9552 178.63 23.0637V37.3953H176.606V22.8947C176.606 20.5559 178 19.2666 180.529 19.2666C182.843 19.2666 184.206 20.3318 184.695 22.5252L187.369 34.1917C187.62 35.2059 188.289 35.7601 189.252 35.7601C190.216 35.7601 190.881 35.2059 191.132 34.2035L193.806 22.5291C194.307 20.2729 195.556 19.2666 197.858 19.2666C200.388 19.2666 201.781 20.5559 201.781 22.8947V37.3953H199.757V23.0637C199.757 21.9552 198.959 21.2123 197.772 21.2123C196.742 21.2123 196.053 21.7508 195.834 22.7257L193.105 34.3843C192.549 36.7664 191.422 37.7373 189.221 37.7373Z" fill="white"/>
<path d="M214.314 37.399C209.04 37.399 206.366 34.4195 206.366 28.5469C206.366 22.6154 209.04 19.6084 214.314 19.6084H216.902C222.176 19.6084 224.85 22.6154 224.85 28.5469C224.85 34.4234 222.176 37.399 216.902 37.399H214.314ZM214.314 21.6681C210.293 21.6681 208.422 23.8536 208.422 28.5469C208.422 33.2442 210.238 35.3393 214.314 35.3393H216.902C220.959 35.3393 222.767 33.2363 222.767 28.5194C222.767 23.8458 220.904 21.672 216.902 21.672H214.314V21.6681Z" fill="white"/>
<path d="M244.639 37.7372C242.536 37.7372 241.405 36.8646 240.594 34.6241L240.586 34.6005L235.034 22.4073C234.674 21.6054 234.099 21.2162 233.276 21.2162C232.192 21.2162 231.491 21.9002 231.491 22.9536V37.3992H229.439V22.7846C229.439 20.4851 230.728 19.2705 233.167 19.2705C235.246 19.2705 236.373 20.1431 237.184 22.3837L237.192 22.4073L242.744 34.6005C243.225 35.5635 243.977 35.764 244.529 35.764C245.563 35.764 246.287 35.0604 246.287 34.0541V19.6085H248.366V34.1956C248.366 36.5108 247.078 37.7372 244.639 37.7372Z" fill="white"/>
<path d="M266.713 37.399L263.992 32.0964C262.763 29.6987 261.721 29.4353 258.139 29.4353H255.676V37.399H253.625V19.6084H255.676V27.6861H258.139C261.612 27.6861 262.371 27.3048 263.569 24.97L266.291 19.6123H268.444L265.927 24.6201C265.069 26.3418 264.231 27.2341 262.947 27.7962L261.295 28.5194L263.037 28.9911C264.533 29.396 265.288 30.1468 266.408 32.3402L269 37.403H266.713V37.399Z" fill="white"/>
</svg>
