<svg width="281" height="59" viewBox="0 0 281 59" fill="none" xmlns="http://www.w3.org/2000/svg">
<path d="M90.327 38.0477C79.4864 50.862 63.2767 59 45.1618 59C43.6687 59 42.1855 58.9441 40.7188 58.8355L47.8744 47.7127L52.6339 40.3184H46.6813L47.0175 38.6631L48.5402 31.1733L49.7103 25.4276L45.9034 31.3444L41.2857 38.5216L37.6898 44.1126H43.6424L42.9041 47.739L40.6496 58.8322C24.3674 57.608 9.92756 49.7925 0 38.051L8.5795 30.8245L15.5308 24.9669L21.1603 20.2249L45.1618 0.00317383L69.1633 20.2249L74.7962 24.9669L81.7442 30.8245L90.327 38.0477Z" fill="#FF7212"/>
<path d="M81.7443 30.8246C73.5109 40.5554 61.4475 46.9592 47.8745 47.7161L52.634 40.3218H46.6814L47.0176 38.6665L48.5403 31.1767L49.7104 25.431L45.9035 31.3478L41.2858 38.5217L37.6899 44.1127H43.6425L42.9042 47.7391C29.1499 47.1007 16.9086 40.664 8.57959 30.8246L15.5309 24.967L21.1604 20.2251L45.1619 0.0032959L69.1634 20.2251L74.7963 24.967L81.7443 30.8246Z" fill="#F7931E"/>
<path d="M74.7962 24.967C68.0559 32.934 58.1514 38.1466 47.0175 38.6665L48.5402 31.1767L49.7103 25.431L45.9034 31.3478L41.2857 38.5217C30.9791 37.5016 21.8591 32.4502 15.5308 24.967L21.1603 20.2251L45.1618 0.0032959L69.1633 20.2251L74.7962 24.967Z" fill="#FFC112"/>
<path d="M69.1631 20.2218C64.084 26.2241 56.7899 30.2948 48.5401 31.1734L49.7101 25.4277L45.9033 31.3445C45.6561 31.3511 45.4089 31.3544 45.1616 31.3544C35.534 31.3544 26.9216 27.0303 21.1602 20.2218L45.1616 0L69.1631 20.2218Z" fill="#FFE112"/>
<path d="M121.907 39.0597C119.646 39.0597 118.446 37.9902 118.018 35.5978L115.852 23.5536C115.687 22.5598 114.995 21.9609 114.003 21.9609C113.041 21.9609 112.365 22.5367 112.157 23.5371L109.844 35.5912C109.372 37.9902 108.136 39.063 105.836 39.063C103.466 39.063 102.276 37.8651 101.983 35.1766L100.364 20.2957H102.662L104.069 35.1075C104.24 36.7726 105.305 37.0194 105.925 37.0194C106.927 37.0194 107.592 36.4468 107.8 35.4102L110.143 23.3035C110.592 21.0164 111.828 19.9469 114.036 19.9469C116.218 19.9469 117.382 20.9802 117.81 23.2969L120.005 35.3971C120.173 36.4106 120.888 37.0194 121.914 37.0194C122.533 37.0194 123.598 36.7726 123.769 35.114L125.374 20.299H127.642L125.885 35.1733C125.579 37.8223 124.316 39.0597 121.907 39.0597Z" fill="#1C1C1C" stroke="#1C1C1C"/>
<path d="M146.927 38.7076L141.086 23.2607C140.819 22.5532 140.259 22.1616 139.504 22.1616C138.763 22.1616 138.209 22.5301 137.906 23.2278L131.795 38.7076H129.405L135.987 22.0661C136.587 20.5557 137.616 19.9403 139.531 19.9403C141.406 19.9403 142.448 20.5754 143.014 22.0596L149.349 38.7076H146.927Z" fill="#1C1C1C" stroke="#1C1C1C"/>
<path d="M155.506 38.7075V22.4248H149.738V20.2891H163.44V22.4248H157.672V38.7075H155.506Z" fill="#1C1C1C" stroke="#1C1C1C"/>
<path d="M172.224 38.7075V22.4248H166.456V20.2891H180.157V22.4248H174.389V38.7075H172.224Z" fill="#1C1C1C" stroke="#1C1C1C"/>
<path d="M196.95 39.0596C194.646 39.0596 193.371 37.9902 192.82 35.5945L190.009 23.5207C189.785 22.5301 189.046 21.9575 187.992 21.9575C186.756 21.9575 185.928 22.7276 185.928 23.8728V38.7075H183.822V23.6951C183.822 21.2731 185.273 19.937 187.906 19.937C190.315 19.937 191.733 21.0394 192.24 23.31L195.022 35.3872C195.286 36.4369 195.978 37.0095 196.983 37.0095C197.985 37.0095 198.681 36.4369 198.941 35.4003L201.726 23.3133C202.25 20.9769 203.549 19.937 205.945 19.937C208.579 19.937 210.029 21.2698 210.029 23.6951V38.7075H207.923V23.8728C207.923 22.7276 207.092 21.9575 205.859 21.9575C204.788 21.9575 204.07 22.5137 203.839 23.5207L201.001 35.5912C200.411 38.0527 199.241 39.0596 196.95 39.0596Z" fill="#1C1C1C" stroke="#1C1C1C"/>
<path d="M223.068 38.7075C217.58 38.7075 214.795 35.6241 214.795 29.5428C214.795 23.4022 217.577 20.2891 223.068 20.2891H225.761C231.249 20.2891 234.03 23.4022 234.03 29.5428C234.03 35.6241 231.249 38.7075 225.761 38.7075H223.068ZM223.068 22.4248C218.882 22.4248 216.934 24.6856 216.934 29.5428C216.934 34.4065 218.826 36.5751 223.068 36.5751H225.761C229.983 36.5751 231.865 34.3966 231.865 29.5131C231.865 24.6757 229.924 22.4248 225.761 22.4248H223.068V22.4248Z" fill="#1C1C1C" stroke="#1C1C1C"/>
<path d="M254.634 39.0596C252.448 39.0596 251.265 38.158 250.421 35.838L250.411 35.8117L244.634 23.1883C244.261 22.359 243.661 21.9543 242.804 21.9543C241.674 21.9543 240.945 22.6618 240.945 23.751V38.7043H238.81V23.5766C238.81 21.1941 240.151 19.937 242.689 19.937C244.854 19.937 246.028 20.8387 246.872 23.1587L246.881 23.185L252.659 35.8084C253.16 36.8055 253.945 37.0128 254.518 37.0128C255.596 37.0128 256.348 36.2855 256.348 35.2424V20.2891H258.513V35.3872C258.513 37.7894 257.172 39.0596 254.634 39.0596Z" fill="#1C1C1C" stroke="#1C1C1C"/>
<path d="M277.61 38.7075L274.779 33.2185C273.5 30.734 272.416 30.4642 268.688 30.4642H266.127V38.7075H263.991V20.2924H266.127V28.6542H268.688C272.304 28.6542 273.095 28.2594 274.341 25.8406L277.175 20.2924H279.42L276.8 25.4754C275.906 27.259 275.036 28.1804 273.698 28.7661L271.977 29.5164L273.79 30.0035C275.346 30.4214 276.134 31.2013 277.3 33.4686L280 38.7075H277.61Z" fill="#1C1C1C" stroke="#1C1C1C"/>
</svg>
