<svg width="482" height="674" viewBox="0 0 482 674" fill="none" xmlns="http://www.w3.org/2000/svg">
<path d="M34.054 356.622C34.054 348.767 28.0917 343.722 20.3522 343.722C11.6953 343.722 5.1597 349.57 5.1597 356.908H12.2113C12.2113 353.067 15.5364 350.373 20.2948 350.373C24.3653 350.373 26.9451 353.01 26.9451 356.392C26.9451 365.508 5.1597 365.737 5.1597 378.35V385H34.054V378.35H12.3833C12.3833 370.782 34.054 370.553 34.054 356.622ZM72.492 370.381H66.6443V344.296H59.5927L38.7246 370.381V377.088H59.5927V385H66.6443V377.088H72.492V370.381ZM47.6681 370.381L59.5927 355.074V370.381H47.6681ZM98.3469 355.418C93.9899 355.418 90.3781 357.482 87.5689 360.233V342.002H80.5173V385H87.5689V370.496C87.7409 365.794 90.6647 362.068 95.5951 362.068C99.4935 362.068 101.959 364.361 101.959 371.126V385H109.01V367.858C109.01 359.947 105.341 355.418 98.3469 355.418ZM128.193 355.418C125.786 355.418 123.664 356.908 121.83 359.144L121.543 355.991H114.893V385H121.944V372.101C121.944 365.966 124.008 362.068 127.792 362.068C128.939 362.068 130.085 362.469 130.659 362.813L131.691 356.679C131.06 356.048 129.856 355.418 128.193 355.418ZM133.704 376.229C134.106 382.477 139.323 385.573 146.661 385.573C153.254 385.573 158.528 382.592 158.528 377.203C158.528 373.477 156.292 370.324 149.871 368.145C143.737 366.024 141.673 365.622 141.673 363.788C141.673 362.125 143.794 361.265 145.572 361.265C147.464 361.265 149.757 362.183 149.929 364.304H156.98C156.808 359.431 152.509 355.418 145.342 355.418C139.839 355.418 134.622 358.571 134.622 363.788C134.622 368.489 138.348 370.897 143.278 372.387C149.126 374.279 151.419 374.738 151.419 377.031C151.419 378.808 149.241 379.668 146.833 379.668C143.393 379.668 141.157 378.292 140.756 376.229H133.704Z" fill="#262626"/>
<path d="M12.5568 404.21V402.539C11.7696 401.867 10.4448 401.176 8.5248 401.176C4.704 401.176 1.728 404.286 1.728 408.184C1.728 412.082 4.704 415.192 8.5248 415.192C10.4448 415.192 11.7696 414.501 12.5568 413.829V412.158C11.8464 412.83 10.5792 413.637 8.7168 413.637C5.7792 413.637 3.3792 411.275 3.3792 408.184C3.3792 405.093 5.7792 402.731 8.7168 402.731C10.5792 402.731 11.8272 403.538 12.5568 404.21ZM19.1741 415.192C22.1309 415.192 24.3197 412.926 24.3197 410.123C24.3197 407.358 22.1309 405.093 19.1741 405.093C16.2365 405.093 14.0093 407.358 14.0093 410.123C14.0093 412.926 16.2365 415.192 19.1741 415.192ZM19.1741 413.637C17.1965 413.637 15.6605 412.043 15.6605 410.123C15.6605 408.242 17.1965 406.648 19.1741 406.648C21.1709 406.648 22.6685 408.242 22.6685 410.123C22.6685 412.043 21.1709 413.637 19.1741 413.637ZM37.9463 405.093C36.3335 405.093 35.1239 406.072 34.2791 407.282C33.8375 405.938 32.8199 405.093 31.3031 405.093C29.8439 405.093 28.6919 405.918 27.8663 406.974L27.7895 405.285H26.2343V415H27.8855V410.373C28.0007 408.338 29.0567 406.648 30.7271 406.648C32.1095 406.648 32.8775 407.781 32.8775 409.451V415H34.5287V410.373C34.6439 408.338 35.6999 406.648 37.3703 406.648C38.7719 406.648 39.5207 407.781 39.5207 409.451V415H41.1719V408.952C41.1719 406.686 40.0199 405.093 37.9463 405.093ZM43.578 419.416H45.2292V412.792C45.8244 414.174 47.3028 415.192 49.1268 415.192C51.9108 415.192 54.0612 412.926 54.0612 410.123C54.0612 407.358 51.9108 405.093 49.1268 405.093C47.3028 405.093 45.8244 406.11 45.2292 407.493L45.1332 405.285H43.578V419.416ZM45.3828 410.123C45.3828 408.242 46.8996 406.648 48.8772 406.648C50.874 406.648 52.41 408.242 52.41 410.123C52.41 412.043 50.874 413.637 48.8772 413.637C46.8996 413.637 45.3828 412.043 45.3828 410.123ZM57.5292 400.6H55.878V415H57.5292V400.6ZM69.2682 410.238C69.2682 407.493 67.3866 405.093 64.4106 405.093C61.5306 405.093 59.553 407.358 59.553 410.085C59.553 413.022 61.6266 415.192 64.5642 415.192C67.1178 415.192 68.6154 413.502 68.9994 412.178L67.5402 411.986C67.1178 412.85 66.1578 413.714 64.5642 413.714C62.5674 413.714 61.2618 412.427 61.2042 410.661H69.2682V410.238ZM64.4106 406.571C66.3114 406.571 67.521 407.954 67.617 409.47H61.2042C61.2618 407.877 62.5866 406.571 64.4106 406.571ZM75.6324 405.285H73.6164V402.405H71.9844V405.285H70.602V406.84H71.9844V415H73.6164V406.84H75.6324V405.285ZM86.3682 410.238C86.3682 407.493 84.4866 405.093 81.5106 405.093C78.6306 405.093 76.653 407.358 76.653 410.085C76.653 413.022 78.7266 415.192 81.6642 415.192C84.2178 415.192 85.7154 413.502 86.0994 412.178L84.6402 411.986C84.2178 412.85 83.2578 413.714 81.6642 413.714C79.6674 413.714 78.3618 412.427 78.3042 410.661H86.3682V410.238ZM81.5106 406.571C83.4114 406.571 84.621 407.954 84.717 409.47H78.3042C78.3618 407.877 79.6866 406.571 81.5106 406.571ZM95.7747 411.678H94.1235C94.1235 414.078 95.9859 415.192 97.6755 415.192C99.5379 415.192 101.074 414.002 101.074 411.237L101.093 401.368H99.4419V411.237C99.4419 413.157 98.5971 413.637 97.5987 413.637C96.4659 413.637 95.7747 412.811 95.7747 411.678ZM108.218 415.192C111.175 415.192 113.363 412.926 113.363 410.123C113.363 407.358 111.175 405.093 108.218 405.093C105.28 405.093 103.053 407.358 103.053 410.123C103.053 412.926 105.28 415.192 108.218 415.192ZM108.218 413.637C106.24 413.637 104.704 412.043 104.704 410.123C104.704 408.242 106.24 406.648 108.218 406.648C110.215 406.648 111.712 408.242 111.712 410.123C111.712 412.043 110.215 413.637 108.218 413.637ZM122.499 405.285V410.238H122.48C122.48 411.621 121.559 413.637 119.255 413.637C117.757 413.637 116.72 412.715 116.72 410.277V405.285H115.069V410.968C115.069 413.714 116.432 415.192 118.679 415.192C120.368 415.192 121.616 414.347 122.519 413.291L122.576 415H124.131V405.285H122.499ZM130.406 405.093C129.504 405.093 128.755 405.688 128.16 406.514L128.083 405.285H126.528V415H128.179V410.162C128.179 408.338 128.813 406.648 130.31 406.648C130.771 406.648 131.155 406.821 131.347 406.955L131.635 405.515C131.424 405.323 131.002 405.093 130.406 405.093ZM138.675 405.093C137.004 405.093 135.737 405.938 134.854 406.974L134.777 405.285H133.222V415H134.873V410.046C134.873 408.664 135.795 406.648 138.099 406.648C139.596 406.648 140.633 407.57 140.633 410.008V415H142.284V409.317C142.284 406.571 140.921 405.093 138.675 405.093ZM153.662 410.238C153.662 407.493 151.78 405.093 148.804 405.093C145.924 405.093 143.947 407.358 143.947 410.085C143.947 413.022 146.02 415.192 148.958 415.192C151.512 415.192 153.009 413.502 153.393 412.178L151.934 411.986C151.512 412.85 150.552 413.714 148.958 413.714C146.961 413.714 145.656 412.427 145.598 410.661H153.662V410.238ZM148.804 406.571C150.705 406.571 151.915 407.954 152.011 409.47H145.598C145.656 407.877 146.98 406.571 148.804 406.571ZM154.292 405.285L158.516 414.981L156.596 419.416H158.343L164.468 405.285H162.702L159.399 412.946L156.059 405.285H154.292Z" fill="#666666"/>
<path d="M68.5988 40.6578C68.0472 40.6864 67.6233 41.1567 67.6519 41.7082C67.6805 42.2598 68.1508 42.6837 68.7024 42.6551L68.5988 40.6578ZM76.099 44.7729L75.267 45.3276L76.099 44.7729ZM127.827 38.5868L128.27 37.6905L127.827 38.5868ZM148.881 63.182L149.872 63.0497L148.881 63.182ZM151.984 82.8704L152.875 82.4165L151.984 82.8704ZM161.244 120.921L160.353 121.375L161.244 120.921ZM185.594 148.848L186.038 147.952L185.594 148.848ZM201.277 170.219L201.905 169.441L201.277 170.219ZM230.576 193.219L230.683 192.225L230.576 193.219ZM246.873 206.385L245.922 206.693L246.873 206.385ZM272.624 241.245L271.64 241.423C271.675 241.621 271.771 241.805 271.913 241.948L272.624 241.245ZM293.87 249.484L294.761 249.03L293.87 249.484ZM294.897 269.28L294.135 269.927L294.897 269.28ZM319.259 277.357L318.614 278.122C318.642 278.146 318.672 278.167 318.702 278.188L319.259 277.357ZM367.064 295.894L366.262 296.492L367.064 295.894ZM357.528 312.735L358.239 312.032L357.528 312.735ZM367.887 351.897L366.963 352.281L367.887 351.897ZM388.82 374.163L389.121 373.209L388.82 374.163ZM406.469 373.247L406.855 372.325L406.469 373.247ZM420.69 386.521L419.698 386.397L420.69 386.521ZM427.886 404.829L427.442 405.726L427.886 404.829ZM455.482 415.074L454.491 415.206L455.482 415.074ZM431.653 437.327L430.681 437.092L431.653 437.327ZM419.486 463.645L418.876 462.853L419.486 463.645ZM403.226 491.344L404.226 491.373L403.226 491.344ZM377.068 528.897L376.602 528.012L377.068 528.897ZM372.904 548.962L372.019 548.496L372.904 548.962ZM359.155 564.854L360.135 564.656L359.155 564.854ZM359.627 594.02L359.147 593.142L359.627 594.02ZM312.388 625.729C312.454 626.277 312.953 626.668 313.501 626.601C314.049 626.535 314.44 626.037 314.374 625.489L312.388 625.729ZM69.1607 42.6476C69.7129 42.6558 70.1672 42.2148 70.1753 41.6625C70.1835 41.1103 69.7425 40.656 69.1902 40.6479L69.1607 42.6476ZM76.5605 43.7173C76.2109 43.2898 75.5809 43.2267 75.1533 43.5763C74.7258 43.9259 74.6627 44.5559 75.0123 44.9835L76.5605 43.7173ZM75.7767 45.8811C76.2081 46.2259 76.8374 46.1557 77.1822 45.7243C77.5271 45.2929 77.4569 44.6637 77.0255 44.3188L75.7767 45.8811ZM82.282 44.0647C81.7445 44.1919 81.412 44.7307 81.5391 45.2681C81.6663 45.8056 82.2051 46.1381 82.7426 46.011L82.282 44.0647ZM83.6317 45.7905C84.1664 45.6523 84.4879 45.1068 84.3497 44.5721C84.2115 44.0374 83.666 43.7159 83.1313 43.8541L83.6317 45.7905ZM89.0847 42.0724C88.5585 42.2401 88.2678 42.8026 88.4355 43.3288C88.6032 43.855 89.1657 44.1457 89.6919 43.978L89.0847 42.0724ZM90.5444 43.7067C91.0708 43.5398 91.3622 42.9776 91.1952 42.4512C91.0282 41.9248 90.4661 41.6334 89.9397 41.8004L90.5444 43.7067ZM96.3748 40.2742C95.8235 40.241 95.3496 40.6609 95.3164 41.2122C95.2832 41.7635 95.7032 42.2373 96.2545 42.2706L96.3748 40.2742ZM96.8855 42.4903C97.4123 42.6562 97.9738 42.3636 98.1396 41.8368C98.3055 41.31 98.0129 40.7485 97.4861 40.5827L96.8855 42.4903ZM103.975 41.6713C103.427 41.6055 102.929 41.9967 102.863 42.5451C102.797 43.0935 103.189 43.5913 103.737 43.6571L103.975 41.6713ZM104.704 43.7697C105.253 43.8318 105.748 43.4372 105.81 42.8884C105.872 42.3397 105.477 41.8445 104.929 41.7824L104.704 43.7697ZM111.629 42.4049C111.078 42.3645 110.599 42.7783 110.559 43.3291C110.518 43.8799 110.932 44.3592 111.483 44.3996L111.629 42.4049ZM112.453 44.4678C113.004 44.5048 113.481 44.0881 113.518 43.537C113.555 42.986 113.138 42.5093 112.587 42.4722L112.453 44.4678ZM119.253 42.695C118.701 42.7109 118.266 43.1714 118.282 43.7234C118.298 44.2755 118.758 44.7101 119.31 44.6942L119.253 42.695ZM120.537 44.6026C121.083 44.5217 121.46 44.0131 121.379 43.4668C121.298 42.9205 120.79 42.5433 120.243 42.6242L120.537 44.6026ZM127.108 37.4717C126.559 37.5323 126.163 38.0265 126.224 38.5755C126.285 39.1244 126.779 39.5202 127.328 39.4596L127.108 37.4717ZM127.784 39.699C128.265 39.9707 128.875 39.8012 129.147 39.3203C129.418 38.8395 129.249 38.2295 128.768 37.9578L127.784 39.699ZM134.915 42.1501C134.478 41.8122 133.85 41.8925 133.512 42.3294C133.174 42.7663 133.255 43.3944 133.692 43.7322L134.915 42.1501ZM134.499 44.367C134.931 44.7116 135.56 44.6412 135.905 44.2097C136.249 43.7782 136.179 43.1489 135.747 42.8042L134.499 44.367ZM141.257 47.7695C140.871 47.3738 140.238 47.3654 139.843 47.7506C139.447 48.1359 139.438 48.769 139.824 49.1647L141.257 47.7695ZM140.528 49.9042C140.905 50.308 141.538 50.33 141.942 49.9533C142.346 49.5765 142.368 48.9438 141.991 48.5399L140.528 49.9042ZM146.581 54.4449C146.29 53.9757 145.673 53.8316 145.204 54.123C144.735 54.4143 144.591 55.0309 144.882 55.5001L146.581 54.4449ZM145.397 56.364C145.671 56.8436 146.282 57.0103 146.762 56.7364C147.241 56.4625 147.408 55.8517 147.134 55.3721L145.397 56.364ZM149.79 62.5027C149.699 61.9579 149.184 61.5898 148.639 61.6806C148.094 61.7713 147.726 62.2865 147.817 62.8313L149.79 62.5027ZM147.945 63.733C148.017 64.2806 148.519 64.6662 149.067 64.5943C149.614 64.5224 150 64.0202 149.928 63.4726L147.945 63.733ZM150.602 69.304C150.547 68.7544 150.057 68.353 149.508 68.4075C148.958 68.462 148.557 68.9518 148.611 69.5013L150.602 69.304ZM148.691 70.3274C148.743 70.8773 149.231 71.2808 149.781 71.2287C150.331 71.1767 150.734 70.6888 150.682 70.1389L148.691 70.3274ZM151.192 75.9573C151.138 75.4077 150.649 75.0059 150.099 75.0599C149.549 75.114 149.148 75.6033 149.202 76.153L151.192 75.9573ZM149.291 77.0008C149.354 77.5495 149.85 77.9433 150.399 77.8803C150.948 77.8173 151.341 77.3214 151.278 76.7727L149.291 77.0008ZM152.699 82.061C152.459 81.5636 151.861 81.355 151.363 81.595C150.866 81.8351 150.657 82.4329 150.897 82.9303L152.699 82.061ZM151.336 83.7888C151.596 84.2758 152.202 84.4594 152.689 84.1988C153.176 83.9383 153.36 83.3324 153.099 82.8454L151.336 83.7888ZM156.644 88.8965C156.362 88.4216 155.749 88.265 155.274 88.5468C154.799 88.8286 154.642 89.4421 154.924 89.917L156.644 88.8965ZM155.435 90.7817C155.715 91.2578 156.328 91.4167 156.804 91.1368C157.28 90.8568 157.439 90.244 157.159 89.7679L155.435 90.7817ZM160.603 96.006C160.356 95.5122 159.755 95.3125 159.261 95.5599C158.767 95.8073 158.568 96.4081 158.815 96.9019L160.603 96.006ZM159.252 97.7922C159.49 98.2902 160.088 98.5005 160.586 98.2618C161.084 98.0231 161.294 97.4259 161.055 96.9278L159.252 97.7922ZM163.426 103.894C163.362 103.345 162.865 102.953 162.316 103.017C161.768 103.081 161.375 103.577 161.439 104.126L163.426 103.894ZM161.491 105.044C161.497 105.596 161.95 106.039 162.502 106.033C163.054 106.027 163.497 105.574 163.491 105.022L161.491 105.044ZM162.301 112.464C162.428 111.927 162.097 111.388 161.559 111.26C161.022 111.132 160.483 111.464 160.355 112.001L162.301 112.464ZM160.115 113.03C159.994 113.569 160.332 114.104 160.871 114.225C161.41 114.347 161.945 114.008 162.067 113.47L160.115 113.03ZM161.952 120.067C161.743 119.556 161.159 119.311 160.648 119.521C160.136 119.73 159.892 120.314 160.101 120.825L161.952 120.067ZM160.577 121.803C160.836 122.29 161.442 122.475 161.929 122.215C162.417 121.956 162.601 121.35 162.342 120.863L160.577 121.803ZM165.679 126.404C165.378 125.941 164.758 125.81 164.295 126.112C163.832 126.413 163.701 127.032 164.003 127.495L165.679 126.404ZM164.522 128.286C164.827 128.747 165.448 128.872 165.908 128.567C166.369 128.262 166.495 127.642 166.19 127.181L164.522 128.286ZM169.934 132.501C169.603 132.059 168.977 131.968 168.534 132.299C168.092 132.63 168.001 133.257 168.332 133.699L169.934 132.501ZM168.902 134.455C169.237 134.894 169.864 134.979 170.304 134.645C170.743 134.31 170.828 133.683 170.494 133.243L168.902 134.455ZM174.596 138.273C174.231 137.859 173.599 137.818 173.184 138.183C172.77 138.547 172.729 139.179 173.094 139.594L174.596 138.273ZM173.725 140.303C174.095 140.714 174.727 140.747 175.137 140.377C175.548 140.007 175.581 139.375 175.211 138.965L173.725 140.303ZM179.765 143.532C179.352 143.165 178.72 143.201 178.353 143.614C177.986 144.027 178.023 144.659 178.435 145.026L179.765 143.532ZM179.157 145.655C179.578 146.013 180.209 145.963 180.567 145.543C180.925 145.123 180.875 144.492 180.455 144.133L179.157 145.655ZM185.645 147.752C185.156 147.495 184.552 147.684 184.295 148.173C184.039 148.662 184.227 149.267 184.716 149.523L185.645 147.752ZM185.632 149.991C186.12 150.25 186.725 150.065 186.984 149.577C187.243 149.089 187.058 148.484 186.57 148.225L185.632 149.991ZM192.873 153.559C192.535 153.122 191.907 153.042 191.47 153.379C191.033 153.717 190.953 154.345 191.29 154.782L192.873 153.559ZM191.925 155.65C192.24 156.104 192.863 156.218 193.317 155.903C193.771 155.589 193.884 154.966 193.57 154.512L191.925 155.65ZM197.3 161.684C197.082 161.177 196.494 160.942 195.986 161.161C195.479 161.379 195.245 161.967 195.463 162.475L197.3 161.684ZM195.91 163.513C196.129 164.02 196.718 164.253 197.225 164.035C197.732 163.816 197.965 163.227 197.746 162.72L195.91 163.513ZM201.532 169.117C201.127 168.741 200.495 168.764 200.118 169.168C199.742 169.573 199.765 170.205 200.169 170.582L201.532 169.117ZM200.988 171.277C201.411 171.632 202.042 171.577 202.397 171.153C202.752 170.73 202.696 170.099 202.273 169.745L200.988 171.277ZM207.17 174.227C206.768 173.848 206.135 173.865 205.756 174.267C205.376 174.668 205.394 175.301 205.795 175.68L207.17 174.227ZM206.48 176.328C206.881 176.708 207.514 176.691 207.893 176.29C208.273 175.889 208.256 175.256 207.855 174.876L206.48 176.328ZM212.637 179.372C212.232 178.997 211.599 179.021 211.224 179.426C210.849 179.832 210.873 180.464 211.278 180.839L212.637 179.372ZM211.97 181.478C212.376 181.852 213.009 181.826 213.383 181.419C213.757 181.013 213.73 180.38 213.324 180.006L211.97 181.478ZM218.208 184.355C217.788 183.997 217.157 184.046 216.798 184.466C216.439 184.886 216.489 185.517 216.909 185.876L218.208 184.355ZM217.631 186.488C218.054 186.844 218.685 186.789 219.04 186.367C219.396 185.944 219.341 185.313 218.919 184.958L217.631 186.488ZM224.036 188.946C223.584 188.629 222.96 188.738 222.643 189.19C222.325 189.642 222.435 190.265 222.887 190.583L224.036 188.946ZM223.68 191.128C224.139 191.436 224.76 191.313 225.068 190.855C225.376 190.396 225.253 189.775 224.795 189.467L223.68 191.128ZM230.306 192.168C229.764 192.065 229.24 192.421 229.137 192.963C229.033 193.506 229.389 194.029 229.932 194.133L230.306 192.168ZM230.939 194.264C231.488 194.325 231.982 193.929 232.043 193.38C232.103 192.831 231.707 192.337 231.158 192.276L230.939 194.264ZM237.892 193.602C237.373 193.414 236.799 193.682 236.611 194.201C236.422 194.72 236.69 195.294 237.209 195.482L237.892 193.602ZM238.023 195.81C238.528 196.035 239.119 195.808 239.344 195.304C239.569 194.8 239.342 194.208 238.838 193.984L238.023 195.81ZM244.271 198.53C243.951 198.08 243.326 197.974 242.876 198.295C242.426 198.615 242.321 199.239 242.641 199.689L244.271 198.53ZM243.138 200.43C243.433 200.897 244.051 201.037 244.518 200.742C244.985 200.447 245.124 199.829 244.829 199.362L243.138 200.43ZM247.671 205.61C247.495 205.086 246.928 204.804 246.404 204.98C245.881 205.156 245.599 205.723 245.775 206.246L247.671 205.61ZM246.099 207.222C246.279 207.744 246.849 208.021 247.371 207.841C247.893 207.661 248.17 207.091 247.989 206.569L246.099 207.222ZM251.289 212.92C250.962 212.476 250.336 212.381 249.891 212.709C249.446 213.037 249.352 213.663 249.679 214.107L251.289 212.92ZM250.363 214.99C250.711 215.418 251.341 215.483 251.769 215.135C252.198 214.787 252.263 214.157 251.915 213.728L250.363 214.99ZM257.271 218.397C256.798 218.113 256.183 218.267 255.899 218.741C255.615 219.214 255.769 219.829 256.243 220.113L257.271 218.397ZM257.221 220.664C257.709 220.923 258.314 220.737 258.572 220.249C258.831 219.761 258.645 219.156 258.157 218.897L257.221 220.664ZM264.839 220.784C264.287 220.781 263.837 221.226 263.834 221.779C263.831 222.331 264.276 222.781 264.828 222.784L264.839 220.784ZM265.738 222.776C266.289 222.825 266.774 222.419 266.823 221.869C266.872 221.319 266.466 220.833 265.916 220.784L265.738 222.776ZM270.757 226.05C270.579 225.527 270.011 225.248 269.489 225.426C268.966 225.604 268.686 226.172 268.864 226.694L270.757 226.05ZM269.128 227.529C269.285 228.059 269.841 228.361 270.371 228.205C270.9 228.049 271.203 227.492 271.047 226.963L269.128 227.529ZM272.399 233.374C272.311 232.829 271.798 232.459 271.253 232.547C270.707 232.635 270.337 233.148 270.425 233.694L272.399 233.374ZM270.568 234.595C270.653 235.141 271.164 235.514 271.71 235.429C272.256 235.344 272.629 234.833 272.544 234.287L270.568 234.595ZM273.529 240.624C273.434 240.08 272.917 239.715 272.373 239.81C271.828 239.905 271.464 240.423 271.559 240.967L273.529 240.624ZM272.282 242.313C272.68 242.697 273.313 242.686 273.696 242.288C274.08 241.891 274.069 241.258 273.671 240.874L272.282 242.313ZM279.039 244.451C278.53 244.237 277.943 244.476 277.729 244.985C277.515 245.494 277.754 246.08 278.263 246.294L279.039 244.451ZM279.226 246.67C279.746 246.857 280.319 246.587 280.506 246.067C280.692 245.547 280.422 244.974 279.903 244.788L279.226 246.67ZM286.363 246.049C285.813 246.001 285.328 246.409 285.28 246.959C285.233 247.509 285.64 247.994 286.19 248.041L286.363 246.049ZM287.176 248.122C287.727 248.165 288.208 247.753 288.251 247.203C288.294 246.652 287.882 246.171 287.332 246.128L287.176 248.122ZM294.428 248.481C294.106 248.033 293.481 247.93 293.033 248.252C292.584 248.574 292.482 249.199 292.804 249.648L294.428 248.481ZM293.107 250.229C293.3 250.747 293.875 251.01 294.393 250.818C294.911 250.625 295.174 250.05 294.982 249.532L293.107 250.229ZM294.382 256.092C294.539 255.562 294.237 255.006 293.708 254.848C293.178 254.691 292.622 254.993 292.465 255.523L294.382 256.092ZM292.218 256.356C292.063 256.886 292.367 257.442 292.897 257.597C293.427 257.752 293.982 257.448 294.137 256.918L292.218 256.356ZM293.184 262.557C293.166 262.005 292.703 261.573 292.151 261.591C291.599 261.61 291.167 262.073 291.185 262.625L293.184 262.557ZM291.255 263.569C291.318 264.117 291.814 264.511 292.362 264.448C292.911 264.385 293.305 263.889 293.242 263.341L291.255 263.569ZM295.399 268.317C295.055 267.885 294.426 267.814 293.994 268.159C293.562 268.503 293.492 269.132 293.836 269.564L295.399 268.317ZM294.531 270.373C294.906 270.778 295.538 270.803 295.944 270.428C296.349 270.053 296.373 269.42 295.998 269.015L294.531 270.373ZM302.084 272.463C301.548 272.329 301.005 272.655 300.871 273.191C300.737 273.727 301.063 274.269 301.599 274.403L302.084 272.463ZM302.723 274.651C303.265 274.757 303.79 274.402 303.895 273.86C304 273.318 303.646 272.793 303.103 272.688L302.723 274.651ZM310.643 273.464C310.093 273.413 309.606 273.818 309.555 274.367C309.504 274.917 309.909 275.404 310.459 275.455L310.643 273.464ZM311.526 275.566C312.075 275.63 312.572 275.238 312.636 274.689C312.7 274.141 312.308 273.644 311.759 273.58L311.526 275.566ZM319.428 276.214C318.986 275.883 318.359 275.973 318.028 276.415C317.696 276.856 317.786 277.483 318.228 277.815L319.428 276.214ZM319.148 278.489C319.604 278.799 320.226 278.681 320.537 278.224C320.847 277.767 320.729 277.145 320.272 276.835L319.148 278.489ZM326.544 281.174C326.084 280.87 325.463 280.996 325.159 281.457C324.854 281.917 324.98 282.538 325.441 282.842L326.544 281.174ZM326.368 283.446C326.833 283.744 327.452 283.609 327.749 283.144C328.047 282.679 327.912 282.06 327.447 281.762L326.368 283.446ZM334.017 285.251C333.504 285.046 332.922 285.296 332.717 285.809C332.512 286.322 332.762 286.904 333.275 287.109L334.017 285.251ZM334.334 287.507C334.854 287.691 335.426 287.419 335.61 286.898C335.794 286.377 335.521 285.806 335 285.622L334.334 287.507ZM342.133 286.838C341.581 286.85 341.144 287.308 341.156 287.86C341.169 288.412 341.626 288.85 342.179 288.837L342.133 286.838ZM343.283 288.793C343.835 288.775 344.268 288.313 344.25 287.761C344.231 287.209 343.769 286.776 343.217 286.794L343.283 288.793ZM351.083 287.413C350.539 287.316 350.02 287.678 349.923 288.222C349.826 288.765 350.188 289.285 350.731 289.382L351.083 287.413ZM351.786 289.584C352.327 289.695 352.856 289.346 352.966 288.805C353.077 288.264 352.728 287.735 352.187 287.625L351.786 289.584ZM359.724 289.884C359.213 289.676 358.629 289.922 358.421 290.434C358.213 290.945 358.458 291.529 358.97 291.737L359.724 289.884ZM359.951 292.154C360.455 292.378 361.046 292.151 361.271 291.647C361.495 291.142 361.268 290.551 360.763 290.327L359.951 292.154ZM367.474 294.811C367.112 294.394 366.481 294.35 366.063 294.711C365.646 295.073 365.601 295.705 365.963 296.122L367.474 294.811ZM366.395 296.708C366.64 297.203 367.24 297.406 367.735 297.161C368.23 296.916 368.433 296.316 368.188 295.821L366.395 296.708ZM366.013 302.284C366.37 301.863 366.318 301.232 365.897 300.875C365.476 300.518 364.845 300.57 364.487 300.991L366.013 302.284ZM363.936 301.621C363.567 302.032 363.6 302.664 364.011 303.034C364.422 303.403 365.054 303.369 365.423 302.959L363.936 301.621ZM361.173 307.33C361.557 306.933 361.548 306.3 361.151 305.916C360.755 305.532 360.121 305.541 359.737 305.938L361.173 307.33ZM359.128 306.576C358.749 306.979 358.769 307.612 359.172 307.99C359.575 308.368 360.207 308.348 360.586 307.945L359.128 306.576ZM358.138 311.903C357.869 311.421 357.26 311.248 356.778 311.518C356.296 311.787 356.123 312.397 356.393 312.879L358.138 311.903ZM357.263 313.821C357.709 314.147 358.334 314.049 358.66 313.603C358.985 313.157 358.888 312.532 358.442 312.206L357.263 313.821ZM363.684 313.042C363.132 313.034 362.677 313.475 362.669 314.027C362.661 314.579 363.102 315.034 363.654 315.042L363.684 313.042ZM364.51 315.053C365.063 315.061 365.517 314.62 365.524 314.067C365.532 313.515 365.09 313.061 364.538 313.054L364.51 315.053ZM370.752 313.715C370.223 313.555 369.665 313.854 369.505 314.382C369.345 314.911 369.644 315.469 370.172 315.629L370.752 313.715ZM370.878 315.882C371.386 316.098 371.973 315.861 372.189 315.352C372.404 314.844 372.167 314.257 371.659 314.041L370.878 315.882ZM375.523 319.489C375.468 318.94 374.978 318.539 374.429 318.594C373.879 318.649 373.478 319.139 373.533 319.689L375.523 319.489ZM373.58 320.604C373.588 321.156 374.043 321.597 374.595 321.589C375.147 321.581 375.588 321.127 375.58 320.575L373.58 320.604ZM373.066 328.506C373.393 328.061 373.297 327.435 372.852 327.108C372.407 326.781 371.781 326.877 371.454 327.322L373.066 328.506ZM370.802 328.147C370.446 328.57 370.5 329.201 370.922 329.557C371.344 329.912 371.975 329.858 372.331 329.436L370.802 328.147ZM368.049 335.13C368.102 334.58 367.699 334.092 367.149 334.038C366.6 333.985 366.111 334.388 366.058 334.937L368.049 335.13ZM366.102 336.287C366.177 336.834 366.682 337.216 367.229 337.14C367.776 337.065 368.158 336.56 368.083 336.013L366.102 336.287ZM372.508 341.709C372.452 341.16 371.96 340.76 371.411 340.817C370.861 340.874 370.462 341.366 370.519 341.915L372.508 341.709ZM370.561 343.023C370.536 343.575 370.962 344.043 371.514 344.068C372.066 344.093 372.533 343.666 372.559 343.115L370.561 343.023ZM368.588 350.923C368.414 350.398 367.849 350.114 367.324 350.288C366.8 350.462 366.516 351.027 366.69 351.552L368.588 350.923ZM367.173 352.756C367.406 353.257 368.001 353.474 368.502 353.242C369.003 353.009 369.22 352.414 368.987 351.913L367.173 352.756ZM372.488 357.484C372.162 357.038 371.536 356.942 371.091 357.269C370.645 357.596 370.549 358.222 370.876 358.667L372.488 357.484ZM371.463 359.455C371.796 359.896 372.423 359.984 372.864 359.651C373.305 359.318 373.392 358.691 373.059 358.25L371.463 359.455ZM377.318 363.429C376.951 363.017 376.319 362.98 375.907 363.347C375.494 363.715 375.458 364.347 375.825 364.759L377.318 363.429ZM376.482 365.488C376.854 365.896 377.487 365.926 377.895 365.553C378.303 365.181 378.332 364.549 377.96 364.141L376.482 365.488ZM382.686 368.868C382.275 368.499 381.643 368.534 381.274 368.945C380.905 369.356 380.94 369.988 381.351 370.357L382.686 368.868ZM382.095 371.011C382.513 371.371 383.145 371.324 383.505 370.905C383.865 370.486 383.818 369.855 383.399 369.495L382.095 371.011ZM388.731 373.071C388.217 372.871 387.637 373.125 387.436 373.64C387.236 374.155 387.491 374.734 388.005 374.935L388.731 373.071ZM389.122 375.287C389.658 375.421 390.201 375.096 390.335 374.56C390.469 374.024 390.144 373.481 389.608 373.347L389.122 375.287ZM396.788 372.382C396.263 372.552 395.976 373.117 396.147 373.642C396.318 374.167 396.882 374.454 397.407 374.283L396.788 372.382ZM398.461 373.953C398.991 373.797 399.293 373.24 399.136 372.711C398.979 372.181 398.423 371.879 397.894 372.035L398.461 373.953ZM406.286 372.101C405.768 371.909 405.193 372.174 405.002 372.693C404.81 373.211 405.075 373.786 405.593 373.977L406.286 372.101ZM406.476 374.336C406.985 374.551 407.572 374.314 407.788 373.805C408.003 373.297 407.766 372.71 407.257 372.494L406.476 374.336ZM412.803 375.142C412.319 374.876 411.711 375.054 411.446 375.538C411.18 376.022 411.358 376.63 411.842 376.896L412.803 375.142ZM412.576 377.308C413.055 377.584 413.666 377.42 413.942 376.941C414.218 376.463 414.053 375.851 413.575 375.576L412.576 377.308ZM418.647 379.291C418.255 378.903 417.622 378.906 417.233 379.299C416.845 379.691 416.848 380.324 417.24 380.713L418.647 379.291ZM417.791 381.293C418.159 381.705 418.791 381.742 419.203 381.375C419.616 381.008 419.653 380.376 419.285 379.963L417.791 381.293ZM421.728 386.147C421.76 385.596 421.339 385.123 420.787 385.091C420.236 385.06 419.763 385.481 419.731 386.032L421.728 386.147ZM419.643 386.84C419.577 387.389 419.968 387.887 420.516 387.953C421.064 388.02 421.562 387.629 421.629 387.081L419.643 386.84ZM421.34 393.098C421.306 392.547 420.831 392.128 420.28 392.162C419.728 392.196 419.309 392.671 419.344 393.222L421.34 393.098ZM419.422 394.15C419.48 394.7 419.973 395.097 420.522 395.039C421.071 394.98 421.469 394.487 421.41 393.938L419.422 394.15ZM423.148 399.394C422.86 398.922 422.245 398.773 421.773 399.061C421.302 399.349 421.153 399.964 421.44 400.435L423.148 399.394ZM421.972 401.237C422.294 401.685 422.919 401.788 423.368 401.465C423.816 401.143 423.918 400.518 423.596 400.07L421.972 401.237ZM427.952 403.741C427.464 403.483 426.859 403.671 426.602 404.159C426.344 404.648 426.532 405.253 427.02 405.51L427.952 403.741ZM427.938 405.956C428.444 406.177 429.033 405.945 429.254 405.439C429.475 404.933 429.243 404.343 428.737 404.123L427.938 405.956ZM435.24 405.398C434.689 405.363 434.213 405.781 434.178 406.332C434.142 406.883 434.561 407.359 435.112 407.394L435.24 405.398ZM436.129 407.45C436.68 407.476 437.148 407.05 437.174 406.498C437.2 405.946 436.774 405.478 436.222 405.452L436.129 407.45ZM443.233 405.684C442.682 405.653 442.21 406.075 442.179 406.627C442.149 407.178 442.571 407.65 443.122 407.681L443.233 405.684ZM444.101 407.745C444.651 407.787 445.132 407.375 445.174 406.824C445.216 406.273 444.804 405.793 444.253 405.751L444.101 407.745ZM451.412 407.409C450.919 407.161 450.318 407.361 450.07 407.854C449.822 408.348 450.021 408.949 450.515 409.196L451.412 407.409ZM451.288 409.638C451.752 409.939 452.371 409.807 452.671 409.343C452.972 408.88 452.84 408.261 452.376 407.96L451.288 409.638ZM456.39 414.397C456.296 413.853 455.778 413.488 455.234 413.583C454.69 413.677 454.325 414.194 454.42 414.739L456.39 414.397ZM454.542 415.692C454.584 416.243 455.065 416.655 455.615 416.613C456.166 416.571 456.578 416.091 456.536 415.54L454.542 415.692ZM454.055 423.225C454.389 422.785 454.302 422.158 453.862 421.824C453.422 421.49 452.795 421.577 452.461 422.017L454.055 423.225ZM451.823 422.801C451.46 423.217 451.504 423.849 451.92 424.212C452.337 424.574 452.969 424.53 453.331 424.114L451.823 422.801ZM447.339 429.102C447.802 428.801 447.933 428.182 447.632 427.719C447.331 427.255 446.712 427.124 446.249 427.425L447.339 429.102ZM445.358 427.99C444.888 428.281 444.743 428.897 445.034 429.367C445.324 429.836 445.941 429.982 446.41 429.691L445.358 427.99ZM439.723 433.363C440.215 433.113 440.412 432.512 440.162 432.019C439.912 431.527 439.31 431.33 438.818 431.58L439.723 433.363ZM437.857 432.066C437.364 432.315 437.166 432.916 437.415 433.409C437.664 433.902 438.265 434.1 438.758 433.851L437.857 432.066ZM432.692 437.455C433.023 437.013 432.932 436.386 432.489 436.056C432.047 435.725 431.42 435.816 431.09 436.259L432.692 437.455ZM430.576 437.625C430.489 438.17 430.86 438.683 431.405 438.771C431.95 438.859 432.463 438.488 432.551 437.943L430.576 437.625ZM431.884 444.478C431.966 443.932 431.589 443.423 431.043 443.341C430.496 443.26 429.987 443.637 429.906 444.183L431.884 444.478ZM429.759 445.087C429.664 445.631 430.028 446.149 430.572 446.244C431.116 446.34 431.634 445.976 431.729 445.432L429.759 445.087ZM429.869 451.956C430.079 451.445 429.835 450.861 429.324 450.651C428.814 450.44 428.229 450.684 428.019 451.195L429.869 451.956ZM427.661 452.026C427.433 452.53 427.657 453.122 428.16 453.349C428.664 453.577 429.256 453.353 429.483 452.85L427.661 452.026ZM425.96 458.67C426.3 458.235 426.223 457.606 425.787 457.266C425.352 456.927 424.724 457.004 424.384 457.439L425.96 458.67ZM423.812 458.148C423.458 458.572 423.515 459.203 423.938 459.557C424.362 459.911 424.993 459.854 425.347 459.43L423.812 458.148ZM420.482 464.137C420.915 463.794 420.988 463.165 420.646 462.732C420.303 462.299 419.674 462.226 419.241 462.568L420.482 464.137ZM418.451 463.181C418.014 463.519 417.934 464.147 418.272 464.584C418.611 465.021 419.239 465.101 419.675 464.763L418.451 463.181ZM414.036 469.399C414.448 469.031 414.483 468.399 414.116 467.987C413.748 467.575 413.115 467.539 412.704 467.907L414.036 469.399ZM411.91 468.628C411.505 469.003 411.48 469.636 411.855 470.041C412.23 470.447 412.862 470.471 413.268 470.097L411.91 468.628ZM408.472 475.399C408.791 474.948 408.684 474.324 408.233 474.005C407.782 473.686 407.158 473.793 406.839 474.244L408.472 475.399ZM406.225 475.154C405.927 475.619 406.062 476.238 406.527 476.536C406.991 476.834 407.61 476.7 407.908 476.235L406.225 475.154ZM405.191 482.689C405.319 482.152 404.988 481.612 404.451 481.484C403.913 481.355 403.374 481.687 403.245 482.224L405.191 482.689ZM403.012 483.29C402.905 483.831 403.256 484.358 403.798 484.466C404.34 484.574 404.866 484.222 404.974 483.68L403.012 483.29ZM404.243 490.847C404.262 490.295 403.83 489.832 403.279 489.812C402.727 489.793 402.263 490.225 402.244 490.777L404.243 490.847ZM402.209 491.795C402.184 492.347 402.611 492.814 403.163 492.839C403.714 492.864 404.182 492.437 404.207 491.885L402.209 491.795ZM403.138 498.979C403.274 498.443 402.949 497.9 402.414 497.764C401.878 497.629 401.335 497.953 401.199 498.489L403.138 498.979ZM400.949 499.426C400.8 499.958 401.11 500.51 401.642 500.659C402.174 500.808 402.726 500.498 402.875 499.966L400.949 499.426ZM400.358 506.651C400.595 506.153 400.382 505.556 399.883 505.319C399.384 505.082 398.788 505.295 398.551 505.794L400.358 506.651ZM398.123 506.669C397.875 507.162 398.074 507.763 398.568 508.011C399.061 508.26 399.662 508.061 399.91 507.567L398.123 506.669ZM396.228 513.67C396.548 513.22 396.442 512.595 395.992 512.275C395.542 511.955 394.918 512.061 394.598 512.511L396.228 513.67ZM394.023 513.301C393.694 513.745 393.786 514.371 394.229 514.7C394.673 515.03 395.299 514.937 395.628 514.494L394.023 513.301ZM390.988 519.888C391.376 519.496 391.373 518.863 390.981 518.474C390.589 518.086 389.955 518.089 389.567 518.481L390.988 519.888ZM388.87 519.17C388.474 519.555 388.465 520.188 388.849 520.584C389.234 520.981 389.867 520.99 390.263 520.605L388.87 519.17ZM384.841 525.202C385.285 524.873 385.379 524.247 385.05 523.803C384.722 523.359 384.096 523.266 383.652 523.594L384.841 525.202ZM382.859 524.169C382.409 524.489 382.304 525.113 382.625 525.563C382.945 526.013 383.569 526.119 384.019 525.798L382.859 524.169ZM377.984 529.542C378.471 529.28 378.653 528.674 378.392 528.188C378.13 527.701 377.524 527.519 377.037 527.78L377.984 529.542ZM376.116 528.271C375.63 528.534 375.449 529.14 375.712 529.626C375.975 530.112 376.581 530.293 377.067 530.03L376.116 528.271ZM371.461 534.046C371.829 533.633 371.792 533.001 371.38 532.634C370.968 532.266 370.336 532.303 369.968 532.715L371.461 534.046ZM369.25 533.627C368.938 534.082 369.054 534.705 369.51 535.017C369.966 535.329 370.588 535.213 370.9 534.757L369.25 533.627ZM371.565 540.375C371.261 539.913 370.641 539.785 370.18 540.088C369.718 540.392 369.59 541.012 369.893 541.473L371.565 540.375ZM370.484 542.351C370.795 542.807 371.417 542.925 371.874 542.614C372.33 542.303 372.448 541.681 372.137 541.225L370.484 542.351ZM374.053 548.864C374.262 548.353 374.018 547.769 373.507 547.56C372.996 547.35 372.412 547.594 372.203 548.105L374.053 548.864ZM371.818 548.86C371.54 549.338 371.702 549.95 372.18 550.227C372.657 550.505 373.269 550.343 373.547 549.865L371.818 548.86ZM368.943 554.798C369.38 554.46 369.461 553.832 369.124 553.395C368.787 552.958 368.159 552.877 367.721 553.214L368.943 554.798ZM367.009 553.749C366.564 554.075 366.468 554.701 366.794 555.147C367.121 555.592 367.746 555.688 368.192 555.362L367.009 553.749ZM363.01 559.05C363.441 558.705 363.511 558.075 363.166 557.644C362.821 557.213 362.192 557.143 361.761 557.488L363.01 559.05ZM361.02 558.109C360.607 558.475 360.568 559.107 360.934 559.521C361.3 559.935 361.932 559.973 362.346 559.607L361.02 558.109ZM360.072 564.274C360.003 563.726 359.503 563.338 358.955 563.406C358.407 563.475 358.019 563.975 358.088 564.523L360.072 564.274ZM358.306 565.609C358.447 566.143 358.995 566.461 359.529 566.319C360.063 566.177 360.38 565.63 360.239 565.096L358.306 565.609ZM363.075 571.543C362.83 571.048 362.23 570.845 361.735 571.089C361.24 571.334 361.037 571.934 361.282 572.429L363.075 571.543ZM361.735 573.353C361.977 573.85 362.576 574.056 363.072 573.815C363.569 573.573 363.775 572.975 363.534 572.478L361.735 573.353ZM366.338 579.339C366.183 578.809 365.628 578.505 365.097 578.659C364.567 578.814 364.263 579.369 364.418 579.9L366.338 579.339ZM364.673 580.855C364.803 581.392 365.344 581.722 365.88 581.592C366.417 581.462 366.747 580.922 366.617 580.385L364.673 580.855ZM366.481 588.1C366.667 587.58 366.396 587.007 365.876 586.821C365.356 586.635 364.784 586.905 364.598 587.425L366.481 588.1ZM364.239 588.276C363.996 588.772 364.201 589.371 364.697 589.613C365.194 589.856 365.793 589.651 366.035 589.154L364.239 588.276ZM360.592 594.623C361.07 594.346 361.232 593.734 360.954 593.256C360.676 592.779 360.064 592.617 359.587 592.894L360.592 594.623ZM358.705 593.38C358.218 593.64 358.033 594.246 358.293 594.733C358.552 595.22 359.158 595.405 359.645 595.146L358.705 593.38ZM352.941 598.317C353.448 598.096 353.679 597.507 353.458 597C353.238 596.494 352.648 596.263 352.142 596.483L352.941 598.317ZM351.179 596.901C350.672 597.119 350.438 597.707 350.656 598.214C350.875 598.722 351.463 598.956 351.97 598.737L351.179 596.901ZM345.198 601.587C345.708 601.374 345.948 600.789 345.736 600.279C345.523 599.769 344.937 599.529 344.427 599.742L345.198 601.587ZM343.458 600.147C342.949 600.36 342.709 600.946 342.922 601.456C343.136 601.965 343.721 602.205 344.231 601.992L343.458 600.147ZM337.505 604.875C338.01 604.651 338.237 604.061 338.013 603.556C337.789 603.051 337.198 602.823 336.694 603.047L337.505 604.875ZM335.732 603.477C335.228 603.704 335.004 604.296 335.23 604.799C335.457 605.303 336.049 605.527 336.553 605.301L335.732 603.477ZM329.982 608.45C330.473 608.196 330.665 607.593 330.411 607.102C330.158 606.612 329.555 606.419 329.064 606.673L329.982 608.45ZM328.129 607.162C327.641 607.421 327.456 608.027 327.715 608.515C327.974 609.002 328.579 609.188 329.067 608.929L328.129 607.162ZM322.864 612.634C323.319 612.321 323.435 611.699 323.122 611.243C322.81 610.788 322.187 610.673 321.732 610.985L322.864 612.634ZM320.854 611.603C320.407 611.927 320.306 612.552 320.63 612.999C320.953 613.447 321.578 613.548 322.026 613.224L320.854 611.603ZM316.84 617.987C317.183 617.554 317.11 616.925 316.677 616.582C316.244 616.24 315.615 616.313 315.272 616.746L316.84 617.987ZM314.61 617.638C314.295 618.092 314.408 618.715 314.862 619.03C315.316 619.345 315.939 619.232 316.253 618.778L314.61 617.638ZM314.329 625.015C314.292 624.463 313.816 624.046 313.265 624.083C312.714 624.12 312.297 624.596 312.334 625.147L314.329 625.015ZM68.7024 42.6551C68.8362 42.6481 68.9899 42.6451 69.1607 42.6476L69.1902 40.6479C68.9791 40.6447 68.7807 40.6483 68.5988 40.6578L68.7024 42.6551ZM75.0123 44.9835C75.1022 45.0934 75.1872 45.208 75.267 45.3276L76.931 44.2181C76.8144 44.0432 76.6906 43.8764 76.5605 43.7173L75.0123 44.9835ZM75.267 45.3276C75.4098 45.5419 75.5825 45.7258 75.7767 45.8811L77.0255 44.3188C76.9828 44.2847 76.9531 44.2513 76.931 44.2181L75.267 45.3276ZM82.7426 46.011C83.0356 45.9416 83.3323 45.8679 83.6317 45.7905L83.1313 43.8541C82.8437 43.9284 82.5603 43.9989 82.282 44.0647L82.7426 46.011ZM89.6919 43.978C89.9801 43.8861 90.2644 43.7956 90.5444 43.7067L89.9397 41.8004C89.6582 41.8896 89.3727 41.9806 89.0847 42.0724L89.6919 43.978ZM96.2545 42.2706C96.3024 42.2735 96.3293 42.2782 96.3395 42.2804C96.344 42.2814 96.3425 42.2813 96.3359 42.2791C96.3293 42.2769 96.3162 42.2721 96.2984 42.2632L97.185 40.4705C96.91 40.3345 96.6178 40.2888 96.3748 40.2742L96.2545 42.2706ZM96.2984 42.2632C96.4753 42.3508 96.6788 42.4253 96.8855 42.4903L97.4861 40.5827C97.3269 40.5325 97.232 40.4937 97.185 40.4705L96.2984 42.2632ZM103.737 43.6571C104.054 43.6952 104.377 43.7327 104.704 43.7697L104.929 41.7824C104.606 41.7459 104.288 41.7089 103.975 41.6713L103.737 43.6571ZM111.483 44.3996C111.809 44.4235 112.133 44.4462 112.453 44.4678L112.587 42.4722C112.271 42.451 111.951 42.4285 111.629 42.4049L111.483 44.3996ZM119.31 44.6942C119.486 44.6891 119.654 44.6825 119.815 44.6742L119.711 42.6769C119.568 42.6843 119.415 42.6904 119.253 42.695L119.31 44.6942ZM119.815 44.6742C120.063 44.6613 120.303 44.6372 120.537 44.6026L120.243 42.6242C120.074 42.6494 119.896 42.6673 119.711 42.6769L119.815 44.6742ZM127.328 39.4596C127.323 39.4601 127.32 39.4594 127.323 39.46C127.327 39.4608 127.347 39.4651 127.383 39.4832L128.27 37.6905C127.906 37.5105 127.514 37.4269 127.108 37.4717L127.328 39.4596ZM127.383 39.4832C127.471 39.5267 127.605 39.5979 127.784 39.699L128.768 37.9578C128.572 37.8471 128.403 37.7565 128.27 37.6905L127.383 39.4832ZM133.692 43.7322C133.957 43.9376 134.227 44.1493 134.499 44.367L135.747 42.8042C135.466 42.5798 135.189 42.3617 134.915 42.1501L133.692 43.7322ZM139.824 49.1647C140.06 49.408 140.296 49.6545 140.528 49.9042L141.991 48.5399C141.748 48.2795 141.503 48.0226 141.257 47.7695L139.824 49.1647ZM144.882 55.5001C145.06 55.7861 145.232 56.0741 145.397 56.364L147.134 55.3721C146.956 55.0602 146.771 54.751 146.581 54.4449L144.882 55.5001ZM147.817 62.8313C147.844 62.9921 147.868 63.1531 147.89 63.3143L149.872 63.0497C149.848 62.8668 149.82 62.6845 149.79 62.5027L147.817 62.8313ZM147.89 63.3143C147.908 63.4552 147.927 63.5947 147.945 63.733L149.928 63.4726C149.91 63.3329 149.891 63.1919 149.872 63.0497L147.89 63.3143ZM148.611 69.5013C148.639 69.784 148.666 70.0593 148.691 70.3274L150.682 70.1389C150.657 69.868 150.63 69.5898 150.602 69.304L148.611 69.5013ZM149.202 76.153C149.23 76.445 149.26 76.7271 149.291 77.0008L151.278 76.7727C151.248 76.512 151.22 76.2409 151.192 75.9573L149.202 76.153ZM150.897 82.9303C150.96 83.0604 151.025 83.1916 151.093 83.3243L152.875 82.4165C152.814 82.2961 152.755 82.1777 152.699 82.061L150.897 82.9303ZM151.093 83.3243C151.169 83.4736 151.25 83.6286 151.336 83.7888L153.099 82.8454C153.019 82.6951 152.944 82.5521 152.875 82.4165L151.093 83.3243ZM154.924 89.917C155.093 90.2022 155.264 90.4906 155.435 90.7817L157.159 89.7679C156.986 89.4742 156.815 89.1835 156.644 88.8965L154.924 89.917ZM158.815 96.9019C158.965 97.2006 159.111 97.4976 159.252 97.7922L161.055 96.9278C160.909 96.6219 160.758 96.3144 160.603 96.006L158.815 96.9019ZM161.439 104.126C161.457 104.277 161.469 104.423 161.477 104.562L163.474 104.459C163.464 104.273 163.448 104.085 163.426 103.894L161.439 104.126ZM161.477 104.562C161.485 104.722 161.49 104.883 161.491 105.044L163.491 105.022C163.489 104.835 163.484 104.647 163.474 104.459L161.477 104.562ZM160.355 112.001C160.273 112.344 160.193 112.687 160.115 113.03L162.067 113.47C162.141 113.138 162.22 112.804 162.301 112.464L160.355 112.001ZM160.101 120.825C160.177 121.01 160.261 121.194 160.353 121.375L162.136 120.467C162.068 120.335 162.007 120.202 161.952 120.067L160.101 120.825ZM160.353 121.375C160.421 121.508 160.496 121.651 160.577 121.803L162.342 120.863C162.266 120.72 162.197 120.588 162.136 120.467L160.353 121.375ZM164.003 127.495C164.172 127.755 164.345 128.018 164.522 128.286L166.19 127.181C166.015 126.918 165.845 126.659 165.679 126.404L164.003 127.495ZM168.332 133.699C168.52 133.95 168.71 134.202 168.902 134.455L170.494 133.243C170.305 132.995 170.118 132.748 169.934 132.501L168.332 133.699ZM173.094 139.594C173.303 139.832 173.513 140.068 173.725 140.303L175.211 138.965C175.005 138.736 174.8 138.505 174.596 138.273L173.094 139.594ZM178.435 145.026C178.675 145.239 178.916 145.449 179.157 145.655L180.455 144.133C180.225 143.937 179.995 143.736 179.765 143.532L178.435 145.026ZM184.716 149.523C184.861 149.599 185.006 149.673 185.151 149.744L186.038 147.952C185.907 147.887 185.776 147.82 185.645 147.752L184.716 149.523ZM185.151 149.744C185.314 149.825 185.474 149.907 185.632 149.991L186.57 148.225C186.395 148.132 186.218 148.041 186.038 147.952L185.151 149.744ZM191.29 154.782C191.511 155.067 191.722 155.357 191.925 155.65L193.57 154.512C193.348 154.191 193.116 153.873 192.873 153.559L191.29 154.782ZM195.463 162.475C195.613 162.821 195.762 163.171 195.91 163.513L197.746 162.72C197.599 162.378 197.452 162.036 197.3 161.684L195.463 162.475ZM200.169 170.582C200.324 170.725 200.483 170.864 200.648 170.997L201.905 169.441C201.778 169.338 201.653 169.23 201.532 169.117L200.169 170.582ZM200.648 170.997C200.756 171.084 200.869 171.178 200.988 171.277L202.273 169.745C202.146 169.638 202.024 169.537 201.905 169.441L200.648 170.997ZM205.795 175.68C206.02 175.893 206.248 176.109 206.48 176.328L207.855 174.876C207.623 174.657 207.395 174.44 207.17 174.227L205.795 175.68ZM211.278 180.839C211.507 181.052 211.738 181.265 211.97 181.478L213.324 180.006C213.094 179.795 212.865 179.583 212.637 179.372L211.278 180.839ZM216.909 185.876C217.15 186.082 217.391 186.286 217.631 186.488L218.919 184.958C218.682 184.759 218.445 184.558 218.208 184.355L216.909 185.876ZM222.887 190.583C223.153 190.77 223.418 190.952 223.68 191.128L224.795 189.467C224.545 189.299 224.292 189.125 224.036 188.946L222.887 190.583ZM229.932 194.133C230.112 194.167 230.291 194.194 230.469 194.213L230.683 192.225C230.563 192.212 230.438 192.193 230.306 192.168L229.932 194.133ZM230.469 194.213C230.627 194.23 230.784 194.247 230.939 194.264L231.158 192.276C231 192.259 230.842 192.242 230.683 192.225L230.469 194.213ZM237.209 195.482C237.486 195.583 237.758 195.692 238.023 195.81L238.838 193.984C238.526 193.845 238.211 193.718 237.892 193.602L237.209 195.482ZM242.641 199.689C242.809 199.924 242.974 200.171 243.138 200.43L244.829 199.362C244.646 199.073 244.46 198.796 244.271 198.53L242.641 199.689ZM245.775 206.246C245.824 206.393 245.873 206.542 245.922 206.693L247.825 206.077C247.774 205.919 247.722 205.764 247.671 205.61L245.775 206.246ZM245.922 206.693C245.979 206.871 246.039 207.048 246.099 207.222L247.989 206.569C247.933 206.407 247.878 206.243 247.825 206.077L245.922 206.693ZM249.679 214.107C249.903 214.41 250.131 214.704 250.363 214.99L251.915 213.728C251.702 213.467 251.494 213.198 251.289 212.92L249.679 214.107ZM256.243 220.113C256.569 220.308 256.895 220.492 257.221 220.664L258.157 218.897C257.862 218.741 257.567 218.574 257.271 218.397L256.243 220.113ZM264.828 222.784C265.029 222.785 265.226 222.781 265.42 222.771L265.316 220.773C265.163 220.781 265.004 220.785 264.839 220.784L264.828 222.784ZM265.42 222.771C265.532 222.765 265.638 222.767 265.738 222.776L265.916 220.784C265.719 220.766 265.519 220.763 265.316 220.773L265.42 222.771ZM268.864 226.694C268.955 226.962 269.043 227.241 269.128 227.529L271.047 226.963C270.955 226.651 270.858 226.346 270.757 226.05L268.864 226.694ZM270.425 233.694C270.473 233.993 270.521 234.293 270.568 234.595L272.544 234.287C272.497 233.983 272.448 233.678 272.399 233.374L270.425 233.694ZM271.559 240.967C271.585 241.12 271.612 241.272 271.64 241.423L273.608 241.067C273.581 240.921 273.555 240.773 273.529 240.624L271.559 240.967ZM271.913 241.948C272.036 242.073 272.159 242.194 272.282 242.313L273.671 240.874C273.559 240.766 273.447 240.655 273.335 240.542L271.913 241.948ZM278.263 246.294C278.585 246.43 278.907 246.555 279.226 246.67L279.903 244.788C279.615 244.684 279.327 244.572 279.039 244.451L278.263 246.294ZM286.19 248.041C286.527 248.071 286.857 248.097 287.176 248.122L287.332 246.128C287.014 246.103 286.691 246.077 286.363 246.049L286.19 248.041ZM292.804 249.648C292.867 249.736 292.925 249.832 292.979 249.938L294.761 249.03C294.663 248.836 294.552 248.653 294.428 248.481L292.804 249.648ZM292.979 249.938C293.028 250.033 293.07 250.13 293.107 250.229L294.982 249.532C294.919 249.362 294.845 249.195 294.761 249.03L292.979 249.938ZM292.465 255.523C292.384 255.794 292.301 256.074 292.218 256.356L294.137 256.918C294.219 256.64 294.3 256.366 294.382 256.092L292.465 255.523ZM291.185 262.625C291.196 262.936 291.218 263.251 291.255 263.569L293.242 263.341C293.212 263.079 293.193 262.818 293.184 262.557L291.185 262.625ZM293.836 269.564C293.933 269.685 294.032 269.806 294.135 269.927L295.659 268.632C295.57 268.527 295.483 268.422 295.399 268.317L293.836 269.564ZM294.135 269.927C294.265 270.08 294.397 270.229 294.531 270.373L295.998 269.015C295.884 268.891 295.771 268.764 295.659 268.632L294.135 269.927ZM301.599 274.403C301.972 274.497 302.347 274.579 302.723 274.651L303.103 272.688C302.759 272.621 302.419 272.547 302.084 272.463L301.599 274.403ZM310.459 275.455C310.819 275.488 311.175 275.525 311.526 275.566L311.759 273.58C311.388 273.536 311.016 273.498 310.643 273.464L310.459 275.455ZM318.228 277.815C318.359 277.913 318.487 278.015 318.614 278.122L319.903 276.592C319.747 276.461 319.588 276.335 319.428 276.214L318.228 277.815ZM318.702 278.188C318.85 278.287 318.998 278.387 319.148 278.489L320.272 276.835C320.119 276.731 319.967 276.628 319.815 276.526L318.702 278.188ZM325.441 282.842C325.747 283.045 326.056 283.247 326.368 283.446L327.447 281.762C327.144 281.568 326.843 281.372 326.544 281.174L325.441 282.842ZM333.275 287.109C333.624 287.248 333.977 287.381 334.334 287.507L335 285.622C334.67 285.505 334.343 285.382 334.017 285.251L333.275 287.109ZM342.179 288.837C342.37 288.833 342.562 288.826 342.754 288.816L342.651 286.818C342.478 286.827 342.305 286.834 342.133 286.838L342.179 288.837ZM342.754 288.816C342.929 288.807 343.106 288.799 343.283 288.793L343.217 286.794C343.028 286.801 342.839 286.809 342.651 286.818L342.754 288.816ZM350.731 289.382C351.084 289.445 351.436 289.512 351.786 289.584L352.187 287.625C351.82 287.55 351.452 287.479 351.083 287.413L350.731 289.382ZM358.97 291.737C359.304 291.873 359.631 292.012 359.951 292.154L360.763 290.327C360.424 290.176 360.077 290.028 359.724 289.884L358.97 291.737ZM365.963 296.122C366.072 296.247 366.171 296.37 366.262 296.492L367.865 295.296C367.743 295.132 367.612 294.971 367.474 294.811L365.963 296.122ZM366.262 296.492C366.317 296.566 366.361 296.637 366.395 296.708L368.188 295.821C368.098 295.639 367.99 295.463 367.865 295.296L366.262 296.492ZM364.487 300.991C364.311 301.199 364.127 301.409 363.936 301.621L365.423 302.959C365.625 302.734 365.822 302.509 366.013 302.284L364.487 300.991ZM359.737 305.938C359.53 306.152 359.326 306.365 359.128 306.576L360.586 307.945C360.775 307.743 360.972 307.538 361.173 307.33L359.737 305.938ZM356.393 312.879C356.507 313.084 356.65 313.27 356.817 313.439L358.239 312.032C358.19 311.983 358.159 311.939 358.138 311.903L356.393 312.879ZM356.817 313.439C356.956 313.579 357.105 313.706 357.263 313.821L358.442 312.206C358.365 312.15 358.298 312.092 358.239 312.032L356.817 313.439ZM363.654 315.042C363.937 315.046 364.226 315.05 364.51 315.053L364.538 313.054C364.248 313.05 363.966 313.046 363.684 313.042L363.654 315.042ZM370.172 315.629C370.42 315.704 370.655 315.788 370.878 315.882L371.659 314.041C371.364 313.916 371.06 313.808 370.752 313.715L370.172 315.629ZM373.533 319.689C373.546 319.814 373.556 319.943 373.563 320.077L375.56 319.973C375.551 319.809 375.539 319.647 375.523 319.489L373.533 319.689ZM373.563 320.077C373.572 320.256 373.578 320.432 373.58 320.604L375.58 320.575C375.577 320.377 375.57 320.177 375.56 319.973L373.563 320.077ZM371.454 327.322C371.245 327.606 371.026 327.881 370.802 328.147L372.331 329.436C372.58 329.141 372.826 328.832 373.066 328.506L371.454 327.322ZM366.058 334.937C366.035 335.169 366.03 335.405 366.042 335.646L368.04 335.542C368.032 335.4 368.036 335.263 368.049 335.13L366.058 334.937ZM366.042 335.646C366.054 335.871 366.074 336.085 366.102 336.287L368.083 336.013C368.064 335.873 368.049 335.717 368.04 335.542L366.042 335.646ZM370.519 341.915C370.535 342.071 370.548 342.238 370.558 342.417L372.555 342.314C372.544 342.103 372.528 341.901 372.508 341.709L370.519 341.915ZM370.558 342.417C370.569 342.635 370.569 342.837 370.561 343.023L372.559 343.115C372.57 342.859 372.569 342.592 372.555 342.314L370.558 342.417ZM366.69 351.552C366.767 351.785 366.858 352.028 366.963 352.281L368.81 351.512C368.722 351.301 368.648 351.104 368.588 350.923L366.69 351.552ZM366.963 352.281C367.028 352.435 367.098 352.594 367.173 352.756L368.987 351.913C368.922 351.773 368.863 351.639 368.81 351.512L366.963 352.281ZM370.876 358.667C371.067 358.928 371.263 359.191 371.463 359.455L373.059 358.25C372.865 357.992 372.674 357.737 372.488 357.484L370.876 358.667ZM375.825 364.759C376.043 365.003 376.262 365.247 376.482 365.488L377.96 364.141C377.745 363.905 377.531 363.667 377.318 363.429L375.825 364.759ZM381.351 370.357C381.6 370.58 381.848 370.798 382.095 371.011L383.399 369.495C383.163 369.291 382.925 369.082 382.686 368.868L381.351 370.357ZM388.005 374.935C388.177 375.002 388.349 375.063 388.519 375.116L389.121 373.209C388.996 373.17 388.866 373.124 388.731 373.071L388.005 374.935ZM388.519 375.116C388.722 375.181 388.923 375.237 389.122 375.287L389.608 373.347C389.448 373.307 389.286 373.261 389.121 373.209L388.519 375.116ZM397.407 374.283C397.761 374.168 398.11 374.057 398.461 373.953L397.894 372.035C397.518 372.147 397.149 372.264 396.788 372.382L397.407 374.283ZM405.593 373.977C405.754 374.036 405.917 374.101 406.083 374.17L406.855 372.325C406.664 372.245 406.474 372.17 406.286 372.101L405.593 373.977ZM406.083 374.17C406.214 374.225 406.345 374.28 406.476 374.336L407.257 372.494C407.123 372.437 406.989 372.381 406.855 372.325L406.083 374.17ZM411.842 376.896C412.09 377.032 412.335 377.169 412.576 377.308L413.575 375.576C413.321 375.429 413.063 375.284 412.803 375.142L411.842 376.896ZM417.24 380.713C417.434 380.905 417.618 381.098 417.791 381.293L419.285 379.963C419.082 379.735 418.869 379.511 418.647 379.291L417.24 380.713ZM419.731 386.032C419.724 386.152 419.713 386.274 419.698 386.397L421.682 386.645C421.703 386.479 421.719 386.313 421.728 386.147L419.731 386.032ZM419.698 386.397C419.68 386.543 419.661 386.691 419.643 386.84L421.629 387.081C421.646 386.934 421.664 386.789 421.682 386.645L419.698 386.397ZM419.344 393.222C419.363 393.53 419.389 393.84 419.422 394.15L421.41 393.938C421.381 393.659 421.357 393.379 421.34 393.098L419.344 393.222ZM421.44 400.435C421.606 400.706 421.783 400.974 421.972 401.237L423.596 400.07C423.436 399.848 423.287 399.622 423.148 399.394L421.44 400.435ZM427.02 405.51C427.159 405.583 427.299 405.655 427.442 405.726L428.329 403.933C428.201 403.87 428.076 403.806 427.952 403.741L427.02 405.51ZM427.442 405.726C427.605 405.806 427.77 405.883 427.938 405.956L428.737 404.123C428.598 404.062 428.462 403.999 428.329 403.933L427.442 405.726ZM435.112 407.394C435.449 407.416 435.788 407.434 436.129 407.45L436.222 405.452C435.892 405.437 435.564 405.419 435.24 405.398L435.112 407.394ZM443.122 407.681C443.452 407.699 443.778 407.72 444.101 407.745L444.253 405.751C443.915 405.725 443.575 405.703 443.233 405.684L443.122 407.681ZM450.515 409.196C450.785 409.332 451.043 409.479 451.288 409.638L452.376 407.96C452.066 407.759 451.744 407.576 451.412 407.409L450.515 409.196ZM454.42 414.739C454.446 414.891 454.47 415.047 454.491 415.206L456.474 414.942C456.449 414.757 456.421 414.575 456.39 414.397L454.42 414.739ZM454.491 415.206C454.513 415.37 454.53 415.532 454.542 415.692L456.536 415.54C456.521 415.342 456.5 415.142 456.474 414.942L454.491 415.206ZM452.461 422.017C452.261 422.281 452.048 422.543 451.823 422.801L453.331 424.114C453.584 423.824 453.825 423.528 454.055 423.225L452.461 422.017ZM446.249 427.425C445.955 427.616 445.657 427.805 445.358 427.99L446.41 429.691C446.722 429.498 447.032 429.302 447.339 429.102L446.249 427.425ZM438.818 431.58C438.492 431.745 438.172 431.907 437.857 432.066L438.758 433.851C439.073 433.692 439.396 433.529 439.723 433.363L438.818 431.58ZM431.09 436.259C430.915 436.492 430.759 436.771 430.681 437.092L432.625 437.562C432.623 437.572 432.623 437.568 432.632 437.548C432.642 437.529 432.661 437.498 432.692 437.455L431.09 436.259ZM430.681 437.092C430.64 437.262 430.606 437.441 430.576 437.625L432.551 437.943C432.575 437.795 432.599 437.669 432.625 437.562L430.681 437.092ZM429.906 444.183C429.862 444.479 429.813 444.78 429.759 445.087L431.729 445.432C431.786 445.108 431.838 444.79 431.884 444.478L429.906 444.183ZM428.019 451.195C427.906 451.471 427.786 451.748 427.661 452.026L429.483 452.85C429.618 452.55 429.747 452.252 429.869 451.956L428.019 451.195ZM424.384 457.439C424.199 457.676 424.009 457.912 423.812 458.148L425.347 459.43C425.558 459.177 425.762 458.924 425.96 458.67L424.384 457.439ZM419.241 462.568C419.121 462.663 418.999 462.758 418.876 462.853L420.096 464.438C420.226 464.338 420.355 464.238 420.482 464.137L419.241 462.568ZM418.876 462.853C418.733 462.963 418.591 463.072 418.451 463.181L419.675 464.763C419.814 464.655 419.954 464.547 420.096 464.438L418.876 462.853ZM412.704 467.907C412.433 468.149 412.168 468.39 411.91 468.628L413.268 470.097C413.517 469.866 413.773 469.634 414.036 469.399L412.704 467.907ZM406.839 474.244C406.626 474.546 406.421 474.849 406.225 475.154L407.908 476.235C408.088 475.956 408.275 475.677 408.472 475.399L406.839 474.244ZM403.245 482.224C403.162 482.574 403.084 482.929 403.012 483.29L404.974 483.68C405.041 483.343 405.113 483.013 405.191 482.689L403.245 482.224ZM402.244 490.777C402.238 490.955 402.232 491.134 402.227 491.315L404.226 491.373C404.231 491.196 404.237 491.021 404.243 490.847L402.244 490.777ZM402.227 491.315C402.222 491.474 402.216 491.634 402.209 491.795L404.207 491.885C404.215 491.714 404.221 491.543 404.226 491.373L402.227 491.315ZM401.199 498.489C401.12 498.8 401.037 499.113 400.949 499.426L402.875 499.966C402.967 499.637 403.055 499.308 403.138 498.979L401.199 498.489ZM398.551 505.794C398.412 506.086 398.27 506.377 398.123 506.669L399.91 507.567C400.064 507.262 400.213 506.957 400.358 506.651L398.551 505.794ZM394.598 512.511C394.41 512.775 394.218 513.039 394.023 513.301L395.628 514.494C395.832 514.22 396.032 513.946 396.228 513.67L394.598 512.511ZM389.567 518.481C389.338 518.712 389.106 518.942 388.87 519.17L390.263 520.605C390.508 520.368 390.749 520.129 390.988 519.888L389.567 518.481ZM383.652 523.594C383.39 523.787 383.126 523.979 382.859 524.169L384.019 525.798C384.296 525.601 384.57 525.403 384.841 525.202L383.652 523.594ZM377.037 527.78C376.893 527.858 376.748 527.935 376.602 528.012L377.534 529.781C377.685 529.702 377.835 529.622 377.984 529.542L377.037 527.78ZM376.602 528.012C376.437 528.098 376.275 528.185 376.116 528.271L377.067 530.03C377.22 529.948 377.375 529.865 377.534 529.781L376.602 528.012ZM369.968 532.715C369.697 533.019 369.458 533.323 369.25 533.627L370.9 534.757C371.056 534.529 371.242 534.292 371.461 534.046L369.968 532.715ZM369.893 541.473C370.088 541.77 370.289 542.064 370.484 542.351L372.137 541.225C371.94 540.935 371.749 540.655 371.565 540.375L369.893 541.473ZM372.203 548.105C372.15 548.232 372.09 548.362 372.019 548.496L373.789 549.428C373.888 549.24 373.976 549.052 374.053 548.864L372.203 548.105ZM372.019 548.496C371.954 548.619 371.887 548.74 371.818 548.86L373.547 549.865C373.63 549.722 373.711 549.576 373.789 549.428L372.019 548.496ZM367.721 553.214C367.487 553.395 367.25 553.573 367.009 553.749L368.192 555.362C368.443 555.178 368.694 554.99 368.943 554.798L367.721 553.214ZM361.761 557.488C361.507 557.691 361.259 557.898 361.02 558.109L362.346 559.607C362.556 559.421 362.778 559.235 363.01 559.05L361.761 557.488ZM358.088 564.523C358.11 564.698 358.139 564.874 358.175 565.052L360.135 564.656C360.109 564.525 360.088 564.398 360.072 564.274L358.088 564.523ZM358.175 565.052C358.212 565.236 358.256 565.422 358.306 565.609L360.239 565.096C360.198 564.943 360.163 564.796 360.135 564.656L358.175 565.052ZM361.282 572.429C361.433 572.734 361.584 573.043 361.735 573.353L363.534 572.478C363.38 572.162 363.227 571.85 363.075 571.543L361.282 572.429ZM364.418 579.9C364.511 580.219 364.597 580.538 364.673 580.855L366.617 580.385C366.533 580.035 366.439 579.686 366.338 579.339L364.418 579.9ZM364.598 587.425C364.495 587.712 364.376 587.996 364.239 588.276L366.035 589.154C366.205 588.807 366.353 588.455 366.481 588.1L364.598 587.425ZM359.587 592.894C359.444 592.978 359.297 593.06 359.147 593.142L360.106 594.897C360.271 594.807 360.433 594.716 360.592 594.623L359.587 592.894ZM359.147 593.142C359.002 593.221 358.855 593.301 358.705 593.38L359.645 595.146C359.801 595.063 359.955 594.98 360.106 594.897L359.147 593.142ZM352.142 596.483C351.825 596.622 351.504 596.761 351.179 596.901L351.97 598.737C352.297 598.597 352.621 598.457 352.941 598.317L352.142 596.483ZM344.427 599.742C344.105 599.876 343.782 600.011 343.458 600.147L344.231 601.992C344.554 601.856 344.877 601.722 345.198 601.587L344.427 599.742ZM336.694 603.047C336.373 603.19 336.052 603.333 335.732 603.477L336.553 605.301C336.869 605.158 337.187 605.017 337.505 604.875L336.694 603.047ZM329.064 606.673C328.75 606.835 328.439 606.998 328.129 607.162L329.067 608.929C329.369 608.768 329.675 608.609 329.982 608.45L329.064 606.673ZM321.732 610.985C321.434 611.19 321.142 611.396 320.854 611.603L322.026 613.224C322.3 613.026 322.579 612.829 322.864 612.634L321.732 610.985ZM315.272 616.746C315.039 617.04 314.818 617.337 314.61 617.638L316.253 618.778C316.437 618.513 316.633 618.249 316.84 617.987L315.272 616.746ZM312.334 625.147C312.346 625.34 312.365 625.534 312.388 625.729L314.374 625.489C314.354 625.33 314.34 625.172 314.329 625.015L312.334 625.147Z" fill="#B3B3B3"/>
<path d="M68.6506 41.6564C70.3809 41.5667 74.293 42.0643 76.099 44.7729C78.3566 48.1586 94.6049 40.3101 96.7417 41.3669C98.8784 42.4237 114.572 43.9448 119.763 43.6756C124.954 43.4063 125.69 37.5301 127.827 38.5868C129.963 39.6436 147.178 50.4267 148.881 63.182C150.583 75.9374 149.666 78.3202 151.984 82.8704C154.302 87.4206 162.173 98.6883 162.475 104.511C162.777 110.333 158.927 116.371 161.244 120.921C163.562 125.471 174.911 143.564 185.594 148.848C196.278 154.132 195.844 165.831 201.277 170.219C206.709 174.608 223.248 192.432 230.576 193.219C237.903 194.007 243.155 194.902 246.873 206.385C250.592 217.868 260.177 222.041 265.368 221.772" stroke="#F37B20" stroke-width="2" stroke-linecap="round" stroke-linejoin="round"/>
<circle cx="65.6387" cy="41.6026" r="5" transform="rotate(1.53452 65.6387 41.6026)" fill="#F37B20"/>
<circle cx="267.851" cy="223.083" r="5" transform="rotate(1.53452 267.851 223.083)" fill="#F37B20"/>
<circle cx="374.295" cy="319.968" r="5" transform="rotate(1.53452 374.295 319.968)" fill="#F37B20"/>
<circle cx="406.051" cy="478.875" r="5" transform="rotate(1.53452 406.051 478.875)" fill="#F37B20"/>
<circle cx="313.039" cy="627.438" r="5" transform="rotate(1.53452 313.039 627.438)" fill="#F37B20"/>
<path d="M1.9392 15.1984C2.0544 17.464 3.8208 19.192 6.3168 19.192C8.6784 19.192 10.4832 17.8864 10.4832 15.736C10.4832 13.5856 8.8512 12.4528 6.4512 11.224C4.9536 10.4944 3.8784 10.0144 3.8784 8.5936C3.8784 7.48 4.8768 6.7312 6.1056 6.7312C7.3536 6.7312 8.2368 7.6336 8.352 8.9008H10.0032C9.888 6.8464 8.352 5.176 6.1056 5.176C3.9552 5.176 2.2272 6.5392 2.2272 8.5168C2.2272 10.552 3.5136 11.4352 5.9136 12.7216C7.5456 13.5472 8.8512 14.2384 8.8512 15.6784C8.8512 16.8112 7.8912 17.6368 6.3168 17.6368C4.992 17.6368 3.7056 16.8496 3.5904 15.1984H1.9392ZM12.7812 7.672C13.3188 7.672 13.722 7.2496 13.722 6.7312C13.722 6.1936 13.3188 5.7904 12.7812 5.7904C12.2628 5.7904 11.8404 6.1936 11.8404 6.7312C11.8404 7.2496 12.2628 7.672 12.7812 7.672ZM13.6068 9.2848H11.9556V19H13.6068V9.2848ZM20.3012 9.2848H18.2852V6.4048H16.6532V9.2848H15.2708V10.84H16.6532V19H18.2852V10.84H20.3012V9.2848ZM31.037 14.2384C31.037 11.4928 29.1554 9.0928 26.1794 9.0928C23.2994 9.0928 21.3218 11.3584 21.3218 14.0848C21.3218 17.0224 23.3954 19.192 26.333 19.192C28.8866 19.192 30.3842 17.5024 30.7682 16.1776L29.309 15.9856C28.8866 16.8496 27.9266 17.7136 26.333 17.7136C24.3362 17.7136 23.0306 16.4272 22.973 14.6608H31.037V14.2384ZM26.1794 10.5712C28.0802 10.5712 29.2898 11.9536 29.3858 13.4704H22.973C23.0306 11.8768 24.3554 10.5712 26.1794 10.5712ZM48.7763 19H50.4851L45.5699 5.368H43.7075L38.7923 19H40.5011L41.7107 15.64H47.5667L48.7763 19ZM42.2675 14.0848L44.6291 7.5184L46.9907 14.0848H42.2675ZM51.528 16.312C51.7584 18.1744 53.352 19.192 55.5792 19.192C57.7104 19.192 59.2656 18.1744 59.2656 16.5616C59.2656 15.1024 58.2288 14.2384 56.4048 13.5664C54.4656 12.8176 53.4864 12.568 53.4864 11.6848C53.4864 10.8976 54.3888 10.4752 55.176 10.4752C56.0592 10.4752 56.904 10.9552 57.0192 11.8384H58.6512C58.5552 10.264 57.192 9.0928 55.1376 9.0928C53.4672 9.0928 51.8544 10.0528 51.8544 11.6848C51.8544 13.2208 53.16 13.9504 54.5808 14.4304C56.616 15.1984 57.6144 15.4288 57.6144 16.5232C57.6144 17.2912 56.7888 17.7904 55.6176 17.7904C54.2544 17.7904 53.4288 17.1952 53.1792 16.312H51.528ZM60.4718 16.312C60.7022 18.1744 62.2958 19.192 64.523 19.192C66.6542 19.192 68.2094 18.1744 68.2094 16.5616C68.2094 15.1024 67.1726 14.2384 65.3486 13.5664C63.4094 12.8176 62.4302 12.568 62.4302 11.6848C62.4302 10.8976 63.3326 10.4752 64.1198 10.4752C65.003 10.4752 65.8478 10.9552 65.963 11.8384H67.595C67.499 10.264 66.1358 9.0928 64.0814 9.0928C62.411 9.0928 60.7982 10.0528 60.7982 11.6848C60.7982 13.2208 62.1038 13.9504 63.5246 14.4304C65.5598 15.1984 66.5582 15.4288 66.5582 16.5232C66.5582 17.2912 65.7326 17.7904 64.5614 17.7904C63.1982 17.7904 62.3726 17.1952 62.123 16.312H60.4718ZM79.4307 14.2384C79.4307 11.4928 77.5491 9.0928 74.5731 9.0928C71.6931 9.0928 69.7155 11.3584 69.7155 14.0848C69.7155 17.0224 71.7891 19.192 74.7267 19.192C77.2803 19.192 78.7779 17.5024 79.1619 16.1776L77.7027 15.9856C77.2803 16.8496 76.3203 17.7136 74.7267 17.7136C72.7299 17.7136 71.4243 16.4272 71.3667 14.6608H79.4307V14.2384ZM74.5731 10.5712C76.4739 10.5712 77.6835 11.9536 77.7795 13.4704H71.3667C71.4243 11.8768 72.7491 10.5712 74.5731 10.5712ZM80.7405 16.312C80.9709 18.1744 82.5645 19.192 84.7917 19.192C86.9229 19.192 88.4781 18.1744 88.4781 16.5616C88.4781 15.1024 87.4413 14.2384 85.6173 13.5664C83.6781 12.8176 82.6989 12.568 82.6989 11.6848C82.6989 10.8976 83.6013 10.4752 84.3885 10.4752C85.2717 10.4752 86.1165 10.9552 86.2317 11.8384H87.8637C87.7677 10.264 86.4045 9.0928 84.3501 9.0928C82.6797 9.0928 81.0669 10.0528 81.0669 11.6848C81.0669 13.2208 82.3725 13.9504 83.7933 14.4304C85.8285 15.1984 86.8269 15.4288 86.8269 16.5232C86.8269 17.2912 86.0013 17.7904 84.8301 17.7904C83.4669 17.7904 82.6413 17.1952 82.3917 16.312H80.7405ZM89.6843 16.312C89.9147 18.1744 91.5083 19.192 93.7355 19.192C95.8667 19.192 97.4219 18.1744 97.4219 16.5616C97.4219 15.1024 96.3851 14.2384 94.5611 13.5664C92.6219 12.8176 91.6427 12.568 91.6427 11.6848C91.6427 10.8976 92.5451 10.4752 93.3323 10.4752C94.2155 10.4752 95.0603 10.9552 95.1755 11.8384H96.8075C96.7115 10.264 95.3483 9.0928 93.2939 9.0928C91.6235 9.0928 90.0107 10.0528 90.0107 11.6848C90.0107 13.2208 91.3163 13.9504 92.7371 14.4304C94.7723 15.1984 95.7707 15.4288 95.7707 16.5232C95.7707 17.2912 94.9451 17.7904 93.7739 17.7904C92.4107 17.7904 91.5851 17.1952 91.3355 16.312H89.6843ZM111.053 9.0928C109.44 9.0928 108.23 10.072 107.385 11.2816C106.944 9.9376 105.926 9.0928 104.409 9.0928C102.95 9.0928 101.798 9.9184 100.973 10.9744L100.896 9.2848H99.3405V19H100.992V14.3728C101.107 12.3376 102.163 10.648 103.833 10.648C105.216 10.648 105.984 11.7808 105.984 13.4512V19H107.635V14.3728C107.75 12.3376 108.806 10.648 110.477 10.648C111.878 10.648 112.627 11.7808 112.627 13.4512V19H114.278V12.952C114.278 10.6864 113.126 9.0928 111.053 9.0928ZM125.781 14.2384C125.781 11.4928 123.899 9.0928 120.923 9.0928C118.043 9.0928 116.066 11.3584 116.066 14.0848C116.066 17.0224 118.139 19.192 121.077 19.192C123.63 19.192 125.128 17.5024 125.512 16.1776L124.053 15.9856C123.63 16.8496 122.67 17.7136 121.077 17.7136C119.08 17.7136 117.774 16.4272 117.717 14.6608H125.781V14.2384ZM120.923 10.5712C122.824 10.5712 124.034 11.9536 124.13 13.4704H117.717C117.774 11.8768 119.099 10.5712 120.923 10.5712ZM133.143 9.0928C131.473 9.0928 130.206 9.9376 129.323 10.9744L129.246 9.2848H127.691V19H129.342V14.0464C129.342 12.664 130.263 10.648 132.567 10.648C134.065 10.648 135.102 11.5696 135.102 14.008V19H136.753V13.3168C136.753 10.5712 135.39 9.0928 133.143 9.0928ZM143.489 9.2848H141.473V6.4048H139.841V9.2848H138.458V10.84H139.841V19H141.473V10.84H143.489V9.2848Z" fill="#666666"/>
<path d="M264.939 204.198C265.054 206.464 266.821 208.192 269.317 208.192C271.678 208.192 273.483 206.886 273.483 204.736C273.483 202.586 271.851 201.453 269.451 200.224C267.954 199.494 266.878 199.014 266.878 197.594C266.878 196.48 267.877 195.731 269.106 195.731C270.354 195.731 271.237 196.634 271.352 197.901H273.003C272.888 195.846 271.352 194.176 269.106 194.176C266.955 194.176 265.227 195.539 265.227 197.517C265.227 199.552 266.514 200.435 268.914 201.722C270.546 202.547 271.851 203.238 271.851 204.678C271.851 205.811 270.891 206.637 269.317 206.637C267.992 206.637 266.706 205.85 266.59 204.198H264.939ZM274.891 203.123C274.891 205.926 277.022 208.192 279.806 208.192C281.63 208.192 283.108 207.155 283.723 205.792L283.799 208H285.374V198.285H283.799L283.723 200.493C283.108 199.13 281.63 198.093 279.806 198.093C277.022 198.093 274.891 200.358 274.891 203.123ZM276.542 203.123C276.542 201.242 278.078 199.648 280.055 199.648C282.052 199.648 283.55 201.242 283.55 203.123C283.55 205.043 282.052 206.637 280.055 206.637C278.078 206.637 276.542 205.043 276.542 203.123ZM289.423 193.6H287.772V208H289.423V193.6ZM301.162 203.238C301.162 200.493 299.28 198.093 296.304 198.093C293.424 198.093 291.447 200.358 291.447 203.085C291.447 206.022 293.52 208.192 296.458 208.192C299.012 208.192 300.509 206.502 300.893 205.178L299.434 204.986C299.012 205.85 298.052 206.714 296.458 206.714C294.461 206.714 293.156 205.427 293.098 203.661H301.162V203.238ZM296.304 199.571C298.205 199.571 299.415 200.954 299.511 202.47H293.098C293.156 200.877 294.48 199.571 296.304 199.571ZM302.472 205.312C302.702 207.174 304.296 208.192 306.523 208.192C308.654 208.192 310.209 207.174 310.209 205.562C310.209 204.102 309.173 203.238 307.349 202.566C305.409 201.818 304.43 201.568 304.43 200.685C304.43 199.898 305.333 199.475 306.12 199.475C307.003 199.475 307.848 199.955 307.963 200.838H309.595C309.499 199.264 308.136 198.093 306.081 198.093C304.411 198.093 302.798 199.053 302.798 200.685C302.798 202.221 304.104 202.95 305.525 203.43C307.56 204.198 308.558 204.429 308.558 205.523C308.558 206.291 307.733 206.79 306.561 206.79C305.198 206.79 304.373 206.195 304.123 205.312H302.472ZM322.39 194.368H317.897V208H319.529V203.334H322.39C325.039 203.334 327.209 201.779 327.209 198.842C327.209 195.923 325.039 194.368 322.39 194.368ZM322.39 201.76H319.529V195.923H322.39C324.214 195.923 325.577 196.864 325.577 198.842C325.577 200.819 324.214 201.76 322.39 201.76ZM332.769 198.093C331.867 198.093 331.118 198.688 330.523 199.514L330.446 198.285H328.891V208H330.542V203.162C330.542 201.338 331.175 199.648 332.673 199.648C333.134 199.648 333.518 199.821 333.71 199.955L333.998 198.515C333.787 198.323 333.364 198.093 332.769 198.093ZM339.793 208.192C342.75 208.192 344.938 205.926 344.938 203.123C344.938 200.358 342.75 198.093 339.793 198.093C336.855 198.093 334.628 200.358 334.628 203.123C334.628 205.926 336.855 208.192 339.793 208.192ZM339.793 206.637C337.815 206.637 336.279 205.043 336.279 203.123C336.279 201.242 337.815 199.648 339.793 199.648C341.79 199.648 343.287 201.242 343.287 203.123C343.287 205.043 341.79 206.637 339.793 206.637ZM346.853 212.416H348.504V205.792C349.099 207.174 350.578 208.192 352.402 208.192C355.186 208.192 357.336 205.926 357.336 203.123C357.336 200.358 355.186 198.093 352.402 198.093C350.578 198.093 349.099 199.11 348.504 200.493L348.408 198.285H346.853V212.416ZM348.658 203.123C348.658 201.242 350.175 199.648 352.152 199.648C354.149 199.648 355.685 201.242 355.685 203.123C355.685 205.043 354.149 206.637 352.152 206.637C350.175 206.637 348.658 205.043 348.658 203.123ZM363.905 208.192C366.862 208.192 369.051 205.926 369.051 203.123C369.051 200.358 366.862 198.093 363.905 198.093C360.968 198.093 358.741 200.358 358.741 203.123C358.741 205.926 360.968 208.192 363.905 208.192ZM363.905 206.637C361.928 206.637 360.392 205.043 360.392 203.123C360.392 201.242 361.928 199.648 363.905 199.648C365.902 199.648 367.4 201.242 367.4 203.123C367.4 205.043 365.902 206.637 363.905 206.637ZM370.384 205.312C370.615 207.174 372.208 208.192 374.435 208.192C376.567 208.192 378.122 207.174 378.122 205.562C378.122 204.102 377.085 203.238 375.261 202.566C373.322 201.818 372.343 201.568 372.343 200.685C372.343 199.898 373.245 199.475 374.032 199.475C374.915 199.475 375.76 199.955 375.875 200.838H377.507C377.411 199.264 376.048 198.093 373.994 198.093C372.323 198.093 370.711 199.053 370.711 200.685C370.711 202.221 372.016 202.95 373.437 203.43C375.472 204.198 376.471 204.429 376.471 205.523C376.471 206.291 375.645 206.79 374.474 206.79C373.111 206.79 372.285 206.195 372.035 205.312H370.384ZM379.628 203.123C379.628 205.926 381.759 208.192 384.543 208.192C386.367 208.192 387.846 207.155 388.46 205.792L388.537 208H390.111V198.285H388.537L388.46 200.493C387.846 199.13 386.367 198.093 384.543 198.093C381.759 198.093 379.628 200.358 379.628 203.123ZM381.279 203.123C381.279 201.242 382.815 199.648 384.793 199.648C386.79 199.648 388.287 201.242 388.287 203.123C388.287 205.043 386.79 206.637 384.793 206.637C382.815 206.637 381.279 205.043 381.279 203.123ZM394.16 193.6H392.509V208H394.16V193.6Z" fill="#666666"/>
<path d="M380.939 306.198C381.054 308.464 382.821 310.192 385.317 310.192C387.678 310.192 389.483 308.886 389.483 306.736C389.483 304.586 387.851 303.453 385.451 302.224C383.954 301.494 382.878 301.014 382.878 299.594C382.878 298.48 383.877 297.731 385.106 297.731C386.354 297.731 387.237 298.634 387.352 299.901H389.003C388.888 297.846 387.352 296.176 385.106 296.176C382.955 296.176 381.227 297.539 381.227 299.517C381.227 301.552 382.514 302.435 384.914 303.722C386.546 304.547 387.851 305.238 387.851 306.678C387.851 307.811 386.891 308.637 385.317 308.637C383.992 308.637 382.706 307.85 382.59 306.198H380.939ZM391.781 298.672C392.319 298.672 392.722 298.25 392.722 297.731C392.722 297.194 392.319 296.79 391.781 296.79C391.263 296.79 390.84 297.194 390.84 297.731C390.84 298.25 391.263 298.672 391.781 298.672ZM392.607 300.285H390.956V310H392.607V300.285ZM399.301 300.285H397.285V297.405H395.653V300.285H394.271V301.84H395.653V310H397.285V301.84H399.301V300.285ZM410.037 305.238C410.037 302.493 408.155 300.093 405.179 300.093C402.299 300.093 400.322 302.358 400.322 305.085C400.322 308.022 402.395 310.192 405.333 310.192C407.887 310.192 409.384 308.502 409.768 307.178L408.309 306.986C407.887 307.85 406.927 308.714 405.333 308.714C403.336 308.714 402.031 307.427 401.973 305.661H410.037V305.238ZM405.179 301.571C407.08 301.571 408.29 302.954 408.386 304.47H401.973C402.031 302.877 403.355 301.571 405.179 301.571ZM418.195 306.198C418.311 308.464 420.077 310.192 422.573 310.192C424.935 310.192 426.739 308.886 426.739 306.736C426.739 304.586 425.107 303.453 422.707 302.224C421.21 301.494 420.135 301.014 420.135 299.594C420.135 298.48 421.133 297.731 422.362 297.731C423.61 297.731 424.493 298.634 424.608 299.901H426.259C426.144 297.846 424.608 296.176 422.362 296.176C420.211 296.176 418.483 297.539 418.483 299.517C418.483 301.552 419.77 302.435 422.17 303.722C423.802 304.547 425.107 305.238 425.107 306.678C425.107 307.811 424.147 308.637 422.573 308.637C421.248 308.637 419.962 307.85 419.847 306.198H418.195ZM436.287 300.285V305.238H436.268C436.268 306.621 435.346 308.637 433.042 308.637C431.545 308.637 430.508 307.715 430.508 305.277V300.285H428.857V305.968C428.857 308.714 430.22 310.192 432.466 310.192C434.156 310.192 435.404 309.347 436.306 308.291L436.364 310H437.919V300.285H436.287ZM444.194 300.093C443.292 300.093 442.543 300.688 441.948 301.514L441.871 300.285H440.316V310H441.967V305.162C441.967 303.338 442.6 301.648 444.098 301.648C444.559 301.648 444.943 301.821 445.135 301.955L445.423 300.515C445.212 300.323 444.789 300.093 444.194 300.093ZM454.643 300.285L451.417 308.291L448.192 300.285H446.349L450.477 310H452.358L456.486 300.285H454.643ZM466.981 305.238C466.981 302.493 465.099 300.093 462.123 300.093C459.243 300.093 457.266 302.358 457.266 305.085C457.266 308.022 459.339 310.192 462.277 310.192C464.83 310.192 466.328 308.502 466.712 307.178L465.253 306.986C464.83 307.85 463.87 308.714 462.277 308.714C460.28 308.714 458.974 307.427 458.917 305.661H466.981V305.238ZM462.123 301.571C464.024 301.571 465.234 302.954 465.33 304.47H458.917C458.974 302.877 460.299 301.571 462.123 301.571ZM467.611 300.285L471.835 309.981L469.915 314.416H471.662L477.787 300.285H476.021L472.718 307.946L469.377 300.285H467.611Z" fill="#666666"/>
<path d="M243.952 465.368H239.459V479H241.091V474.334H243.952C246.602 474.334 248.771 472.779 248.771 469.842C248.771 466.923 246.602 465.368 243.952 465.368ZM243.952 472.76H241.091V466.923H243.952C245.776 466.923 247.139 467.864 247.139 469.842C247.139 471.819 245.776 472.76 243.952 472.76ZM260.967 465.368L256.935 477.003L252.903 465.368H251.194L255.975 479H257.895L262.676 465.368H260.967ZM274.458 465.368H269.965V479H271.597V474.334H274.458C277.108 474.334 279.277 472.779 279.277 469.842C279.277 466.923 277.108 465.368 274.458 465.368ZM274.458 472.76H271.597V466.923H274.458C276.282 466.923 277.645 467.864 277.645 469.842C277.645 471.819 276.282 472.76 274.458 472.76ZM289.906 474.238C289.906 471.493 288.024 469.093 285.048 469.093C282.168 469.093 280.191 471.358 280.191 474.085C280.191 477.022 282.264 479.192 285.202 479.192C287.755 479.192 289.253 477.502 289.637 476.178L288.178 475.986C287.755 476.85 286.795 477.714 285.202 477.714C283.205 477.714 281.899 476.427 281.842 474.661H289.906V474.238ZM285.048 470.571C286.949 470.571 288.159 471.954 288.255 473.47H281.842C281.899 471.877 283.224 470.571 285.048 470.571ZM295.694 469.093C294.792 469.093 294.043 469.688 293.448 470.514L293.371 469.285H291.816V479H293.467V474.162C293.467 472.338 294.1 470.648 295.598 470.648C296.059 470.648 296.443 470.821 296.635 470.955L296.923 469.515C296.712 469.323 296.289 469.093 295.694 469.093ZM310.221 469.093C308.608 469.093 307.399 470.072 306.554 471.282C306.112 469.938 305.095 469.093 303.578 469.093C302.119 469.093 300.967 469.918 300.141 470.974L300.064 469.285H298.509V479H300.16V474.373C300.276 472.338 301.332 470.648 303.002 470.648C304.384 470.648 305.152 471.781 305.152 473.451V479H306.804V474.373C306.919 472.338 307.975 470.648 309.645 470.648C311.047 470.648 311.796 471.781 311.796 473.451V479H313.447V472.952C313.447 470.686 312.295 469.093 310.221 469.093ZM316.631 467.672C317.169 467.672 317.572 467.25 317.572 466.731C317.572 466.194 317.169 465.79 316.631 465.79C316.113 465.79 315.69 466.194 315.69 466.731C315.69 467.25 316.113 467.672 316.631 467.672ZM317.457 469.285H315.806V479H317.457V469.285ZM324.151 469.285H322.135V466.405H320.503V469.285H319.121V470.84H320.503V479H322.135V470.84H324.151V469.285ZM335.844 465.368H331.447V479H335.844C339.722 479 342.314 476.005 342.314 472.184C342.314 468.363 339.722 465.368 335.844 465.368ZM335.844 477.445H333.079V466.923H335.844C338.628 466.923 340.663 468.997 340.663 472.184C340.663 475.371 338.628 477.445 335.844 477.445ZM353.318 474.238C353.318 471.493 351.437 469.093 348.461 469.093C345.581 469.093 343.603 471.358 343.603 474.085C343.603 477.022 345.677 479.192 348.614 479.192C351.168 479.192 352.665 477.502 353.049 476.178L351.59 475.986C351.168 476.85 350.208 477.714 348.614 477.714C346.617 477.714 345.312 476.427 345.254 474.661H353.318V474.238ZM348.461 470.571C350.361 470.571 351.571 471.954 351.667 473.47H345.254C345.312 471.877 346.637 470.571 348.461 470.571ZM354.628 476.312C354.858 478.174 356.452 479.192 358.679 479.192C360.81 479.192 362.366 478.174 362.366 476.562C362.366 475.102 361.329 474.238 359.505 473.566C357.566 472.818 356.586 472.568 356.586 471.685C356.586 470.898 357.489 470.475 358.276 470.475C359.159 470.475 360.004 470.955 360.119 471.838H361.751C361.655 470.264 360.292 469.093 358.238 469.093C356.567 469.093 354.954 470.053 354.954 471.685C354.954 473.221 356.26 473.95 357.681 474.43C359.716 475.198 360.714 475.429 360.714 476.523C360.714 477.291 359.889 477.79 358.718 477.79C357.354 477.79 356.529 477.195 356.279 476.312H354.628ZM365.062 467.672C365.6 467.672 366.003 467.25 366.003 466.731C366.003 466.194 365.6 465.79 365.062 465.79C364.544 465.79 364.122 466.194 364.122 466.731C364.122 467.25 364.544 467.672 365.062 467.672ZM365.888 469.285H364.237V479H365.888V469.285ZM371.894 477.426C370.723 477.426 370.012 477.272 370.012 476.773C370.012 476.523 370.224 476.312 370.569 476.158C371.011 476.312 371.51 476.389 372.028 476.389C374.294 476.389 376.041 474.814 376.041 472.741C376.041 471.954 375.792 471.243 375.35 470.667L376.483 470.763V469.285L373.948 469.515C373.372 469.246 372.72 469.093 372.028 469.093C369.744 469.093 368.016 470.648 368.016 472.741C368.016 473.97 368.611 475.006 369.571 475.659C369.014 475.928 368.457 476.389 368.457 477.042C368.457 477.579 368.822 478.002 369.34 478.29C368.63 478.731 368.016 479.442 368.016 480.517C368.016 482.514 369.974 483.608 372.259 483.608C374.544 483.608 376.502 482.514 376.502 480.517C376.502 478.635 374.774 477.426 371.894 477.426ZM372.028 470.475C373.392 470.475 374.467 471.435 374.467 472.741C374.467 474.027 373.392 474.987 372.028 474.987C370.684 474.987 369.571 474.027 369.571 472.741C369.571 471.435 370.684 470.475 372.028 470.475ZM372.259 482.226C370.665 482.226 369.571 481.611 369.571 480.478C369.571 479.73 370.3 479.058 370.896 478.789C371.088 478.808 371.26 478.827 371.452 478.827C373.488 478.827 374.947 479.269 374.947 480.536C374.947 481.65 373.833 482.226 372.259 482.226ZM384.231 469.093C382.56 469.093 381.293 469.938 380.41 470.974L380.333 469.285H378.778V479H380.429V474.046C380.429 472.664 381.351 470.648 383.655 470.648C385.152 470.648 386.189 471.57 386.189 474.008V479H387.84V473.317C387.84 470.571 386.477 469.093 384.231 469.093Z" fill="#666666"/>
<path d="M257.952 655.368H253.459V669H255.091V664.334H257.952C260.602 664.334 262.771 662.779 262.771 659.842C262.771 656.923 260.602 655.368 257.952 655.368ZM257.952 662.76H255.091V656.923H257.952C259.776 656.923 261.139 657.864 261.139 659.842C261.139 661.819 259.776 662.76 257.952 662.76ZM271.893 656.923V655.368H264.597V669H271.893V667.445H266.229V662.722H270.606V661.166H266.229V656.923H271.893ZM279.777 665.198C279.892 667.464 281.658 669.192 284.154 669.192C286.516 669.192 288.321 667.886 288.321 665.736C288.321 663.586 286.689 662.453 284.289 661.224C282.791 660.494 281.716 660.014 281.716 658.594C281.716 657.48 282.714 656.731 283.943 656.731C285.191 656.731 286.074 657.634 286.19 658.901H287.841C287.726 656.846 286.19 655.176 283.943 655.176C281.793 655.176 280.065 656.539 280.065 658.517C280.065 660.552 281.351 661.435 283.751 662.722C285.383 663.547 286.689 664.238 286.689 665.678C286.689 666.811 285.729 667.637 284.154 667.637C282.83 667.637 281.543 666.85 281.428 665.198H279.777ZM294.501 659.285H292.485V656.405H290.853V659.285H289.471V660.84H290.853V669H292.485V660.84H294.501V659.285ZM295.522 664.123C295.522 666.926 297.653 669.192 300.437 669.192C302.261 669.192 303.739 668.155 304.354 666.792L304.431 669H306.005V659.285H304.431L304.354 661.493C303.739 660.13 302.261 659.093 300.437 659.093C297.653 659.093 295.522 661.358 295.522 664.123ZM297.173 664.123C297.173 662.242 298.709 660.648 300.687 660.648C302.683 660.648 304.181 662.242 304.181 664.123C304.181 666.043 302.683 667.637 300.687 667.637C298.709 667.637 297.173 666.043 297.173 664.123ZM320.115 659.093C318.502 659.093 317.293 660.072 316.448 661.282C316.006 659.938 314.989 659.093 313.472 659.093C312.013 659.093 310.861 659.918 310.035 660.974L309.958 659.285H308.403V669H310.054V664.373C310.169 662.338 311.225 660.648 312.896 660.648C314.278 660.648 315.046 661.781 315.046 663.451V669H316.697V664.373C316.813 662.338 317.869 660.648 319.539 660.648C320.941 660.648 321.689 661.781 321.689 663.451V669H323.341V662.952C323.341 660.686 322.189 659.093 320.115 659.093ZM325.747 673.416H327.398V666.792C327.993 668.174 329.472 669.192 331.296 669.192C334.08 669.192 336.23 666.926 336.23 664.123C336.23 661.358 334.08 659.093 331.296 659.093C329.472 659.093 327.993 660.11 327.398 661.493L327.302 659.285H325.747V673.416ZM327.552 664.123C327.552 662.242 329.068 660.648 331.046 660.648C333.043 660.648 334.579 662.242 334.579 664.123C334.579 666.043 333.043 667.637 331.046 667.637C329.068 667.637 327.552 666.043 327.552 664.123ZM338.844 657.672C339.381 657.672 339.785 657.25 339.785 656.731C339.785 656.194 339.381 655.79 338.844 655.79C338.325 655.79 337.903 656.194 337.903 656.731C337.903 657.25 338.325 657.672 338.844 657.672ZM339.669 659.285H338.018V669H339.669V659.285ZM347.662 659.093C345.992 659.093 344.724 659.938 343.841 660.974L343.764 659.285H342.209V669H343.86V664.046C343.86 662.664 344.782 660.648 347.086 660.648C348.584 660.648 349.62 661.57 349.62 664.008V669H351.272V663.317C351.272 660.571 349.908 659.093 347.662 659.093ZM357.225 667.426C356.054 667.426 355.344 667.272 355.344 666.773C355.344 666.523 355.555 666.312 355.9 666.158C356.342 666.312 356.841 666.389 357.36 666.389C359.625 666.389 361.372 664.814 361.372 662.741C361.372 661.954 361.123 661.243 360.681 660.667L361.814 660.763V659.285L359.28 659.515C358.704 659.246 358.051 659.093 357.36 659.093C355.075 659.093 353.347 660.648 353.347 662.741C353.347 663.97 353.942 665.006 354.902 665.659C354.345 665.928 353.788 666.389 353.788 667.042C353.788 667.579 354.153 668.002 354.672 668.29C353.961 668.731 353.347 669.442 353.347 670.517C353.347 672.514 355.305 673.608 357.59 673.608C359.875 673.608 361.833 672.514 361.833 670.517C361.833 668.635 360.105 667.426 357.225 667.426ZM357.36 660.475C358.723 660.475 359.798 661.435 359.798 662.741C359.798 664.027 358.723 664.987 357.36 664.987C356.016 664.987 354.902 664.027 354.902 662.741C354.902 661.435 356.016 660.475 357.36 660.475ZM357.59 672.226C355.996 672.226 354.902 671.611 354.902 670.478C354.902 669.73 355.632 669.058 356.227 668.789C356.419 668.808 356.592 668.827 356.784 668.827C358.819 668.827 360.278 669.269 360.278 670.536C360.278 671.65 359.164 672.226 357.59 672.226Z" fill="#666666"/>
</svg>
