<svg width="160" height="53" viewBox="0 0 160 53" fill="none" xmlns="http://www.w3.org/2000/svg">
<g clip-path="url(#clip0_426_1418)">
<path d="M9.35657 1.65444C10.1336 1.58994 10.9125 1.61767 11.6921 1.61509C57.6842 1.62025 103.675 1.62197 149.663 1.62025C153.958 1.60413 157.742 5.47461 157.757 9.75594C157.762 20.9355 157.762 32.115 157.757 43.2945C157.672 45.419 156.789 47.4329 155.285 48.9328C153.781 50.4327 151.767 51.3079 149.646 51.3831C103.132 51.3909 56.6179 51.3909 10.1027 51.3831C5.82299 51.3741 1.96303 47.5752 1.97913 43.2726C1.97441 32.0978 1.97441 20.9245 1.97913 9.75272C2.0293 7.73905 2.80317 5.81117 4.15852 4.32339C5.51387 2.83562 7.35962 1.88791 9.35657 1.65444Z" fill="#262626" stroke="white" stroke-width="2.91512"/>
<path d="M29.3446 8.17909C32.0453 7.94481 34.7632 8.34509 37.2823 9.34809C39.8014 10.3511 42.0521 11.9291 43.8555 13.9568C44.5193 14.5159 44.6744 15.4402 45.3594 15.9826C44.9923 16.2548 44.5649 16.4341 44.1137 16.505L45.0562 16.8875C44.9274 17.0113 44.7929 17.1384 44.6609 17.2622C44.5321 17.2171 44.2746 17.1249 44.1497 17.0778C44.1741 18.1388 44.5533 19.1609 45.2268 19.9802C45.2821 19.3287 45.2911 18.6767 45.2911 18.0252C45.4888 18.0252 45.8834 18.0252 46.081 18.0201C45.7414 17.4728 45.5116 16.8644 45.4044 16.229C45.6089 16.3956 45.788 16.5911 45.9362 16.8095C47.9204 20.2133 48.6815 24.1952 48.0928 28.0926C47.927 28.3355 47.7469 28.5681 47.5533 28.7892C46.2735 28.2513 45.8151 26.8581 45.5152 25.6153C45.3864 24.7123 45.5152 23.7978 45.4334 22.8903C45.2673 22.3865 45.033 21.906 44.8411 21.4101C44.9989 21.1011 45.163 20.7954 45.3259 20.4923C45.2757 20.471 45.181 20.4316 45.1328 20.4129C44.9982 20.8193 44.8643 21.2598 44.3821 21.3598C43.9649 21.0047 43.6191 20.5733 43.3631 20.0885C43.4432 19.7726 43.5598 19.4672 43.7107 19.1785C43.6792 19.0675 43.6161 18.8437 43.582 18.727C43.2369 18.6818 42.8918 18.6373 42.5519 18.5896C42.5442 18.1517 42.5416 17.7137 42.5519 17.2758C42.2571 16.863 41.9315 16.4732 41.5779 16.1097C41.5013 15.664 41.4279 15.2183 41.3307 14.7772L41.4595 14.761C41.2541 14.732 40.846 14.674 40.6432 14.6475L40.846 14.8849C40.6593 15.0429 40.2827 15.3544 40.0954 15.5098C39.4966 15.3308 38.9824 14.9415 38.6469 14.4134C38.1255 13.6033 36.688 13.6194 36.5116 12.5797C36.9622 12.4133 37.4225 12.274 37.8808 12.1283C37.7173 11.5955 37.2461 11.9464 36.9068 12.0334C36.3062 11.0518 35.2331 10.5616 34.3318 9.90955L33.605 10.4475C33.1376 10.2995 32.6523 10.2162 32.1624 10.1998C31.7112 10.4069 31.2477 10.5857 30.7744 10.7351C30.7616 10.8273 30.7403 11.0092 30.7268 11.0989C30.5337 10.4971 29.8712 10.3339 29.4547 9.92245C29.1728 9.99339 28.894 10.0701 28.6178 10.1546C28.2464 10.2288 27.8756 10.3101 27.5067 10.3997C27.3136 11.2679 25.9585 10.7899 25.9714 11.729C25.4107 11.858 24.7572 11.9715 24.7154 12.6997C24.0832 13.2537 23.5856 14.0767 22.7088 14.2431C22.8298 13.9793 22.9592 13.7181 23.0906 13.4569C22.8531 13.4145 22.6317 13.308 22.4502 13.1489C22.2687 12.9898 22.134 12.7841 22.0605 12.5539C22.5479 11.9051 23.6957 11.6439 23.3719 10.619C23.7272 10.4578 24.08 10.2965 24.4302 10.123C24.3851 9.96179 24.2957 9.63995 24.2538 9.47806C25.8562 8.73398 27.5822 8.29357 29.3446 8.17909Z" fill="white"/>
<path d="M84.5312 10.1332C84.8448 10.1203 85.1576 10.1093 85.4737 10.1016C85.4711 12.9558 85.4711 15.8111 85.4737 18.6674C85.2394 18.6726 84.7656 18.6862 84.5338 18.6939C84.5364 15.8392 84.5499 12.9852 84.5312 10.1332Z" fill="white"/>
<path d="M95.6082 10.1468L96.5532 10.0823C96.5429 11.2697 96.5873 12.459 96.4979 13.6464C96.7156 13.3867 96.9864 13.1769 97.292 13.0311C97.5975 12.8853 97.9308 12.8068 98.2692 12.8011C98.6076 12.7953 98.9434 12.8624 99.2537 12.9978C99.564 13.1331 99.8418 13.3337 100.068 13.5858C100.538 14.2441 100.781 15.0373 100.761 15.8461C100.742 16.6549 100.461 17.4355 99.96 18.0703C99.7308 18.3054 99.4561 18.4912 99.1528 18.6164C98.8494 18.7416 98.5238 18.8035 98.1958 18.7983C97.8677 18.7931 97.5442 18.7209 97.245 18.5862C96.9458 18.4515 96.6771 18.2571 96.4554 18.0148C96.4843 18.6082 96.1129 18.7643 95.605 18.7243C95.632 15.8664 95.6269 13.0066 95.6082 10.1468Z" fill="white"/>
<path d="M103.392 10.1256L104.261 10.0779C104.256 12.948 104.256 15.8181 104.261 18.6883C103.971 18.6883 103.682 18.696 103.397 18.7012C103.395 15.842 103.4 12.9848 103.392 10.1256Z" fill="white"/>
<path d="M60.8808 10.6479L61.8497 10.624C62.7896 13.2987 63.6168 16.0134 64.5934 18.6752C64.2509 18.6804 63.9142 18.6804 63.5743 18.6752C63.3348 17.8019 63.0265 16.9525 62.7715 16.0844C61.8447 16.0259 60.9144 16.0577 59.9937 16.1792C59.6742 17.0022 59.3992 17.8419 59.1697 18.6946C58.8562 18.6868 58.5434 18.6817 58.2324 18.6759C59.0931 15.9954 60.0195 13.3336 60.8808 10.6479Z" fill="white"/>
<path d="M80.6609 10.8008C81.0794 10.3209 81.5982 10.8653 81.7012 11.3167C81.512 11.4831 81.3272 11.6515 81.1405 11.8205C80.6918 11.7244 80.1813 11.2019 80.6609 10.8008Z" fill="white"/>
<path d="M60.1855 15.4013C60.6175 14.1326 60.9581 12.8369 61.3887 11.5708C61.7492 12.8607 62.1233 14.1455 62.6003 15.3987C61.7943 15.391 60.9883 15.3936 60.1855 15.4013Z" fill="#262626"/>
<path d="M66.0229 12.8538C66.3519 12.8615 66.6815 12.8725 67.0131 12.8802C67.503 14.5133 68.1164 16.1051 68.6353 17.7265C69.2301 16.1302 69.628 14.4526 70.3387 12.9066C70.5544 12.8879 70.9863 12.8538 71.2052 12.8357C70.5679 14.8145 69.7728 16.7371 69.0673 18.6921L68.2059 18.6998C67.4778 16.7526 66.7575 14.8003 66.0229 12.8538Z" fill="white"/>
<path d="M80.5817 12.8931C80.8579 12.8641 81.1373 12.8325 81.4186 12.8035C81.4888 13.3723 81.5195 13.9453 81.5107 14.5184C81.5107 15.898 81.503 17.2776 81.5236 18.6579C81.2101 18.674 80.894 18.6869 80.5811 18.6998C80.5817 16.763 80.5792 14.8293 80.5817 12.8931Z" fill="white"/>
<path d="M88.4991 13.1937C88.9874 12.9595 89.5182 12.8273 90.0592 12.8051C90.6001 12.7829 91.1399 12.8712 91.6457 13.0647C91.8944 13.2149 92.0976 13.43 92.2337 13.6869C92.3698 13.9439 92.4336 14.2331 92.4182 14.5236C92.4549 15.9535 92.4234 17.3834 92.4343 18.8133C92.2205 18.8005 92.0166 18.7185 91.8533 18.5796C91.6899 18.4408 91.576 18.2525 91.5286 18.0432C91.1969 18.4203 90.7463 18.6721 90.2519 18.7566C89.7574 18.8411 89.2489 18.7532 88.8113 18.5076C87.8765 17.9613 87.8457 16.3205 88.8821 15.8671C89.719 15.5001 90.6698 15.6614 91.5601 15.6323C91.5524 15.1628 91.5472 14.6907 91.5414 14.2211C91.4545 14.0812 91.2839 13.8019 91.1938 13.6594C90.2966 13.5346 89.3833 13.6006 88.5132 13.8528C88.51 13.6871 88.5042 13.3594 88.4991 13.1937Z" fill="white"/>
<path d="M120.634 12.8744C121.146 12.7389 121.686 12.7585 122.187 12.9307C122.688 13.1029 123.127 13.4199 123.448 13.8418C123.846 14.4599 124.047 15.1846 124.024 15.9197C124.001 16.6548 123.755 17.3655 123.32 17.9574C123.041 18.2463 122.703 18.4704 122.329 18.6139C121.955 18.7573 121.554 18.8167 121.154 18.7877C120.755 18.7587 120.366 18.6421 120.016 18.4462C119.667 18.2502 119.364 17.9796 119.131 17.6536C118.141 16.0612 118.636 13.3891 120.634 12.8744Z" fill="white"/>
<path d="M39.4214 12.9111C40.1193 13.146 40.7032 13.6358 41.0565 14.283C40.8988 14.4068 40.7404 14.5307 40.5827 14.6526C40.2164 14.3204 39.8559 13.985 39.4767 13.6683C39.4632 13.4781 39.4343 13.0982 39.4214 12.9111Z" fill="#0D0D0D"/>
<path d="M73.5094 13.1777C73.9953 12.9469 74.5235 12.8194 75.061 12.8031C75.5984 12.7867 76.1334 12.882 76.6323 13.0828C76.8967 13.2745 77.1065 13.5322 77.2409 13.8302C77.3753 14.1282 77.4296 14.4562 77.3984 14.7817C77.3984 16.0852 77.4119 17.388 77.3984 18.6915L76.698 18.7154C76.6664 18.5387 76.6033 18.1852 76.5692 18.0111C75.6293 19.0217 73.8493 19.1075 73.1064 17.8266C73.1457 17.2281 72.9564 16.4722 73.541 16.0723C74.3733 15.397 75.5476 15.695 76.5402 15.6292C76.5723 14.9636 76.4721 14.2982 76.2454 13.6717C75.3007 13.5127 74.3316 13.5878 73.4225 13.8903C73.4457 13.713 73.4882 13.3544 73.5094 13.1777Z" fill="white"/>
<path d="M107.689 13.5787C108.052 13.1611 108.551 12.8843 109.097 12.7967C109.643 12.709 110.202 12.816 110.678 13.099C111.153 13.382 111.514 13.8231 111.699 14.3455C111.883 14.8679 111.878 15.4385 111.686 15.958C110.354 15.9451 109.019 15.9367 107.689 15.9632C107.929 16.6198 108.003 17.4827 108.698 17.8465C109.569 18.3502 110.604 17.9916 111.515 17.8046L111.386 18.5011C110.18 18.9049 108.682 19.0171 107.681 18.0819C107.181 17.4381 106.91 16.645 106.911 15.829C106.913 15.0129 107.186 14.2208 107.689 13.5787Z" fill="white"/>
<path d="M126.682 13.0304L127.474 12.806C127.479 13.0408 127.493 13.5155 127.498 13.7502C128.198 13.0588 129.249 12.5132 130.234 12.9401C130.588 13.0945 130.887 13.3507 131.096 13.6761C131.304 14.0015 131.411 14.3816 131.403 14.768C131.456 16.0741 131.403 17.3795 131.429 18.6881C131.208 18.6933 130.766 18.701 130.545 18.7043C130.524 17.4092 130.569 16.1108 130.529 14.8131C130.524 14.5656 130.45 14.3242 130.317 14.1157C130.184 13.9072 129.995 13.7396 129.773 13.6316C129.386 13.5288 128.977 13.5507 128.603 13.6942C128.229 13.8376 127.91 14.0953 127.69 14.4307C127.556 15.8445 127.674 17.2744 127.638 18.694C127.322 18.6836 127.008 18.6752 126.698 18.6649C126.697 16.7868 126.721 14.9086 126.682 13.0304Z" fill="white"/>
<path d="M97.6283 13.5976C97.9326 13.4908 98.2618 13.4774 98.5738 13.5592C98.8857 13.6411 99.1662 13.8143 99.3793 14.0568C99.6471 14.5207 99.8067 15.0393 99.8461 15.5737C99.8856 16.1082 99.8039 16.6446 99.6072 17.143C99.4815 17.4089 99.2882 17.637 99.0467 17.8044C98.8052 17.9718 98.524 18.0725 98.2313 18.0966C97.9386 18.1206 97.6447 18.0671 97.3792 17.9414C97.1137 17.8157 96.8859 17.6222 96.7187 17.3803C96.5345 16.6068 96.4776 15.8084 96.55 15.0165C96.5445 14.693 96.648 14.3771 96.8436 14.1197C97.0392 13.8623 97.3156 13.6784 97.6283 13.5976Z" fill="#262626"/>
<path d="M108.718 13.6631C109.285 13.507 109.884 13.5105 110.448 13.6734C110.673 14.163 110.852 14.6726 110.983 15.1956C109.924 15.222 108.863 15.2169 107.802 15.2059C107.92 14.6008 108.244 14.0556 108.718 13.6631Z" fill="#262626"/>
<path d="M120.578 13.647C121.281 13.431 122.216 13.4535 122.663 14.1353C123.001 14.6682 123.169 15.2917 123.143 15.9225C123.118 16.5534 122.901 17.1614 122.521 17.6652C122.329 17.8392 122.101 17.968 121.852 18.0422C121.604 18.1163 121.342 18.1339 121.087 18.0937C120.831 18.0535 120.587 17.9566 120.373 17.8099C120.16 17.6632 119.981 17.4706 119.852 17.246C119.344 16.0805 119.36 14.3623 120.578 13.647Z" fill="#262626"/>
<path d="M23.183 14.6075C23.7401 14.5231 24.3024 14.4781 24.8658 14.4727C25.2108 15.1428 25.0589 16.0425 25.6872 16.5591C26.2817 17.1489 26.9802 17.623 27.7472 17.9574C27.4536 17.4716 27.1311 17.0038 26.7816 16.5566C26.8582 16.4824 27.0108 16.3295 27.09 16.256C27.2058 16.2399 27.4402 16.2083 27.556 16.1915C28.1934 16.7139 28.7039 17.3338 28.5358 18.2199L28.8757 18.307C29.0232 17.9458 28.9942 17.4499 29.4551 17.3022C29.4892 17.6246 29.5195 17.951 29.5498 18.278C30.0199 18.2923 30.4774 18.4336 30.874 18.6869C29.963 19.4364 28.9227 20.1774 28.691 21.4197C28.7727 21.5383 28.9356 21.7808 29.0199 21.9027C29.4147 22.0126 29.8032 22.1437 30.1839 22.2955C30.2385 22.8289 30.4913 23.3223 30.892 23.6777C30.9712 23.1579 31.0291 22.6329 31.1495 22.1188C31.0005 21.4853 30.9428 20.8337 30.9783 20.1839C31.1282 19.6853 31.5126 19.2925 31.5866 18.7591C30.836 18.4212 29.9515 18.1864 29.5961 17.3454C31.2312 16.8126 32.2027 18.5798 33.3009 19.4454C33.122 19.7511 32.9481 20.0549 32.7769 20.3632C32.3424 20.2864 31.9214 20.131 31.4817 20.0968C31.4714 20.1471 31.4501 20.2445 31.4398 20.2903C31.9427 20.5114 32.4117 20.8028 32.8329 21.1559L33.5462 21.2268C34.0752 21.5958 34.5426 22.0464 34.9309 22.5619C35.3815 23.3056 36.1869 23.7177 36.745 24.3743C36.4273 24.4037 36.108 24.4134 35.789 24.4033C35.5214 24.1005 35.2914 23.7664 35.1041 23.4081C34.3316 23.7274 33.4187 23.8912 32.9526 24.6768C33.3624 24.5111 33.7577 24.3118 34.1346 24.0808C34.1848 24.2472 34.2872 24.5742 34.3399 24.7374L35.0481 24.6C35.0532 24.7239 35.0642 24.9748 35.0693 25.0986C34.5193 25.3967 33.9503 25.658 33.3659 25.8809C32.7183 26.6646 31.9915 27.4934 32.0044 28.5769C31.4727 29.1206 30.6982 29.5186 30.5379 30.3287C30.6667 30.8008 30.8353 31.26 30.9461 31.7373C30.1008 31.4342 29.7821 30.4132 28.8397 30.2339C28.6147 30.4048 28.3415 30.5002 28.0592 30.5063C27.7769 30.5125 27.4998 30.4291 27.2676 30.268C26.9861 30.354 26.7044 30.4332 26.4224 30.5054C26.1507 30.7867 25.9692 31.143 25.9011 31.5285C25.8331 31.914 25.8817 32.311 26.0406 32.6686C26.3775 32.9049 26.7293 33.1191 27.0938 33.3097C27.5206 33.0434 27.9075 32.3629 28.4708 32.7189C28.5099 33.2092 28.4517 33.7025 28.2996 34.1701C28.8776 34.1799 29.4478 34.3056 29.9766 34.5397C29.9605 34.9912 29.9399 35.4498 29.9212 35.9038C30.1053 36.0122 30.2927 36.1173 30.4793 36.2263C30.8559 36.2476 31.2325 36.2766 31.6066 36.3108C31.9281 35.939 32.3411 35.658 32.8046 35.4955C33.8945 35.7909 35.003 35.4188 36.1038 35.3343C37.0335 35.7995 38.0681 36.014 39.1057 35.9567C39.6297 35.8922 39.8222 36.5294 40.1614 36.8061C41.1426 36.6954 42.107 36.4669 43.0339 36.1257C43.2051 36.2947 43.3789 36.4636 43.5527 36.6346C43.0687 37.3245 42.6331 38.0473 42.2491 38.7978C39.6851 41.0381 36.5264 42.4834 33.1574 42.9579C33.1735 42.7309 33.205 42.2774 33.2179 42.0504C32.2175 41.2119 31.3587 40.2064 30.2006 39.5653C30.2714 39.1538 30.3641 38.7475 30.4716 38.3463C30.7375 38.2328 31.0059 38.1245 31.2718 38.0142C31.2956 37.5343 31.3194 37.0512 31.34 36.5714C31.0182 36.6294 30.6963 36.69 30.3744 36.7532C29.9562 36.6042 29.5465 36.4319 29.1474 36.2373C28.776 35.7703 28.568 35.1608 28.0627 34.8125C27.1492 34.1927 25.9956 34.0869 25.0608 33.509C24.4171 33.0105 23.7469 32.5358 23.1296 32.003C23.1862 31.6767 23.1774 31.3423 23.1036 31.0194C23.0299 30.6965 22.8928 30.3915 22.7002 30.1223C22.4684 29.4915 22.4292 28.7556 21.9631 28.2364C22.0394 29.08 22.2454 29.9068 22.574 30.6873C22.2605 30.3525 21.8318 30.0752 21.7288 29.5979C21.3816 28.6483 21.1173 27.6703 20.9389 26.6749C21.0284 25.6616 20.9099 24.5645 21.45 23.6519C21.7115 23.1538 22.0109 22.6767 22.3455 22.2246C21.629 20.5257 23.5197 18.7901 22.5116 17.1648C21.8086 16.7875 20.6762 16.801 20.4419 15.8935C20.7419 16.0148 21.0425 16.136 21.3399 16.2631C21.5086 15.9019 21.6876 15.5485 21.8743 15.1976C22.3854 15.1454 23.0543 15.2827 23.183 14.6075Z" fill="white"/>
<path d="M31.6011 14.9984C32.0775 14.0277 33.3573 14.2412 34.1497 14.6759C35.0201 14.9581 35.7847 15.4978 36.343 16.2238C36.5065 16.5586 36.2246 16.9069 36.1563 17.2345C35.9825 17.8834 35.9587 18.5638 35.8428 19.2262C36.1853 19.4197 36.5245 19.6132 36.867 19.8067C36.3629 20.0028 35.832 20.1211 35.2924 20.1575C34.5553 19.6719 33.8118 18.9624 33.8497 18.0046C33.1365 17.0468 31.7434 16.8172 31.296 15.6459C31.1672 16.0362 31.0616 16.4322 30.9406 16.825C30.6273 16.5902 30.3211 16.3483 30.022 16.0994C30.1404 15.7169 30.2402 15.3293 30.3355 14.9384C30.4565 14.8642 30.6986 14.714 30.8202 14.6404C30.9284 14.6404 31.1466 14.6301 31.2548 14.6243L31.6011 14.9984Z" fill="white"/>
<path d="M36.8252 16.8707C37.1252 16.6198 37.4284 16.3747 37.7335 16.1296C37.8784 16.2296 38.1681 16.4276 38.3129 16.5282C38.2003 17.0447 37.9438 17.5186 37.5732 17.8949L37.1439 17.6234C37.0383 17.3719 36.9308 17.1216 36.8252 16.8707Z" fill="white"/>
<path d="M39.9346 15.874C40.6427 16.2881 41.3882 16.6286 42.1279 16.9743C42.1849 17.3035 42.2106 17.6374 42.2045 17.9715C41.7538 17.747 41.3148 17.52 40.8719 17.291C41.1667 17.6471 41.4513 18.0089 41.7249 18.383C40.4399 18.2617 40.3878 16.7815 39.9346 15.874Z" fill="white"/>
<path d="M89.4048 16.3566C90.1173 16.266 90.8361 16.236 91.5536 16.2669C91.5536 16.6101 91.5536 16.95 91.5665 17.2931C91.3452 17.5765 91.0539 17.797 90.7213 17.9327C90.3888 18.0685 90.0266 18.1148 89.6707 18.0671C89.4962 18.0167 89.3398 17.9174 89.2198 17.7809C89.0998 17.6444 89.0212 17.4765 88.9933 17.2968C88.9653 17.1171 88.9892 16.9331 89.0621 16.7665C89.135 16.6 89.2539 16.4577 89.4048 16.3566Z" fill="#262626"/>
<path d="M74.404 18.0032C74.2695 17.9141 74.1582 17.7939 74.0797 17.6527C74.0011 17.5115 73.9575 17.3535 73.9526 17.192C73.9477 17.0304 73.9816 16.87 74.0514 16.7243C74.1212 16.5786 74.2249 16.4519 74.3538 16.3547C75.0954 16.2662 75.843 16.2397 76.589 16.2753C76.5235 16.7597 76.4125 17.2367 76.2574 17.7001C75.671 17.9078 75.0336 18.2773 74.404 18.0032Z" fill="#262626"/>
<path d="M67.4429 23.6165C68.3274 23.59 69.2151 23.5558 70.1022 23.5481C70.0945 25.999 70.1125 28.4499 70.0919 30.9008C71.4824 29.1594 74.1913 28.4609 76.1085 29.7398C77.3882 30.6344 77.8093 32.2778 77.8382 33.7632C77.8434 36.2824 77.8382 38.8017 77.8382 41.321C76.9614 41.3287 76.0846 41.3287 75.2104 41.3261C75.2053 38.8939 75.2317 36.4617 75.2001 34.0321C75.1357 33.035 74.8782 31.7425 73.7839 31.4097C72.3779 30.9085 71.0189 31.816 70.1003 32.8106C70.1003 35.6484 70.0951 38.4863 70.1054 41.3242C69.2158 41.3242 68.328 41.3293 67.4409 41.3081C67.4456 35.4143 67.4463 29.5171 67.4429 23.6165Z" fill="white"/>
<path d="M129.017 23.6087C129.908 23.5926 130.795 23.5558 131.685 23.5442C131.677 25.9899 131.703 28.435 131.672 30.8808C132.124 30.2394 132.744 29.7349 133.463 29.4222C134.183 29.1096 134.974 29.0008 135.751 29.1077C137.833 29.2212 139.463 30.9994 139.911 32.9569C140.534 35.7767 140.084 39.3422 137.4 40.9662C135.494 42.0556 132.708 41.7814 131.405 39.8846C131.238 40.3644 131.083 40.8475 130.915 41.3248C130.259 41.3325 129.606 41.3325 128.953 41.33C129.078 35.4246 128.993 29.5153 129.017 23.6087Z" fill="white"/>
<path d="M105.062 24.6902C106.018 24.6979 106.977 24.6979 107.932 24.6902C109.051 29.1405 109.893 33.6624 110.941 38.1314C111.023 36.939 111.2 35.7551 111.471 34.5912C112.118 31.2883 112.808 27.9931 113.49 24.6986C114.409 24.6986 115.328 24.6986 116.247 24.6986C115.041 30.2595 113.619 35.776 112.371 41.3266C111.349 41.3399 110.33 41.3399 109.313 41.3266C108.431 36.9924 107.278 32.7162 106.47 28.3685C105.511 32.7001 104.474 37.0163 103.471 41.3369C102.473 41.324 101.475 41.3821 100.482 41.3079C99.1027 35.8024 97.8886 30.2331 96.5747 24.7011C97.5333 24.7011 98.4918 24.7011 99.4497 24.7011C100.374 29.1882 101.327 33.6734 102.135 38.1843C102.911 33.6437 104.048 29.1779 105.062 24.6902Z" fill="white"/>
<path d="M60.2888 26.7032C61.0787 26.5026 61.8737 26.3259 62.6707 26.1543C62.6868 27.2146 62.6835 28.2724 62.6707 29.3334C63.6447 29.3282 64.6193 29.3282 65.5959 29.3282C65.5721 29.9958 65.5457 30.6659 65.5219 31.3334C64.571 31.3412 63.6234 31.3412 62.6726 31.3334C62.6913 33.3703 62.6565 35.409 62.6855 37.4458C62.6479 37.8 62.7138 38.1575 62.875 38.475C63.0362 38.7925 63.2859 39.0562 63.5938 39.2343C64.215 39.58 64.9129 39.253 65.5579 39.1634C65.5766 39.8729 65.5869 40.5746 65.592 41.2815C64.4141 41.6172 63.1738 41.6704 61.9716 41.4369C60.639 41.0119 60.1047 39.5452 60.0628 38.263C60.0235 35.9547 60.0467 33.6411 60.0551 31.3328C59.4997 31.3354 58.9459 31.3354 58.3936 31.3328C58.4253 30.6943 58.4682 30.0577 58.5223 29.423C59.0727 29.3966 59.6231 29.3701 60.1761 29.3488C60.2173 28.4652 60.2675 27.5842 60.2888 26.7032Z" fill="white"/>
<path d="M81.1551 30.8291C82.0191 29.902 83.1745 29.3 84.4283 29.124C85.6821 28.9479 86.9582 29.2083 88.0433 29.8617C89.9102 31.1329 90.3524 33.667 89.9997 35.7683C89.6913 36.0689 89.2272 35.9083 88.8461 35.9554C86.6135 35.9076 84.3752 36.0237 82.1446 35.887C82.3338 37.0292 82.5817 38.3882 83.7063 38.9829C84.8541 39.7136 86.2762 39.4395 87.556 39.3789C88.1167 39.2125 88.6858 39.0564 89.2413 38.8565C89.352 39.5188 89.4757 40.178 89.56 40.8456C88.8104 41.1215 88.0411 41.3401 87.2586 41.4996C85.5204 41.6208 83.6407 41.7575 82.1085 40.7688C80.044 39.6079 79.444 37.0067 79.5702 34.8015C79.6622 33.3419 80.2175 31.9501 81.1551 30.8291Z" fill="white"/>
<path d="M117.547 31.6547C119.082 28.8555 123.366 28.1912 125.686 30.3596C126.344 31.1152 126.802 32.0245 127.016 33.0038C127.231 33.9831 127.197 35.0008 126.916 35.9631C124.341 35.9264 121.771 35.9792 119.199 35.9315C119.244 37.3563 119.976 38.9152 121.452 39.308C123.081 39.6259 124.766 39.4713 126.31 38.8623C126.375 39.5137 126.447 40.1658 126.568 40.8095C124.959 41.4756 123.21 41.7303 121.478 41.5505C120.464 41.4731 119.496 41.0962 118.696 40.4674C117.896 39.8386 117.3 38.9862 116.983 38.018C116.649 36.9732 116.527 35.8721 116.624 34.7793C116.721 33.6865 117.035 32.6242 117.547 31.6547Z" fill="white"/>
<path d="M83.9519 31.3414C84.4247 31.0945 84.9627 31.002 85.4905 31.0767C86.0184 31.1514 86.5098 31.3896 86.8958 31.758C87.4964 32.365 87.5396 33.275 87.6381 34.0741C85.8529 34.0741 84.0652 34.0741 82.2769 34.0741C82.4256 32.9977 82.8833 31.7974 83.9519 31.3414Z" fill="#262626"/>
<path d="M120.586 31.5624C121.09 31.1906 121.711 31.0121 122.335 31.0595C122.959 31.1068 123.546 31.3768 123.988 31.8204C124.439 32.4834 124.658 33.277 124.612 34.0778C122.822 34.0778 121.031 34.0778 119.241 34.0778C119.47 33.1452 119.762 32.1377 120.586 31.5624Z" fill="#262626"/>
<path d="M133.449 31.4046C133.896 31.232 134.38 31.177 134.855 31.2447C135.33 31.3124 135.779 31.5007 136.161 31.7916C137.183 32.6384 137.443 34.0632 137.448 35.3241C137.422 36.4953 137.233 37.7904 136.379 38.6663C135.092 40.062 132.28 39.5693 131.803 37.6344C131.552 36.3683 131.742 35.0545 131.682 33.7645C131.566 32.6655 132.529 31.8103 133.449 31.4046Z" fill="#262626"/>
<path d="M29.5312 32.5519C30.9192 32.2939 32.1249 33.3774 33.4891 33.2168C33.6024 33.2723 33.8341 33.3807 33.95 33.4329C33.9603 33.5542 33.9841 33.7941 33.9951 33.916C33.519 33.8645 33.0474 33.7782 32.5839 33.658L32.9972 33.3916C32.6052 33.4419 32.2125 33.5051 31.8256 33.5787C31.1561 33.0214 30.2716 32.9569 29.5312 32.5519Z" fill="white"/>
</g>
<defs>
<clipPath id="clip0_426_1418">
<rect width="159" height="53" fill="white" transform="translate(0.366699)"/>
</clipPath>
</defs>
</svg>
