<svg width="139" height="39" viewBox="0 0 139 39" fill="none" xmlns="http://www.w3.org/2000/svg">
<path d="M139 38.4766H129.827L119.859 27.8224H106.451V21.2243H123.132C126.036 21.2243 128.255 20.4767 129.79 18.9626C131.103 17.5795 131.713 15.8972 131.621 13.8972C131.381 9.39257 128.551 7.13089 123.132 7.13089H102.789V38.4766H96.575V7.13089H66.8923C65.5793 7.13089 64.5436 7.52342 63.7669 8.28977C63.0086 9.07481 62.6388 9.9907 62.6388 11.0374C62.6388 12.1028 62.9717 12.9814 63.6744 13.6729C64.4697 14.4954 65.5423 14.8879 66.8923 14.8879H83.7773C87.587 14.8879 90.62 16.1215 92.9132 18.5888C94.9661 20.8318 95.9832 23.5608 95.9832 26.757C95.9832 29.972 94.9846 32.6636 92.9687 34.8318C90.7125 37.2617 87.6425 38.4766 83.7773 38.4766H55.2227H55.0942L48.1411 38.5327L43.0907 11.9907L31.1252 36.4766C30.293 38.1589 29.1648 39 27.7408 39C26.1503 39 24.9482 38.1589 24.116 36.4766L12.1505 11.9907L6.99069 38.5888H0L7.93387 3.76641C8.4702 1.44866 9.70929 0.196325 11.6696 0.00940979C13.0937 -0.121431 14.4252 1.1309 15.6828 3.76641L27.6483 28.5888L39.5769 3.71034C40.8345 1.11221 42.166 -0.121431 43.5901 0.00940979C45.5319 0.196325 46.7895 1.42997 47.3073 3.71034L53.7062 31.8785H83.7773C85.8301 31.8785 87.476 31.3365 88.6966 30.2524C89.8248 29.2243 90.3796 28.0094 90.3796 26.6075C90.3796 25.2056 89.8248 24.0281 88.7336 23.0748C87.513 22.0094 85.8671 21.486 83.7773 21.486H66.8923C63.397 21.486 60.6044 20.4019 58.5701 18.215C56.7022 16.2524 55.7775 13.8412 55.7775 10.9814C55.7775 8.17762 56.7022 5.7851 58.5701 3.82249C60.6044 1.63558 63.397 0.551465 66.8923 0.551465H122.189C127.589 0.551465 131.676 1.93464 134.45 4.71968C136.799 7.03743 138.02 10.1028 138.131 13.8972C138.223 16.8879 137.483 19.5234 135.893 21.8225C134.136 24.3458 131.584 26.1028 128.237 27.0374L139 38.4766Z" fill="white"/>
</svg>
