<svg width="160" height="48" viewBox="0 0 160 48" fill="none" xmlns="http://www.w3.org/2000/svg">
<g clip-path="url(#clip0_18_206)">
<path d="M154.308 47.4074H5.60474C2.51496 47.4074 0 44.8853 0 41.7979V5.60118C0 2.51259 2.51496 0 5.60474 0H154.308C157.396 0 160 2.51259 160 5.60118V41.7979C160 44.8853 157.396 47.4074 154.308 47.4074Z" fill="#A6A6A6"/>
<path d="M158.853 41.799C158.853 44.3068 156.821 46.3382 154.309 46.3382H5.60474C3.09333 46.3382 1.05481 44.3068 1.05481 41.799V5.59987C1.05481 3.09321 3.09333 1.05469 5.60474 1.05469H154.308C156.821 1.05469 158.852 3.09321 158.852 5.59987L158.853 41.799Z" fill="#0D0D0D"/>
<path d="M35.7073 23.4475C35.6729 19.6277 38.835 17.7693 38.9796 17.6828C37.1888 15.0718 34.4131 14.7151 33.4377 14.6866C31.1064 14.4413 28.8451 16.0816 27.6575 16.0816C26.4462 16.0816 24.6175 14.7103 22.6465 14.7506C20.1102 14.7897 17.7375 16.2582 16.4362 18.5385C13.7505 23.188 15.7535 30.0206 18.3265 33.7788C19.6137 35.6194 21.1177 37.6745 23.0862 37.6022C25.0122 37.5228 25.7316 36.3743 28.0557 36.3743C30.3585 36.3743 31.0341 37.6022 33.0418 37.556C35.1088 37.5228 36.4101 35.7071 37.6522 33.8499C39.1396 31.7403 39.7369 29.6626 39.7606 29.556C39.712 29.5394 35.7464 28.0259 35.7073 23.4475Z" fill="white"/>
<path d="M31.9147 12.2144C32.9505 10.919 33.6593 9.15661 33.4625 7.36816C31.9633 7.43453 30.0883 8.4052 29.0086 9.67217C28.0533 10.7886 27.2 12.6185 27.4205 14.3394C29.1046 14.4651 30.8338 13.4896 31.9147 12.2144Z" fill="white"/>
<path d="M63.5793 37.3381H60.8877L59.4133 32.7052H54.2886L52.8841 37.3381H50.2637L55.341 21.5657H58.477L63.5793 37.3381ZM58.9689 30.7615L57.6356 26.643C57.4945 26.2223 57.2302 25.2314 56.8403 23.6717H56.7929C56.6376 24.3426 56.3876 25.3334 56.0438 26.643L54.7342 30.7615H58.9689Z" fill="white"/>
<path d="M76.6364 31.5116C76.6364 33.4458 76.1138 34.9747 75.0684 36.0971C74.1321 37.0962 72.9695 37.5951 71.5816 37.5951C70.0835 37.5951 69.0074 37.0571 68.352 35.9809H68.3046V41.972H65.7778V29.7089C65.7778 28.4929 65.7458 27.2449 65.6841 25.9649H67.9064L68.0474 27.7676H68.0948C68.9375 26.4094 70.2163 25.7314 71.9324 25.7314C73.2741 25.7314 74.3941 26.2612 75.2901 27.322C76.1884 28.3839 76.6364 29.78 76.6364 31.5116ZM74.0622 31.604C74.0622 30.4971 73.8133 29.5845 73.3132 28.8663C72.7668 28.1172 72.0332 27.7427 71.1135 27.7427C70.4901 27.7427 69.9235 27.9513 69.4175 28.3626C68.9102 28.7774 68.5784 29.319 68.4231 29.9898C68.3449 30.3027 68.3058 30.5587 68.3058 30.7602V32.6565C68.3058 33.4837 68.5594 34.1818 69.0667 34.7519C69.5739 35.322 70.2329 35.6064 71.0436 35.6064C71.9953 35.6064 72.736 35.239 73.2658 34.5066C73.7967 33.7729 74.0622 32.8058 74.0622 31.604Z" fill="white"/>
<path d="M89.7174 31.5116C89.7174 33.4458 89.1947 34.9747 88.1482 36.0971C87.2131 37.0962 86.0504 37.5951 84.6625 37.5951C83.1645 37.5951 82.0883 37.0571 81.4341 35.9809H81.3867V41.972H78.8599V29.7089C78.8599 28.4929 78.8279 27.2449 78.7662 25.9649H80.9885L81.1295 27.7676H81.1769C82.0184 26.4094 83.2972 25.7314 85.0145 25.7314C86.355 25.7314 87.475 26.2612 88.3734 27.322C89.2682 28.3839 89.7174 29.78 89.7174 31.5116ZM87.1431 31.604C87.1431 30.4971 86.8931 29.5845 86.3929 28.8663C85.8465 28.1172 85.1153 27.7427 84.1944 27.7427C83.5698 27.7427 83.0045 27.9513 82.4972 28.3626C81.9899 28.7774 81.6593 29.319 81.504 29.9898C81.427 30.3027 81.3867 30.5587 81.3867 30.7602V32.6565C81.3867 33.4837 81.6403 34.1818 82.1452 34.7519C82.6525 35.3208 83.3114 35.6064 84.1245 35.6064C85.0762 35.6064 85.8169 35.239 86.3467 34.5066C86.8777 33.7729 87.1431 32.8058 87.1431 31.604Z" fill="white"/>
<path d="M104.342 32.9149C104.342 34.2565 103.877 35.3481 102.942 36.1908C101.914 37.1117 100.484 37.5715 98.6453 37.5715C96.9481 37.5715 95.5875 37.2444 94.5576 36.589L95.1431 34.4829C96.2524 35.1537 97.4696 35.4903 98.7958 35.4903C99.7475 35.4903 100.488 35.2746 101.02 34.8456C101.55 34.4165 101.814 33.8405 101.814 33.1223C101.814 32.4823 101.596 31.9431 101.159 31.5057C100.724 31.0684 99.9976 30.6619 98.9831 30.2862C96.2216 29.2563 94.8421 27.7475 94.8421 25.7635C94.8421 24.4669 95.3256 23.4038 96.2939 22.5765C97.2587 21.7481 98.5458 21.3345 100.155 21.3345C101.59 21.3345 102.783 21.5845 103.734 22.0835L103.103 24.1434C102.214 23.6598 101.209 23.418 100.084 23.418C99.1952 23.418 98.5007 23.6373 98.0029 24.0734C97.5822 24.4634 97.3712 24.9386 97.3712 25.5016C97.3712 26.125 97.6118 26.6405 98.0954 27.0459C98.5161 27.4204 99.2806 27.8257 100.39 28.2631C101.747 28.8094 102.744 29.4483 103.385 30.1807C104.024 30.9108 104.342 31.8245 104.342 32.9149Z" fill="white"/>
<path d="M112.697 27.8614H109.912V33.3832C109.912 34.7876 110.402 35.4893 111.386 35.4893C111.838 35.4893 112.212 35.4502 112.508 35.3719L112.578 37.2908C112.081 37.4768 111.425 37.5705 110.613 37.5705C109.615 37.5705 108.836 37.2659 108.273 36.6579C107.712 36.0487 107.43 35.027 107.43 33.5918V27.8591H105.771V25.9628H107.43V23.8804L109.912 23.1313V25.9628H112.697V27.8614Z" fill="white"/>
<path d="M125.263 31.5579C125.263 33.306 124.763 34.7413 123.765 35.8636C122.719 37.0192 121.33 37.5952 119.598 37.5952C117.929 37.5952 116.601 37.0417 115.61 35.9347C114.619 34.8278 114.124 33.4304 114.124 31.7463C114.124 29.9839 114.633 28.5404 115.656 27.418C116.677 26.2944 118.054 25.7327 119.785 25.7327C121.454 25.7327 122.797 26.2861 123.81 27.3943C124.78 28.4693 125.263 29.8571 125.263 31.5579ZM122.642 31.6396C122.642 30.5907 122.418 29.6912 121.964 28.941C121.434 28.0331 120.677 27.5804 119.695 27.5804C118.68 27.5804 117.908 28.0343 117.378 28.941C116.924 29.6924 116.7 30.6061 116.7 31.687C116.7 32.7359 116.924 33.6355 117.378 34.3845C117.925 35.2924 118.688 35.7451 119.673 35.7451C120.638 35.7451 121.395 35.2829 121.941 34.3608C122.407 33.5964 122.642 32.6873 122.642 31.6396Z" fill="white"/>
<path d="M133.477 28.1872C133.227 28.1409 132.96 28.1172 132.68 28.1172C131.791 28.1172 131.104 28.4526 130.62 29.1246C130.2 29.7172 129.989 30.4663 129.989 31.3706V37.338H127.463L127.487 29.5466C127.487 28.2357 127.455 27.0423 127.392 25.9661H129.593L129.685 28.1421H129.755C130.022 27.3943 130.443 26.7922 131.019 26.3406C131.582 25.9341 132.19 25.7314 132.845 25.7314C133.079 25.7314 133.289 25.748 133.477 25.7777V28.1872Z" fill="white"/>
<path d="M144.777 31.1135C144.777 31.5662 144.748 31.9478 144.685 32.2595H137.105C137.134 33.3831 137.5 34.2424 138.204 34.8349C138.843 35.3647 139.669 35.6302 140.684 35.6302C141.806 35.6302 142.83 35.4512 143.751 35.0921L144.147 36.8462C143.071 37.3155 141.8 37.549 140.334 37.549C138.571 37.549 137.186 37.0299 136.179 35.9929C135.174 34.9558 134.67 33.5632 134.67 31.8163C134.67 30.1013 135.138 28.6732 136.076 27.5342C137.057 26.3182 138.383 25.7102 140.052 25.7102C141.691 25.7102 142.932 26.3182 143.775 27.5342C144.442 28.5001 144.777 29.6948 144.777 31.1135ZM142.368 30.4581C142.385 29.709 142.22 29.0619 141.877 28.5155C141.44 27.8127 140.768 27.4619 139.864 27.4619C139.038 27.4619 138.366 27.8044 137.852 28.4918C137.432 29.0382 137.182 29.6936 137.105 30.4569H142.368V30.4581Z" fill="white"/>
<path d="M58.1333 11.8625C58.1333 13.2575 57.7149 14.3075 56.8794 15.0127C56.1055 15.6634 55.0056 15.9893 53.581 15.9893C52.8746 15.9893 52.2702 15.9585 51.7641 15.8969V8.27495C52.4243 8.16829 53.1354 8.11377 53.9034 8.11377C55.2604 8.11377 56.2832 8.40888 56.973 8.9991C57.7458 9.66636 58.1333 10.6204 58.1333 11.8625ZM56.8237 11.8969C56.8237 10.9926 56.5843 10.2993 56.1055 9.8157C55.6267 9.33332 54.9274 9.09155 54.0065 9.09155C53.6154 9.09155 53.2824 9.11762 53.0062 9.17214V14.9665C53.1591 14.9902 53.4388 15.0009 53.8453 15.0009C54.7958 15.0009 55.5295 14.7366 56.0462 14.208C56.5629 13.6794 56.8237 12.909 56.8237 11.8969Z" fill="white"/>
<path d="M65.0773 13.0808C65.0773 13.94 64.832 14.644 64.3413 15.1963C63.8269 15.764 63.1455 16.0473 62.2945 16.0473C61.4744 16.0473 60.8213 15.7759 60.3342 15.2307C59.8483 14.6867 59.6053 14.0005 59.6053 13.1732C59.6053 12.308 59.8554 11.5981 60.3579 11.047C60.8604 10.4959 61.536 10.2197 62.3869 10.2197C63.2071 10.2197 63.866 10.4911 64.365 11.0351C64.8391 11.5637 65.0773 12.2464 65.0773 13.0808ZM63.789 13.1211C63.789 12.6055 63.6776 12.1634 63.456 11.7948C63.1952 11.3492 62.8243 11.1264 62.3419 11.1264C61.8429 11.1264 61.4637 11.3492 61.2029 11.7948C60.9801 12.1634 60.8699 12.6126 60.8699 13.1436C60.8699 13.6591 60.9813 14.1012 61.2029 14.4698C61.472 14.9154 61.8465 15.1382 62.3301 15.1382C62.8041 15.1382 63.1763 14.9119 63.4441 14.4579C63.674 14.0822 63.789 13.6366 63.789 13.1211Z" fill="white"/>
<path d="M74.3881 10.3337L72.64 15.9207H71.5022L70.7781 13.4946C70.5944 12.889 70.445 12.2869 70.3289 11.6896H70.3063C70.1985 12.3035 70.0492 12.9044 69.8572 13.4946L69.088 15.9207H67.9372L66.2933 10.3337H67.5698L68.2015 12.9897C68.3543 13.6179 68.48 14.2164 68.5807 14.7829H68.6032C68.6957 14.316 68.8486 13.721 69.0643 13.0016L69.8572 10.3349H70.8693L71.629 12.9447C71.8127 13.5811 71.9621 14.1939 72.077 14.7841H72.1114C72.1955 14.2093 72.3224 13.5966 72.4907 12.9447L73.1686 10.3349H74.3881V10.3337Z" fill="white"/>
<path d="M80.8273 15.9204H79.5852V12.7204C79.5852 11.7343 79.2107 11.2412 78.4593 11.2412C78.0907 11.2412 77.7932 11.3764 77.5621 11.6478C77.3333 11.9192 77.2172 12.2392 77.2172 12.6054V15.9192H75.9751V11.9298C75.9751 11.4392 75.9597 10.907 75.9301 10.331H77.0216L77.0797 11.2045H77.1141C77.2587 10.9331 77.4744 10.7091 77.7576 10.5301C78.0942 10.3215 78.4711 10.2161 78.8836 10.2161C79.405 10.2161 79.8388 10.3844 80.1837 10.7221C80.6127 11.1358 80.8273 11.7532 80.8273 12.5734V15.9204Z" fill="white"/>
<path d="M84.2524 15.9205H83.0115V7.77002H84.2524V15.9205Z" fill="white"/>
<path d="M91.565 13.0808C91.565 13.94 91.3197 14.644 90.829 15.1963C90.3147 15.764 89.632 16.0473 88.7822 16.0473C87.9609 16.0473 87.3078 15.7759 86.8219 15.2307C86.336 14.6867 86.093 14.0005 86.093 13.1732C86.093 12.308 86.3431 11.5981 86.8456 11.047C87.3481 10.4959 88.0237 10.2197 88.8735 10.2197C89.6948 10.2197 90.3526 10.4911 90.8527 11.0351C91.3268 11.5637 91.565 12.2464 91.565 13.0808ZM90.2755 13.1211C90.2755 12.6055 90.1641 12.1634 89.9425 11.7948C89.683 11.3492 89.3108 11.1264 88.8296 11.1264C88.3295 11.1264 87.9502 11.3492 87.6907 11.7948C87.4678 12.1634 87.3576 12.6126 87.3576 13.1436C87.3576 13.6591 87.469 14.1012 87.6907 14.4698C87.9597 14.9154 88.3342 15.1382 88.8178 15.1382C89.2918 15.1382 89.6628 14.9119 89.9307 14.4579C90.1618 14.0822 90.2755 13.6366 90.2755 13.1211Z" fill="white"/>
<path d="M97.5763 15.9205H96.461L96.3686 15.2769H96.3342C95.9526 15.7901 95.4086 16.0473 94.7022 16.0473C94.1748 16.0473 93.7481 15.8778 93.427 15.5412C93.1354 15.2354 92.9896 14.855 92.9896 14.4034C92.9896 13.7208 93.2741 13.2005 93.8465 12.8402C94.4178 12.4799 95.2213 12.3033 96.256 12.3116V12.2073C96.256 11.4713 95.8696 11.1039 95.0957 11.1039C94.5446 11.1039 94.0587 11.2425 93.6391 11.5175L93.3867 10.7021C93.9058 10.3809 94.547 10.2197 95.3031 10.2197C96.7632 10.2197 97.4957 10.9901 97.4957 12.5308V14.5883C97.4957 15.1465 97.5229 15.591 97.5763 15.9205ZM96.2868 14.0005V13.1388C94.9167 13.1151 94.2317 13.4908 94.2317 14.2648C94.2317 14.5563 94.3099 14.7744 94.4699 14.9202C94.6299 15.0659 94.8338 15.1382 95.0767 15.1382C95.3493 15.1382 95.6041 15.0517 95.8364 14.8799C96.0699 14.7068 96.2133 14.4876 96.2666 14.2185C96.2797 14.1581 96.2868 14.0846 96.2868 14.0005Z" fill="white"/>
<path d="M104.634 15.9205H103.532L103.474 15.0234H103.439C103.087 15.706 102.488 16.0474 101.645 16.0474C100.972 16.0474 100.411 15.7831 99.9668 15.2545C99.5223 14.7259 99.3007 14.0396 99.3007 13.197C99.3007 12.2927 99.5413 11.5602 100.025 11.0008C100.493 10.4794 101.067 10.2186 101.749 10.2186C102.5 10.2186 103.025 10.4711 103.323 10.9771H103.347V7.77002H104.59V14.4154C104.59 14.9594 104.604 15.4607 104.634 15.9205ZM103.347 13.5644V12.6328C103.347 12.4716 103.335 12.3413 103.313 12.2417C103.243 11.9431 103.092 11.6918 102.863 11.4891C102.632 11.2865 102.354 11.1845 102.033 11.1845C101.569 11.1845 101.207 11.3682 100.94 11.7368C100.676 12.1054 100.542 12.5759 100.542 13.1508C100.542 13.7031 100.668 14.1511 100.923 14.4959C101.192 14.8634 101.555 15.0471 102.009 15.0471C102.417 15.0471 102.743 14.8942 102.99 14.5872C103.23 14.3039 103.347 13.9626 103.347 13.5644Z" fill="white"/>
<path d="M115.257 13.0808C115.257 13.94 115.012 14.644 114.521 15.1963C114.006 15.764 113.326 16.0473 112.474 16.0473C111.655 16.0473 111.002 15.7759 110.514 15.2307C110.028 14.6867 109.785 14.0005 109.785 13.1732C109.785 12.308 110.035 11.5981 110.537 11.047C111.04 10.4959 111.716 10.2197 112.568 10.2197C113.387 10.2197 114.047 10.4911 114.545 11.0351C115.019 11.5637 115.257 12.2464 115.257 13.0808ZM113.97 13.1211C113.97 12.6055 113.858 12.1634 113.637 11.7948C113.375 11.3492 113.005 11.1264 112.521 11.1264C112.024 11.1264 111.644 11.3492 111.382 11.7948C111.16 12.1634 111.049 12.6126 111.049 13.1436C111.049 13.6591 111.161 14.1012 111.382 14.4698C111.652 14.9154 112.026 15.1382 112.51 15.1382C112.984 15.1382 113.357 14.9119 113.625 14.4579C113.854 14.0822 113.97 13.6366 113.97 13.1211Z" fill="white"/>
<path d="M121.935 15.9204H120.695V12.7204C120.695 11.7343 120.32 11.2412 119.567 11.2412C119.199 11.2412 118.901 11.3764 118.671 11.6478C118.441 11.9192 118.327 12.2392 118.327 12.6054V15.9192H117.083V11.9298C117.083 11.4392 117.069 10.907 117.039 10.331H118.13L118.188 11.2045H118.222C118.368 10.9331 118.584 10.7091 118.866 10.5301C119.204 10.3215 119.579 10.2161 119.993 10.2161C120.513 10.2161 120.947 10.3844 121.292 10.7221C121.722 11.1358 121.935 11.7532 121.935 12.5734V15.9204Z" fill="white"/>
<path d="M130.294 11.2639H128.927V13.978C128.927 14.6678 129.17 15.0127 129.651 15.0127C129.874 15.0127 130.059 14.9937 130.204 14.9546L130.236 15.8968C129.991 15.9892 129.669 16.0355 129.272 16.0355C128.781 16.0355 128.399 15.8861 128.123 15.5875C127.846 15.2888 127.708 14.7863 127.708 14.0811V11.2639H126.892V10.3335H127.708V9.30955L128.926 8.94214V10.3324H130.293V11.2639H130.294Z" fill="white"/>
<path d="M136.87 15.9205H135.627V12.7442C135.627 11.7428 135.252 11.2414 134.502 11.2414C133.926 11.2414 133.532 11.5318 133.317 12.1125C133.28 12.2346 133.259 12.3839 133.259 12.5594V15.9194H132.018V7.77002H133.259V11.1371H133.282C133.673 10.5244 134.234 10.2186 134.961 10.2186C135.475 10.2186 135.9 10.3869 136.238 10.7247C136.659 11.1454 136.87 11.7712 136.87 12.5985V15.9205Z" fill="white"/>
<path d="M143.653 12.8629C143.653 13.0857 143.636 13.2729 143.606 13.4258H139.881C139.898 13.9781 140.076 14.3989 140.421 14.6904C140.736 14.9512 141.142 15.0815 141.64 15.0815C142.191 15.0815 142.694 14.9938 143.147 14.8172L143.341 15.68C142.811 15.91 142.188 16.0249 141.466 16.0249C140.601 16.0249 139.919 15.7701 139.426 15.2605C138.931 14.7509 138.686 14.067 138.686 13.2089C138.686 12.3663 138.914 11.6646 139.375 11.1052C139.857 10.5079 140.507 10.2092 141.329 10.2092C142.132 10.2092 142.742 10.5079 143.155 11.1052C143.488 11.5793 143.653 12.166 143.653 12.8629ZM142.468 12.5417C142.477 12.1731 142.395 11.8555 142.227 11.5876C142.011 11.2427 141.683 11.0697 141.238 11.0697C140.833 11.0697 140.502 11.238 140.25 11.5757C140.044 11.8448 139.922 12.166 139.881 12.5417H142.468Z" fill="white"/>
</g>
<defs>
<clipPath id="clip0_18_206">
<rect width="160" height="47.4074" fill="white"/>
</clipPath>
</defs>
</svg>
