<svg width="150" height="45" viewBox="0 0 150 45" fill="none" xmlns="http://www.w3.org/2000/svg">
<path d="M148.924 39.1867C148.924 41.5378 147.02 43.4422 144.664 43.4422H5.25445C2.9 43.4422 0.988892 41.5378 0.988892 39.1867V5.25C0.988892 2.9 2.9 0.988892 5.25445 0.988892H144.663C147.02 0.988892 148.923 2.9 148.923 5.25L148.924 39.1867Z" fill="white" fill-opacity="0.1"/>
<path d="M33.4756 21.9822C33.4433 18.4011 36.4078 16.6589 36.5433 16.5778C34.8644 14.13 32.2622 13.7955 31.3478 13.7689C29.1622 13.5389 27.0422 15.0766 25.9289 15.0766C24.7933 15.0766 23.0789 13.7911 21.2311 13.8289C18.8533 13.8655 16.6289 15.2422 15.4089 17.38C12.8911 21.7389 14.7689 28.1444 17.1811 31.6678C18.3878 33.3933 19.7978 35.32 21.6433 35.2522C23.4489 35.1778 24.1233 34.1011 26.3022 34.1011C28.4611 34.1011 29.0944 35.2522 30.9767 35.2089C32.9144 35.1778 34.1344 33.4755 35.2989 31.7344C36.6933 29.7566 37.2533 27.8089 37.2756 27.7089C37.23 27.6933 33.5122 26.2744 33.4756 21.9822Z" fill="white"/>
<path d="M29.92 11.4511C30.8911 10.2367 31.5556 8.58444 31.3711 6.90778C29.9656 6.97 28.2078 7.88 27.1956 9.06778C26.3 10.1144 25.5 11.83 25.7067 13.4433C27.2856 13.5611 28.9067 12.6467 29.92 11.4511Z" fill="white"/>
<path d="M59.6056 35.0044H57.0822L55.7 30.6611H50.8956L49.5789 35.0044H47.1222L51.8822 20.2178H54.8222L59.6056 35.0044ZM55.2833 28.8389L54.0333 24.9778C53.9011 24.5833 53.6533 23.6544 53.2878 22.1922H53.2433C53.0978 22.8211 52.8633 23.75 52.5411 24.9778L51.3133 28.8389H55.2833Z" fill="white"/>
<path d="M71.8467 29.5422C71.8467 31.3555 71.3567 32.7888 70.3767 33.8411C69.4989 34.7777 68.4089 35.2455 67.1078 35.2455C65.7033 35.2455 64.6944 34.7411 64.08 33.7322H64.0356V39.3489H61.6667V27.8522C61.6667 26.7122 61.6367 25.5422 61.5789 24.3422H63.6622L63.7944 26.0322H63.8389C64.6289 24.7588 65.8278 24.1233 67.4367 24.1233C68.6944 24.1233 69.7444 24.62 70.5844 25.6144C71.4267 26.61 71.8467 27.9188 71.8467 29.5422ZM69.4333 29.6288C69.4333 28.5911 69.2 27.7355 68.7311 27.0622C68.2189 26.36 67.5311 26.0088 66.6689 26.0088C66.0844 26.0088 65.5533 26.2044 65.0789 26.59C64.6033 26.9788 64.2922 27.4866 64.1467 28.1155C64.0733 28.4088 64.0367 28.6488 64.0367 28.8377V30.6155C64.0367 31.3911 64.2744 32.0455 64.75 32.58C65.2256 33.1144 65.8433 33.3811 66.6033 33.3811C67.4956 33.3811 68.19 33.0366 68.6867 32.35C69.1844 31.6622 69.4333 30.7555 69.4333 29.6288Z" fill="white"/>
<path d="M84.11 29.5422C84.11 31.3555 83.62 32.7888 82.6389 33.8411C81.7622 34.7777 80.6722 35.2455 79.3711 35.2455C77.9667 35.2455 76.9578 34.7411 76.3444 33.7322H76.3V39.3489H73.9311V27.8522C73.9311 26.7122 73.9011 25.5422 73.8433 24.3422H75.9267L76.0589 26.0322H76.1033C76.8922 24.7588 78.0911 24.1233 79.7011 24.1233C80.9578 24.1233 82.0078 24.62 82.85 25.6144C83.6889 26.61 84.11 27.9188 84.11 29.5422ZM81.6967 29.6288C81.6967 28.5911 81.4622 27.7355 80.9933 27.0622C80.4811 26.36 79.7955 26.0088 78.9322 26.0088C78.3467 26.0088 77.8167 26.2044 77.3411 26.59C76.8655 26.9788 76.5555 27.4866 76.41 28.1155C76.3378 28.4088 76.3 28.6488 76.3 28.8377V30.6155C76.3 31.3911 76.5378 32.0455 77.0111 32.58C77.4867 33.1133 78.1044 33.3811 78.8667 33.3811C79.7589 33.3811 80.4533 33.0366 80.95 32.35C81.4478 31.6622 81.6967 30.7555 81.6967 29.6288Z" fill="white"/>
<path d="M97.8211 30.8578C97.8211 32.1155 97.3844 33.1389 96.5078 33.9289C95.5444 34.7922 94.2033 35.2233 92.48 35.2233C90.8889 35.2233 89.6133 34.9167 88.6478 34.3022L89.1967 32.3278C90.2367 32.9567 91.3778 33.2722 92.6211 33.2722C93.5133 33.2722 94.2078 33.07 94.7067 32.6678C95.2033 32.2655 95.4511 31.7255 95.4511 31.0522C95.4511 30.4522 95.2467 29.9467 94.8367 29.5367C94.4289 29.1267 93.7478 28.7455 92.7967 28.3933C90.2078 27.4278 88.9144 26.0133 88.9144 24.1533C88.9144 22.9378 89.3678 21.9411 90.2755 21.1655C91.18 20.3889 92.3867 20.0011 93.8955 20.0011C95.2411 20.0011 96.3589 20.2355 97.2511 20.7033L96.6589 22.6344C95.8255 22.1811 94.8833 21.9544 93.8289 21.9544C92.9955 21.9544 92.3444 22.16 91.8778 22.5689C91.4833 22.9344 91.2855 23.38 91.2855 23.9078C91.2855 24.4922 91.5111 24.9755 91.9644 25.3555C92.3589 25.7067 93.0755 26.0867 94.1155 26.4967C95.3878 27.0089 96.3222 27.6078 96.9233 28.2944C97.5222 28.9789 97.8211 29.8355 97.8211 30.8578Z" fill="white"/>
<path d="M105.653 26.12H103.042V31.2967C103.042 32.6133 103.502 33.2711 104.424 33.2711C104.848 33.2711 105.199 33.2344 105.477 33.1611L105.542 34.96C105.076 35.1344 104.461 35.2222 103.7 35.2222C102.764 35.2222 102.033 34.9367 101.506 34.3667C100.98 33.7955 100.716 32.8378 100.716 31.4922V26.1178H99.16V24.34H100.716V22.3878L103.042 21.6855V24.34H105.653V26.12Z" fill="white"/>
<path d="M117.434 29.5856C117.434 31.2245 116.966 32.57 116.03 33.6222C115.049 34.7056 113.747 35.2456 112.123 35.2456C110.559 35.2456 109.313 34.7267 108.384 33.6889C107.456 32.6511 106.991 31.3411 106.991 29.7622C106.991 28.11 107.469 26.7567 108.428 25.7045C109.384 24.6511 110.676 24.1245 112.299 24.1245C113.863 24.1245 115.122 24.6433 116.072 25.6822C116.981 26.69 117.434 27.9911 117.434 29.5856ZM114.977 29.6622C114.977 28.6789 114.767 27.8356 114.341 27.1322C113.844 26.2811 113.134 25.8567 112.214 25.8567C111.262 25.8567 110.539 26.2822 110.042 27.1322C109.617 27.8367 109.407 28.6933 109.407 29.7067C109.407 30.69 109.617 31.5333 110.042 32.2356C110.554 33.0867 111.27 33.5111 112.193 33.5111C113.098 33.5111 113.808 33.0778 114.32 32.2133C114.757 31.4967 114.977 30.6445 114.977 29.6622Z" fill="white"/>
<path d="M125.134 26.4255C124.9 26.3822 124.65 26.36 124.388 26.36C123.554 26.36 122.91 26.6744 122.457 27.3044C122.062 27.86 121.864 28.5622 121.864 29.41V35.0044H119.497L119.519 27.7C119.519 26.4711 119.489 25.3522 119.43 24.3433H121.493L121.58 26.3833H121.646C121.896 25.6822 122.29 25.1177 122.83 24.6944C123.358 24.3133 123.928 24.1233 124.542 24.1233C124.761 24.1233 124.959 24.1388 125.134 24.1666V26.4255Z" fill="white"/>
<path d="M135.729 29.1689C135.729 29.5933 135.701 29.9511 135.642 30.2433H128.536C128.563 31.2967 128.907 32.1022 129.567 32.6578C130.166 33.1544 130.94 33.4033 131.891 33.4033C132.943 33.4033 133.903 33.2356 134.767 32.8989L135.138 34.5433C134.129 34.9833 132.938 35.2022 131.563 35.2022C129.91 35.2022 128.612 34.7156 127.668 33.7433C126.726 32.7711 126.253 31.4656 126.253 29.8278C126.253 28.22 126.692 26.8811 127.571 25.8133C128.491 24.6733 129.734 24.1033 131.299 24.1033C132.836 24.1033 133.999 24.6733 134.789 25.8133C135.414 26.7189 135.729 27.8389 135.729 29.1689ZM133.47 28.5544C133.486 27.8522 133.331 27.2456 133.01 26.7333C132.6 26.0744 131.97 25.7456 131.122 25.7456C130.348 25.7456 129.718 26.0667 129.237 26.7111C128.842 27.2233 128.608 27.8378 128.536 28.5533H133.47V28.5544Z" fill="white"/>
<path d="M54.5 11.1211C54.5 12.4289 54.1078 13.4133 53.3245 14.0744C52.5989 14.6844 51.5678 14.99 50.2322 14.99C49.57 14.99 49.0033 14.9611 48.5289 14.9033V7.75774C49.1478 7.65774 49.8145 7.60663 50.5345 7.60663C51.8067 7.60663 52.7656 7.88329 53.4122 8.43663C54.1367 9.06218 54.5 9.95663 54.5 11.1211ZM53.2722 11.1533C53.2722 10.3055 53.0478 9.65552 52.5989 9.20218C52.15 8.74996 51.4945 8.52329 50.6311 8.52329C50.2645 8.52329 49.9522 8.54774 49.6933 8.59885V14.0311C49.8367 14.0533 50.0989 14.0633 50.48 14.0633C51.3711 14.0633 52.0589 13.8155 52.5433 13.32C53.0278 12.8244 53.2722 12.1022 53.2722 11.1533Z" fill="white"/>
<path d="M61.01 12.2633C61.01 13.0689 60.78 13.7289 60.32 14.2467C59.8378 14.7789 59.1989 15.0444 58.4011 15.0444C57.6322 15.0444 57.02 14.79 56.5633 14.2789C56.1078 13.7689 55.88 13.1256 55.88 12.35C55.88 11.5389 56.1144 10.8733 56.5856 10.3567C57.0567 9.84 57.69 9.58112 58.4878 9.58112C59.2567 9.58112 59.8744 9.83556 60.3422 10.3456C60.7867 10.8411 61.01 11.4811 61.01 12.2633ZM59.8022 12.3011C59.8022 11.8178 59.6978 11.4033 59.49 11.0578C59.2456 10.64 58.8978 10.4311 58.4456 10.4311C57.9778 10.4311 57.6222 10.64 57.3778 11.0578C57.1689 11.4033 57.0656 11.8244 57.0656 12.3222C57.0656 12.8056 57.17 13.22 57.3778 13.5656C57.63 13.9833 57.9811 14.1922 58.4344 14.1922C58.8789 14.1922 59.2278 13.98 59.4789 13.5544C59.6944 13.2022 59.8022 12.7844 59.8022 12.3011Z" fill="white"/>
<path d="M69.7389 9.68774L68.1 14.9255H67.0334L66.3545 12.6511C66.1822 12.0833 66.0422 11.5189 65.9334 10.9589H65.9122C65.8111 11.5344 65.6711 12.0977 65.4911 12.6511L64.77 14.9255H63.6911L62.15 9.68774H63.3467L63.9389 12.1777C64.0822 12.7666 64.2 13.3277 64.2945 13.8589H64.3156C64.4022 13.4211 64.5456 12.8633 64.7478 12.1889L65.4911 9.68886H66.44L67.1522 12.1355C67.3245 12.7322 67.4645 13.3066 67.5722 13.86H67.6045C67.6834 13.3211 67.8022 12.7466 67.96 12.1355L68.5956 9.68886H69.7389V9.68774Z" fill="white"/>
<path d="M75.7756 14.9255H74.6111V11.9255C74.6111 11.0011 74.26 10.5389 73.5556 10.5389C73.21 10.5389 72.9311 10.6655 72.7145 10.92C72.5 11.1744 72.3911 11.4744 72.3911 11.8178V14.9244H71.2267V11.1844C71.2267 10.7244 71.2123 10.2255 71.1845 9.68554H72.2078L72.2623 10.5044H72.2945C72.43 10.25 72.6323 10.04 72.8978 9.8722C73.2134 9.67665 73.5667 9.57776 73.9534 9.57776C74.4423 9.57776 74.8489 9.73554 75.1722 10.0522C75.5745 10.44 75.7756 11.0189 75.7756 11.7878V14.9255Z" fill="white"/>
<path d="M78.9867 14.9255H77.8233V7.28442H78.9867V14.9255Z" fill="white"/>
<path d="M85.8423 12.2633C85.8423 13.0689 85.6123 13.7289 85.1523 14.2467C84.67 14.7789 84.03 15.0444 83.2334 15.0444C82.4634 15.0444 81.8511 14.79 81.3956 14.2789C80.94 13.7689 80.7122 13.1256 80.7122 12.35C80.7122 11.5389 80.9467 10.8733 81.4178 10.3567C81.8889 9.84 82.5223 9.58112 83.3189 9.58112C84.0889 9.58112 84.7056 9.83556 85.1745 10.3456C85.6189 10.8411 85.8423 11.4811 85.8423 12.2633ZM84.6334 12.3011C84.6334 11.8178 84.5289 11.4033 84.3211 11.0578C84.0778 10.64 83.7289 10.4311 83.2778 10.4311C82.8089 10.4311 82.4534 10.64 82.21 11.0578C82.0011 11.4033 81.8978 11.8244 81.8978 12.3222C81.8978 12.8056 82.0022 13.22 82.21 13.5656C82.4622 13.9833 82.8134 14.1922 83.2667 14.1922C83.7111 14.1922 84.0589 13.98 84.31 13.5544C84.5267 13.2022 84.6334 12.7844 84.6334 12.3011Z" fill="white"/>
<path d="M91.4778 14.9256H90.4322L90.3456 14.3222H90.3133C89.9556 14.8033 89.4456 15.0444 88.7834 15.0444C88.2889 15.0444 87.8889 14.8856 87.5878 14.57C87.3145 14.2833 87.1778 13.9267 87.1778 13.5033C87.1778 12.8633 87.4445 12.3756 87.9811 12.0378C88.5167 11.7 89.27 11.5344 90.24 11.5422V11.4444C90.24 10.7544 89.8778 10.41 89.1522 10.41C88.6356 10.41 88.18 10.54 87.7867 10.7978L87.55 10.0333C88.0367 9.73223 88.6378 9.58112 89.3467 9.58112C90.7156 9.58112 91.4022 10.3033 91.4022 11.7478V13.6767C91.4022 14.2 91.4278 14.6167 91.4778 14.9256ZM90.2689 13.1256V12.3178C88.9845 12.2956 88.3422 12.6478 88.3422 13.3733C88.3422 13.6467 88.4156 13.8511 88.5656 13.9878C88.7156 14.1244 88.9067 14.1922 89.1345 14.1922C89.39 14.1922 89.6289 14.1111 89.8467 13.95C90.0656 13.7878 90.2 13.5822 90.25 13.33C90.2622 13.2733 90.2689 13.2044 90.2689 13.1256Z" fill="white"/>
<path d="M98.0945 14.9255H97.0611L97.0067 14.0844H96.9744C96.6444 14.7244 96.0822 15.0444 95.2922 15.0444C94.6611 15.0444 94.1356 14.7966 93.7189 14.3011C93.3022 13.8055 93.0945 13.1622 93.0945 12.3722C93.0945 11.5244 93.32 10.8378 93.7733 10.3133C94.2122 9.82442 94.75 9.57998 95.39 9.57998C96.0933 9.57998 96.5856 9.81665 96.8656 10.2911H96.8878V7.28442H98.0533V13.5144C98.0533 14.0244 98.0667 14.4944 98.0945 14.9255ZM96.8878 12.7166V11.8433C96.8878 11.6922 96.8767 11.57 96.8556 11.4766C96.79 11.1966 96.6489 10.9611 96.4344 10.7711C96.2178 10.5811 95.9567 10.4855 95.6556 10.4855C95.2211 10.4855 94.8811 10.6578 94.6311 11.0033C94.3833 11.3489 94.2578 11.79 94.2578 12.3289C94.2578 12.8466 94.3767 13.2666 94.6156 13.59C94.8678 13.9344 95.2078 14.1066 95.6333 14.1066C96.0156 14.1066 96.3211 13.9633 96.5533 13.6755C96.7778 13.41 96.8878 13.09 96.8878 12.7166Z" fill="white"/>
<path d="M108.053 12.2633C108.053 13.0689 107.823 13.7289 107.363 14.2467C106.881 14.7789 106.243 15.0444 105.444 15.0444C104.677 15.0444 104.064 14.79 103.607 14.2789C103.151 13.7689 102.923 13.1256 102.923 12.35C102.923 11.5389 103.158 10.8733 103.629 10.3567C104.1 9.84 104.733 9.58112 105.532 9.58112C106.3 9.58112 106.919 9.83556 107.386 10.3456C107.83 10.8411 108.053 11.4811 108.053 12.2633ZM106.847 12.3011C106.847 11.8178 106.742 11.4033 106.534 11.0578C106.289 10.64 105.942 10.4311 105.489 10.4311C105.022 10.4311 104.667 10.64 104.421 11.0578C104.212 11.4033 104.109 11.8244 104.109 12.3222C104.109 12.8056 104.213 13.22 104.421 13.5656C104.673 13.9833 105.024 14.1922 105.478 14.1922C105.922 14.1922 106.272 13.98 106.523 13.5544C106.738 13.2022 106.847 12.7844 106.847 12.3011Z" fill="white"/>
<path d="M114.314 14.9255H113.151V11.9255C113.151 11.0011 112.8 10.5389 112.094 10.5389C111.749 10.5389 111.47 10.6655 111.254 10.92C111.039 11.1744 110.931 11.4744 110.931 11.8178V14.9244H109.766V11.1844C109.766 10.7244 109.752 10.2255 109.724 9.68554H110.747L110.801 10.5044H110.833C110.97 10.25 111.172 10.04 111.437 9.8722C111.753 9.67665 112.106 9.57776 112.493 9.57776C112.981 9.57776 113.388 9.73554 113.711 10.0522C114.114 10.44 114.314 11.0189 114.314 11.7878V14.9255Z" fill="white"/>
<path d="M122.151 10.56H120.869V13.1044C120.869 13.7511 121.097 14.0744 121.548 14.0744C121.757 14.0744 121.93 14.0566 122.067 14.02L122.097 14.9033C121.867 14.99 121.564 15.0333 121.192 15.0333C120.732 15.0333 120.374 14.8933 120.116 14.6133C119.856 14.3333 119.727 13.8622 119.727 13.2011V10.56H118.961V9.68775H119.727V8.72775L120.868 8.3833V9.68663H122.15V10.56H122.151Z" fill="white"/>
<path d="M128.316 14.9255H127.15V11.9478C127.15 11.0089 126.799 10.5389 126.096 10.5389C125.556 10.5389 125.187 10.8111 124.984 11.3555C124.95 11.47 124.93 11.61 124.93 11.7744V14.9244H123.767V7.28442H124.93V10.4411H124.952C125.319 9.86665 125.844 9.57998 126.526 9.57998C127.008 9.57998 127.407 9.73776 127.723 10.0544C128.118 10.4489 128.316 11.0355 128.316 11.8111V14.9255Z" fill="white"/>
<path d="M134.674 12.0589C134.674 12.2678 134.659 12.4433 134.631 12.5867H131.139C131.154 13.1044 131.321 13.4989 131.644 13.7722C131.94 14.0167 132.321 14.1389 132.788 14.1389C133.304 14.1389 133.776 14.0567 134.2 13.8911L134.382 14.7C133.886 14.9155 133.301 15.0233 132.624 15.0233C131.813 15.0233 131.174 14.7844 130.712 14.3067C130.248 13.8289 130.018 13.1878 130.018 12.3833C130.018 11.5933 130.232 10.9355 130.664 10.4111C131.116 9.85111 131.726 9.57111 132.496 9.57111C133.249 9.57111 133.821 9.85111 134.208 10.4111C134.52 10.8555 134.674 11.4055 134.674 12.0589ZM133.563 11.7578C133.572 11.4122 133.496 11.1144 133.338 10.8633C133.136 10.54 132.828 10.3778 132.411 10.3778C132.031 10.3778 131.721 10.5356 131.484 10.8522C131.291 11.1044 131.177 11.4055 131.139 11.7578H133.563Z" fill="white"/>
</svg>
