<svg width="150" height="45" viewBox="0 0 150 45" fill="none" xmlns="http://www.w3.org/2000/svg">
<g clip-path="url(#clip0_18_46)">
<path fill-rule="evenodd" clip-rule="evenodd" d="M144.442 44.2621H5.5576C2.49457 44.2621 0 41.7675 0 38.7294V5.53276C0 2.48354 2.49457 0 5.5576 0H144.442C147.503 0 150 2.48354 150 5.53276V38.7294C150 41.7675 147.503 44.2621 144.442 44.2621Z" fill="white" fill-opacity="0.2"/>
<path d="M79.0206 14.6419C78.0189 14.6419 77.1745 14.2914 76.5067 13.6015C75.8444 12.931 75.4746 12.0065 75.4912 11.0628C75.4912 10.0556 75.8334 9.20291 76.5067 8.52684C77.1717 7.83697 78.0161 7.48651 79.0178 7.48651C80.0085 7.48651 80.8529 7.83697 81.5317 8.52684C82.205 9.22499 82.5472 10.0777 82.5472 11.0628C82.5361 12.0728 82.194 12.9255 81.5317 13.5988C80.8667 14.2942 80.0223 14.6419 79.0206 14.6419ZM49.2154 14.6419C48.2358 14.6419 47.3858 14.2969 46.6905 13.6153C46.0006 12.9365 45.6501 12.0783 45.6501 11.0656C45.6501 10.0528 46.0006 9.19463 46.6905 8.5158C47.372 7.83421 48.222 7.48927 49.2154 7.48927C49.7011 7.48927 50.1729 7.58585 50.6255 7.78178C51.0698 7.97218 51.4312 8.23157 51.6989 8.54891L51.7651 8.62894L51.0173 9.36296L50.9401 9.2719C50.5179 8.76967 49.9522 8.52408 49.2043 8.52408C48.5365 8.52408 47.9543 8.76139 47.4741 9.23051C46.9912 9.70238 46.7456 10.3205 46.7456 11.0683C46.7456 11.8161 46.9912 12.4343 47.4741 12.9061C47.9543 13.3753 48.5365 13.6126 49.2043 13.6126C49.9163 13.6126 50.5151 13.3753 50.9815 12.9061C51.2574 12.6302 51.4285 12.2439 51.4892 11.7554H49.0912V10.7234H52.5185L52.5323 10.8172C52.5571 10.9911 52.582 11.1704 52.582 11.336C52.582 12.288 52.295 13.0579 51.7265 13.6264C51.0808 14.2997 50.2364 14.6419 49.2154 14.6419ZM88.8443 14.4956H87.7874L84.5506 9.31605L84.5782 10.2488V14.4928H83.5213V7.63552H84.7272L84.7603 7.68795L87.804 12.5667L87.7764 11.6368V7.63552H88.8443V14.4956ZM71.0788 14.4956H70.0081V8.66757H68.151V7.63552H72.9331V8.66757H71.076V14.4956H71.0788ZM67.279 14.4956H66.211V7.63552H67.279V14.4956ZM61.2771 14.4956H60.2092V8.66757H58.352V7.63552H63.1342V8.66757H61.2771V14.4956ZM57.676 14.4846H53.5809V7.63552H57.676V8.66757H54.6516V10.5495H57.3807V11.5705H54.6516V13.4525H57.676V14.4846ZM77.2904 12.8923C77.7678 13.3697 78.3473 13.6098 79.0206 13.6098C79.7132 13.6098 80.2789 13.3753 80.7508 12.8923C81.2199 12.4232 81.4572 11.8079 81.4572 11.0656C81.4572 10.3233 81.2199 9.70514 80.7535 9.23878C80.2761 8.76139 79.6939 8.52132 79.0233 8.52132C78.3307 8.52132 77.765 8.75587 77.2959 9.23878C76.8268 9.7079 76.5895 10.3233 76.5895 11.0656C76.5895 11.8079 76.824 12.426 77.2904 12.8923Z" fill="white"/>
<path fill-rule="evenodd" clip-rule="evenodd" d="M75.3918 24.0738C72.7841 24.0738 70.6704 26.0523 70.6704 28.7814C70.6704 31.4857 72.7979 33.4891 75.3918 33.4891C77.9995 33.4891 80.1133 31.4968 80.1133 28.7814C80.1133 26.0523 77.9995 24.0738 75.3918 24.0738ZM75.3918 31.6237C73.9652 31.6237 72.7372 30.4426 72.7372 28.7704C72.7372 27.0733 73.9679 25.9171 75.3918 25.9171C76.8185 25.9171 78.0465 27.0733 78.0465 28.7704C78.0492 30.4537 76.8185 31.6237 75.3918 31.6237ZM65.0907 24.0738C62.483 24.0738 60.3692 26.0523 60.3692 28.7814C60.3692 31.4857 62.4968 33.4891 65.0907 33.4891C67.6984 33.4891 69.8122 31.4968 69.8122 28.7814C69.8122 26.0523 67.6956 24.0738 65.0907 24.0738ZM65.0907 31.6237C63.664 31.6237 62.4361 30.4426 62.4361 28.7704C62.4361 27.0733 63.6668 25.9171 65.0907 25.9171C66.5173 25.9171 67.7453 27.0733 67.7453 28.7704C67.7453 30.4537 66.5173 31.6237 65.0907 31.6237ZM52.8331 25.5114V27.5038H57.6152C57.469 28.6214 57.0992 29.4465 56.5335 30.0122C55.8326 30.7131 54.7509 31.4747 52.8441 31.4747C49.9052 31.4747 47.6066 29.1015 47.6066 26.1627C47.6066 23.2238 49.9052 20.8507 52.8441 20.8507C54.4308 20.8507 55.587 21.4771 56.4452 22.2773L57.8581 20.8645C56.666 19.722 55.0793 18.8473 52.8551 18.8473C48.8235 18.8473 45.4404 22.1311 45.4404 26.1516C45.4404 30.1833 48.8208 33.456 52.8551 33.456C55.0324 33.456 56.666 32.7441 57.9574 31.4029C59.2737 30.0867 59.6904 28.2295 59.6904 26.7311C59.6904 26.2648 59.6545 25.8453 59.58 25.4894H52.8303C52.8331 25.4866 52.8331 25.5114 52.8331 25.5114ZM102.97 27.0623C102.576 26.0054 101.383 24.0627 98.9385 24.0627C96.5157 24.0627 94.5013 25.9695 94.5013 28.7704C94.5013 31.414 96.4936 33.4781 99.1731 33.4781C101.325 33.4781 102.578 32.1618 103.094 31.3891L101.497 30.3185C100.967 31.1049 100.23 31.6209 99.1841 31.6209C98.1272 31.6209 97.3877 31.1408 96.8965 30.1943L103.191 27.5866C103.191 27.5893 102.97 27.0623 102.97 27.0623ZM96.5515 28.6352C96.5019 26.8167 97.9644 25.8923 99.0103 25.8923C99.8353 25.8923 100.522 26.2979 100.757 26.8884L96.5515 28.6352ZM91.4382 33.1966H93.5051V19.3661H91.4382V33.1966ZM88.0441 25.1196H87.9696C87.5032 24.5649 86.6174 24.0627 85.486 24.0627C83.1377 24.0627 80.9743 26.1296 80.9743 28.7842C80.9743 31.4278 83.1267 33.4698 85.486 33.4698C86.6036 33.4698 87.5032 32.9648 87.9696 32.3991H88.0441V33.0752C88.0441 34.8716 87.0838 35.8402 85.5357 35.8402C84.2691 35.8402 83.4826 34.9296 83.1625 34.1679L81.3661 34.9185C81.8821 36.1603 83.2591 37.6973 85.5329 37.6973C87.9558 37.6973 90.0088 36.2707 90.0088 32.791V24.3442H88.0551V25.1196C88.0579 25.1196 88.0441 25.1196 88.0441 25.1196ZM85.6709 31.6237C84.2443 31.6237 83.0522 30.4316 83.0522 28.7842C83.0522 27.123 84.2443 25.9198 85.6709 25.9198C87.0838 25.9198 88.1793 27.1368 88.1793 28.7842C88.1931 30.4316 87.0865 31.6237 85.6709 31.6237ZM112.648 19.3661H107.705V33.1966H109.772V27.9591H112.65C114.938 27.9591 117.187 26.3007 117.187 23.6681C117.187 21.0356 114.946 19.3661 112.648 19.3661ZM112.708 26.0275H109.769V21.2812H112.708C114.256 21.2812 115.131 22.5588 115.131 23.6543C115.131 24.7388 114.245 26.0275 112.708 26.0275ZM125.471 24.0489C123.97 24.0489 122.422 24.714 121.782 26.1627L123.614 26.9243C124.008 26.1627 124.731 25.9033 125.496 25.9033C126.566 25.9033 127.648 26.5435 127.673 27.6859V27.8322C127.303 27.6224 126.492 27.3023 125.521 27.3023C123.542 27.3023 121.536 28.3841 121.536 30.4123C121.536 32.2694 123.158 33.4615 124.966 33.4615C126.354 33.4615 127.118 32.8351 127.596 32.1094H127.67V33.18H129.663V27.8818C129.663 25.4149 127.83 24.0489 125.471 24.0489ZM125.212 31.6237C124.535 31.6237 123.589 31.2926 123.589 30.4426C123.589 29.372 124.77 28.9663 125.777 28.9663C126.688 28.9663 127.118 29.1622 127.659 29.4327C127.51 30.6744 126.462 31.6127 125.212 31.6237ZM136.931 24.3442L134.558 30.3433H134.483L132.025 24.3442H129.801L133.49 32.7303L131.387 37.391H133.54L139.216 24.3442H136.931ZM118.327 33.1966H120.393V19.3661H118.327V33.1966Z" fill="white"/>
<path d="M11.0009 10.3571V34.4053C11.0009 35.0833 11.1817 35.6013 11.5057 35.9268L11.5894 36L25 22.5263V22.2252L11.4502 8C10.9966 8.91151 10.9976 9.24119 11.0004 10.1259C11.0006 10.199 11.0009 10.2758 11.0009 10.3571Z" fill="white"/>
<path d="M11.0009 10.3571V34.4053C11.0009 35.0833 11.1817 35.6013 11.5057 35.9268L11.5894 36L25 22.5263V22.2252L11.4502 8C10.9966 8.91151 10.9976 9.24119 11.0004 10.1259C11.0006 10.199 11.0009 10.2758 11.0009 10.3571Z" stroke="black"/>
<path d="M30.9128 26.8636L26.3403 22.2911V21.971L30.9128 17.3986L31.0121 17.4593L36.4207 20.5333C37.9688 21.4053 37.9688 22.8458 36.4207 23.7288L31.0121 26.8029L30.9128 26.8636Z" fill="white"/>
<path d="M30.9128 26.8636L26.3403 22.2911V21.971L30.9128 17.3986L31.0121 17.4593L36.4207 20.5333C37.9688 21.4053 37.9688 22.8458 36.4207 23.7288L31.0121 26.8029L30.9128 26.8636Z" stroke="black"/>
<path d="M30.0121 27.8029L25.3403 23.1311L11.5457 36.9258C12.0506 37.4666 12.8978 37.5273 13.8443 37.0003L30.0121 27.8029Z" fill="white"/>
<path d="M30.0121 27.8029L25.3403 23.1311L11.5457 36.9258C12.0506 37.4666 12.8978 37.5273 13.8443 37.0003L30.0121 27.8029Z" stroke="black"/>
<path d="M30.0121 16.4593L13.8443 7.2757C12.8978 6.73485 12.0479 6.80935 11.5457 7.35021L25.3403 21.1311L30.0121 16.4593Z" fill="white"/>
<path d="M30.0121 16.4593L13.8443 7.2757C12.8978 6.73485 12.0479 6.80935 11.5457 7.35021L25.3403 21.1311L30.0121 16.4593Z" stroke="black"/>
</g>
<defs>
<clipPath id="clip0_18_46">
<rect width="150" height="44.2621" fill="white"/>
</clipPath>
</defs>
</svg>
