<svg width="160" height="48" viewBox="0 0 160 48" fill="none" xmlns="http://www.w3.org/2000/svg">
<g clip-path="url(#clip0_18_194)">
<path fill-rule="evenodd" clip-rule="evenodd" d="M154.072 47.2129H5.92811C2.66088 47.2129 0 44.5521 0 41.3113V5.90162C0 2.6491 2.66088 0 5.92811 0H154.072C157.336 0 160 2.6491 160 5.90162V41.3113C160 44.5521 157.336 47.2129 154.072 47.2129Z" fill="#0D0D0D"/>
<path fill-rule="evenodd" clip-rule="evenodd" d="M154.072 0.944847C156.812 0.944847 159.055 3.17304 159.055 5.90162V41.3113C159.055 44.0399 156.827 46.2681 154.072 46.2681H5.92811C3.18776 46.2681 0.944847 44.0399 0.944847 41.3113V5.90162C0.944847 3.17304 3.17304 0.944847 5.92811 0.944847H154.072ZM154.072 0H5.92811C2.66088 0 0 2.66088 0 5.90162V41.3113C0 44.5638 2.66088 47.2129 5.92811 47.2129H154.072C157.336 47.2129 160 44.5638 160 41.3113V5.90162C160 2.66088 157.336 0 154.072 0Z" fill="#A6A6A6"/>
<path d="M84.2886 15.618C83.2201 15.618 82.3194 15.2441 81.6071 14.5083C80.9007 13.793 80.5063 12.807 80.5239 11.8003C80.5239 10.7259 80.8889 9.81642 81.6071 9.09528C82.3165 8.35941 83.2172 7.9856 84.2857 7.9856C85.3424 7.9856 86.2431 8.35941 86.9672 9.09528C87.6854 9.83997 88.0503 10.7495 88.0503 11.8003C88.0386 12.8776 87.6736 13.7871 86.9672 14.5053C86.2578 15.2471 85.3571 15.618 84.2886 15.618ZM52.4964 15.618C51.4515 15.618 50.5449 15.25 49.8032 14.523C49.0673 13.7989 48.6935 12.8835 48.6935 11.8032C48.6935 10.723 49.0673 9.80759 49.8032 9.0835C50.5302 8.35647 51.4368 7.98854 52.4964 7.98854C53.0145 7.98854 53.5178 8.09156 54.0005 8.30055C54.4744 8.50364 54.86 8.78033 55.1455 9.11882L55.2162 9.20418L54.4185 9.98714L54.3361 9.89001C53.8857 9.3543 53.2823 9.09233 52.4846 9.09233C51.7723 9.09233 51.1513 9.34547 50.6391 9.84586C50.124 10.3492 49.862 11.0085 49.862 11.8062C49.862 12.6039 50.124 13.2632 50.6391 13.7665C51.1513 14.2669 51.7723 14.5201 52.4846 14.5201C53.2441 14.5201 53.8828 14.2669 54.3802 13.7665C54.6746 13.4722 54.8571 13.0601 54.9218 12.5391H52.364V11.4383H56.0197L56.0344 11.5383C56.0609 11.7238 56.0874 11.9151 56.0874 12.0917C56.0874 13.1072 55.7813 13.9284 55.175 14.5348C54.4862 15.253 53.5855 15.618 52.4964 15.618ZM94.7673 15.462H93.64L90.1873 9.9371L90.2167 10.932V15.459H89.0894V8.14454H90.3757L90.411 8.20047L93.6576 13.4045L93.6282 12.4125V8.14454H94.7673V15.462ZM75.8174 15.462H74.6753V9.24539H72.6944V8.14454H77.7954V9.24539H75.8144V15.462H75.8174ZM71.7642 15.462H70.6251V8.14454H71.7642V15.462ZM65.3622 15.462H64.2231V9.24539H62.2422V8.14454H67.3432V9.24539H65.3622V15.462ZM61.521 15.4502H57.153V8.14454H61.521V9.24539H58.295V11.2528H61.2061V12.3419H58.295V14.3493H61.521V15.4502ZM82.4431 13.7518C82.9523 14.261 83.5704 14.5171 84.2886 14.5171C85.0274 14.5171 85.6308 14.2669 86.1342 13.7518C86.6345 13.2514 86.8877 12.595 86.8877 11.8032C86.8877 11.0115 86.6345 10.3521 86.1371 9.85469C85.6279 9.34547 85.0068 9.08939 84.2916 9.08939C83.5527 9.08939 82.9493 9.33958 82.449 9.85469C81.9486 10.3551 81.6954 11.0115 81.6954 11.8032C81.6954 12.595 81.9456 13.2544 82.4431 13.7518Z" fill="white"/>
<path fill-rule="evenodd" clip-rule="evenodd" d="M80.4179 25.6789C77.6364 25.6789 75.3817 27.7894 75.3817 30.7004C75.3817 33.585 77.6511 35.7219 80.4179 35.7219C83.1995 35.7219 85.4542 33.5968 85.4542 30.7004C85.4542 27.7894 83.1995 25.6789 80.4179 25.6789ZM80.4179 33.7322C78.8962 33.7322 77.5863 32.4724 77.5863 30.6886C77.5863 28.8784 78.8991 27.6451 80.4179 27.6451C81.9397 27.6451 83.2495 28.8784 83.2495 30.6886C83.2525 32.4842 81.9397 33.7322 80.4179 33.7322ZM69.43 25.6789C66.6485 25.6789 64.3938 27.7894 64.3938 30.7004C64.3938 33.585 66.6632 35.7219 69.43 35.7219C72.2116 35.7219 74.4663 33.5968 74.4663 30.7004C74.4663 27.7894 72.2086 25.6789 69.43 25.6789ZM69.43 33.7322C67.9083 33.7322 66.5984 32.4724 66.5984 30.6886C66.5984 28.8784 67.9112 27.6451 69.43 27.6451C70.9518 27.6451 72.2616 28.8784 72.2616 30.6886C72.2616 32.4842 70.9518 33.7322 69.43 33.7322ZM56.3552 27.2124V29.3376H61.4562C61.3002 30.5297 60.9058 31.4098 60.3024 32.0132C59.5548 32.7608 58.4009 33.5732 56.367 33.5732C53.2322 33.5732 50.7803 31.0419 50.7803 27.9071C50.7803 24.7723 53.2322 22.2409 56.367 22.2409C58.0595 22.2409 59.2928 22.9091 60.2082 23.7627L61.7152 22.2557C60.4437 21.0371 58.7512 20.104 56.3788 20.104C52.0784 20.104 48.4697 23.6067 48.4697 27.8953C48.4697 32.1957 52.0755 35.6866 56.3788 35.6866C58.7012 35.6866 60.4437 34.9272 61.8212 33.4967C63.2252 32.0927 63.6697 30.1117 63.6697 28.5134C63.6697 28.016 63.6314 27.5686 63.552 27.1889H56.3523C56.3552 27.1859 56.3552 27.2124 56.3552 27.2124ZM109.835 28.8667C109.414 27.7393 108.142 25.6671 105.534 25.6671C102.95 25.6671 100.801 27.701 100.801 30.6886C100.801 33.5085 102.926 35.7102 105.785 35.7102C108.08 35.7102 109.417 34.3062 109.967 33.482L108.263 32.3399C107.698 33.1788 106.912 33.7292 105.796 33.7292C104.669 33.7292 103.88 33.2171 103.356 32.2075L110.07 29.4259C110.07 29.4289 109.835 28.8667 109.835 28.8667ZM102.988 30.5444C102.935 28.6047 104.495 27.6186 105.611 27.6186C106.491 27.6186 107.224 28.0513 107.474 28.6812L102.988 30.5444ZM97.5341 35.4099H99.7387V20.6574H97.5341V35.4099ZM93.9136 26.7945H93.8341C93.3367 26.2028 92.3919 25.6671 91.185 25.6671C88.6802 25.6671 86.3725 27.8718 86.3725 30.7034C86.3725 33.5232 88.6684 35.7013 91.185 35.7013C92.3771 35.7013 93.3367 35.1627 93.8341 34.5593H93.9136V35.2804C93.9136 37.1966 92.8893 38.2298 91.238 38.2298C89.887 38.2298 89.0481 37.2584 88.7067 36.446L86.7905 37.2467C87.3409 38.5712 88.8097 40.2107 91.2351 40.2107C93.8194 40.2107 96.0094 38.6889 96.0094 34.9773V25.9674H93.9254V26.7945C93.9283 26.7945 93.9136 26.7945 93.9136 26.7945ZM91.3823 33.7322C89.8605 33.7322 88.5889 32.4606 88.5889 30.7034C88.5889 28.9314 89.8605 27.6481 91.3823 27.6481C92.8893 27.6481 94.0579 28.9461 94.0579 30.7034C94.0726 32.4606 92.8923 33.7322 91.3823 33.7322ZM120.157 20.6574H114.886V35.4099H117.09V29.8233H120.16C122.6 29.8233 124.999 28.0543 124.999 25.2462C124.999 22.4382 122.609 20.6574 120.157 20.6574ZM120.222 27.7629H117.087V22.7001H120.222C121.873 22.7001 122.807 24.0629 122.807 25.2315C122.807 26.3883 121.862 27.7629 120.222 27.7629ZM133.836 25.6524C132.234 25.6524 130.583 26.3618 129.9 27.9071L131.855 28.7195C132.276 27.9071 133.047 27.6304 133.862 27.6304C135.004 27.6304 136.158 28.3133 136.184 29.5319V29.6879C135.79 29.4642 134.925 29.1227 133.889 29.1227C131.778 29.1227 129.638 30.2766 129.638 32.44C129.638 34.4209 131.369 35.6925 133.297 35.6925C134.778 35.6925 135.593 35.0244 136.102 34.2502H136.182V35.3923H138.307V29.7409C138.307 27.1094 136.352 25.6524 133.836 25.6524ZM133.559 33.7322C132.838 33.7322 131.828 33.379 131.828 32.4724C131.828 31.3303 133.088 30.8976 134.162 30.8976C135.134 30.8976 135.593 31.1066 136.17 31.3951C136.011 32.7196 134.892 33.7204 133.559 33.7322ZM146.06 25.9674L143.528 32.3664H143.449L140.826 25.9674H138.454L142.389 34.9125L140.146 39.884H142.442L148.497 25.9674H146.06ZM126.215 35.4099H128.42V20.6574H126.215V35.4099Z" fill="white"/>
<path fill-rule="evenodd" clip-rule="evenodd" d="M12.3154 8.89222C11.9739 9.26015 11.7767 9.82235 11.7767 10.5582V36.6578C11.7767 37.3936 11.9739 37.9558 12.3272 38.3091L12.4184 38.3885L27.0415 23.7655V23.4387L12.4066 8.81274L12.3154 8.89222Z" fill="url(#paint0_linear_18_194)"/>
<path fill-rule="evenodd" clip-rule="evenodd" d="M31.907 28.6546L27.0297 23.7773V23.4359L31.907 18.5586L32.013 18.6234L37.7821 21.9024C39.4334 22.8325 39.4334 24.369 37.7821 25.3109L32.013 28.5899L31.907 28.6546Z" fill="url(#paint1_linear_18_194)"/>
<path fill-rule="evenodd" clip-rule="evenodd" d="M32.013 28.5897L27.0297 23.6064L12.3154 38.3208C12.8541 38.8977 13.7577 38.9624 14.7673 38.4002L32.013 28.5897Z" fill="url(#paint2_linear_18_194)"/>
<path fill-rule="evenodd" clip-rule="evenodd" d="M32.013 18.6232L14.7673 8.82737C13.7577 8.25045 12.8511 8.32993 12.3154 8.90684L27.0297 23.6064L32.013 18.6232Z" fill="url(#paint3_linear_18_194)"/>
<path opacity="0.2" fill-rule="evenodd" clip-rule="evenodd" d="M31.907 28.4839L14.779 38.2149C13.8224 38.7654 12.9688 38.7271 12.4184 38.2267L12.3271 38.318L12.4184 38.3974C12.9688 38.8949 13.8224 38.9361 14.779 38.3857L32.0247 28.5899L31.907 28.4839Z" fill="black"/>
<path opacity="0.12" fill-rule="evenodd" clip-rule="evenodd" d="M37.7821 25.14L31.8923 28.4837L31.9982 28.5897L37.7674 25.3107C38.5945 24.8398 39.0007 24.2216 39.0007 23.6064C38.9507 24.1716 38.5297 24.7073 37.7821 25.14Z" fill="black"/>
<path opacity="0.25" fill-rule="evenodd" clip-rule="evenodd" d="M14.7673 8.9981L37.7821 22.0729C38.5297 22.4938 38.9507 23.0442 39.0154 23.6064C39.0154 22.9913 38.6092 22.3731 37.7821 21.9022L14.7673 8.82738C13.116 7.88254 11.7767 8.67138 11.7767 10.5581V10.7289C11.7767 8.83916 13.116 8.06503 14.7673 8.9981Z" fill="white"/>
</g>
<defs>
<linearGradient id="paint0_linear_18_194" x1="25.7298" y1="10.2766" x2="2.30618" y2="16.5179" gradientUnits="userSpaceOnUse">
<stop stop-color="#00A0FF"/>
<stop offset="0.00657" stop-color="#00A1FF"/>
<stop offset="0.2601" stop-color="#00BEFF"/>
<stop offset="0.5122" stop-color="#00D2FF"/>
<stop offset="0.7604" stop-color="#00DFFF"/>
<stop offset="1" stop-color="#00E3FF"/>
</linearGradient>
<linearGradient id="paint1_linear_18_194" x1="39.9356" y1="23.6067" x2="11.3754" y2="23.6067" gradientUnits="userSpaceOnUse">
<stop stop-color="#FFE000"/>
<stop offset="0.4087" stop-color="#FFBD00"/>
<stop offset="0.7754" stop-color="#FFA500"/>
<stop offset="1" stop-color="#FF9C00"/>
</linearGradient>
<linearGradient id="paint2_linear_18_194" x1="29.3033" y1="26.3181" x2="10.4989" y2="57.9674" gradientUnits="userSpaceOnUse">
<stop stop-color="#FF3A44"/>
<stop offset="1" stop-color="#C31162"/>
</linearGradient>
<linearGradient id="paint3_linear_18_194" x1="8.61021" y1="0.210993" x2="16.9996" y2="14.3461" gradientUnits="userSpaceOnUse">
<stop stop-color="#32A071"/>
<stop offset="0.0685" stop-color="#2DA771"/>
<stop offset="0.4762" stop-color="#15CF74"/>
<stop offset="0.8009" stop-color="#06E775"/>
<stop offset="1" stop-color="#00F076"/>
</linearGradient>
<clipPath id="clip0_18_194">
<rect width="160" height="47.2129" fill="white"/>
</clipPath>
</defs>
</svg>
