<svg width="36" height="36" viewBox="0 0 36 36" fill="none" xmlns="http://www.w3.org/2000/svg">
<path d="M32.4702 2H20.2315C19.3911 2 18.2142 2.48751 17.6206 3.08108L2.44674 18.255C2.16063 18.5424 2 18.9315 2 19.3371C2 19.7426 2.16063 20.1317 2.44674 20.4192L15.5808 33.5533C15.8683 33.8394 16.2574 34 16.6629 34C17.0685 34 17.4576 33.8394 17.745 33.5533L32.9189 18.3794C33.5145 17.7838 34 16.6089 34 15.7685V3.52983C33.9984 3.12459 33.8367 2.73641 33.5501 2.44986C33.2636 2.16331 32.8754 2.00161 32.4702 2V2ZM24.821 14.2386C24.4191 14.2385 24.0211 14.1592 23.6498 14.0053C23.2785 13.8513 22.9412 13.6258 22.6571 13.3415C22.373 13.0572 22.1476 12.7197 21.9939 12.3483C21.8403 11.9769 21.7612 11.5789 21.7614 11.1769C21.7615 10.775 21.8408 10.377 21.9947 10.0057C22.1487 9.63446 22.3742 9.29713 22.6585 9.01301C22.9428 8.7289 23.2803 8.50356 23.6517 8.34987C24.0231 8.19618 24.4211 8.11715 24.8231 8.11728C25.6348 8.11755 26.4132 8.44028 26.987 9.01446C27.5608 9.58864 27.883 10.3672 27.8827 11.179C27.8824 11.9907 27.5597 12.7691 26.9855 13.3429C26.4114 13.9167 25.6328 14.2389 24.821 14.2386V14.2386Z" fill="#262626"/>
</svg>
